<svg width="42" height="39" viewBox="0 0 42 39" fill="none" xmlns="http://www.w3.org/2000/svg">
<g clip-path="url(#clip0_562_949)">
<path fill-rule="evenodd" clip-rule="evenodd" d="M8.82774 28.8391C7.55324 26.801 6.93287 24.5482 6.93381 22.3101H1.37241C1.37178 25.4213 2.23604 28.556 4.01115 31.3942C4.77535 32.6221 6.47323 33.0455 7.80338 32.3398C9.13354 31.6343 9.59225 30.067 8.82774 28.8391Z" fill="#00C9AF"/>
<path fill-rule="evenodd" clip-rule="evenodd" d="M35.1998 22.3101C35.2007 24.5479 34.5804 26.8008 33.3059 28.8388C32.5414 30.0667 33.0001 31.634 34.3302 32.3395C35.6604 33.0452 37.3583 32.6218 38.1225 31.3942C39.8976 28.5557 40.7621 25.4213 40.7612 22.3101H35.1998Z" fill="#FD4848"/>
<path fill-rule="evenodd" clip-rule="evenodd" d="M7.0555 20.6044C7.29501 18.9251 7.89193 17.2861 8.83154 15.7893L4.00526 13.2172C2.70449 15.3015 1.87651 17.5898 1.54131 19.9405C1.42937 20.7253 1.37277 21.517 1.37277 22.3102H6.93386C6.93418 21.7396 6.97482 21.1695 7.0555 20.6044Z" fill="#8AE7D3"/>
<path fill-rule="evenodd" clip-rule="evenodd" d="M4.00525 13.2167L8.83122 15.7888C9.43876 14.821 10.1898 13.9126 11.0797 13.0909C11.974 12.2657 12.9583 11.5741 14.0033 11.0161L11.2129 6.5549C9.7552 7.33279 8.3822 8.29771 7.13491 9.4491C5.89574 10.593 4.85043 11.8618 4.00525 13.2167Z" fill="#FFD777"/>
<path fill-rule="evenodd" clip-rule="evenodd" d="M11.2129 6.55526L14.0033 11.0165C16.1814 9.85413 18.6241 9.27281 21.0668 9.27281V4.12231C17.6595 4.12231 14.2518 4.9331 11.2129 6.55526Z" fill="#FFBA4A"/>
<path fill-rule="evenodd" clip-rule="evenodd" d="M21.0669 4.12231V9.27281C22.241 9.27281 23.4152 9.40703 24.5599 9.67575L24.8854 9.75599C26.0076 10.0458 27.0989 10.4658 28.1304 11.0165L30.9208 6.55526C27.8822 4.9331 24.4745 4.12231 21.0669 4.12231Z" fill="#FFBA4A"/>
<path fill-rule="evenodd" clip-rule="evenodd" d="M30.9208 6.5549L28.1304 11.0161C29.1757 11.5738 30.1597 12.2654 31.054 13.0909C31.9442 13.9126 32.695 14.821 33.3025 15.7888L38.1288 13.2167C37.2833 11.8618 36.2383 10.593 34.9988 9.4491C33.7515 8.29771 32.3788 7.33308 30.9208 6.5549Z" fill="#FF8244"/>
<path fill-rule="evenodd" clip-rule="evenodd" d="M38.1288 13.2172L33.3025 15.7893C34.2421 17.2861 34.839 18.9251 35.0785 20.6044C35.1589 21.1695 35.1999 21.7396 35.2002 22.3102H40.7613C40.7613 21.517 40.7047 20.7253 40.5927 19.9405C40.2575 17.5898 39.4292 15.3017 38.1288 13.2172Z" fill="#FF8244"/>
<path fill-rule="evenodd" clip-rule="evenodd" d="M20.6584 23.7228L24.5467 24.3094L36.3361 26.0874L25.1617 22.1855L21.478 20.8991C20.6634 20.6148 19.7639 21.1565 19.5387 21.9327C19.3133 22.7089 19.7992 23.5932 20.6584 23.7228Z" fill="#808080"/>
<path fill-rule="evenodd" clip-rule="evenodd" d="M24.5467 24.3091L20.6585 23.7229C19.7992 23.593 19.3133 22.7089 19.5387 21.9327C19.7639 21.1563 20.6635 20.6148 21.478 20.8991L25.1617 22.1856C25.1286 21.2599 24.7296 20.3438 23.9645 19.6372C22.3648 18.1605 19.7714 18.1605 18.1717 19.6372C16.572 21.1139 16.572 23.5079 18.1717 24.9845C19.7714 26.4612 22.3648 26.4612 23.9645 24.9845C24.1906 24.7761 24.3844 24.5493 24.5467 24.3091Z" fill="#E6E6E6"/>
<path fill-rule="evenodd" clip-rule="evenodd" d="M16.2634 30.3163H25.8703V32.6811H16.2634V30.3163Z" fill="#8AE7D3"/>
<path d="M7.13489 10.1887C7.3397 10.1887 7.5445 10.1166 7.70085 9.97224C7.70147 9.97195 7.70366 9.96993 7.70554 9.9682C8.01791 9.6836 8.02385 9.21917 7.71742 8.92765C7.40942 8.63497 6.90256 8.62775 6.58519 8.91206C6.58175 8.91524 6.57143 8.92447 6.56799 8.92794C6.25624 9.21658 6.25624 9.68389 6.56862 9.97224C6.72527 10.1168 6.93008 10.1887 7.13489 10.1887Z" fill="black"/>
<path d="M41.3863 19.8439C40.7994 15.7273 38.7319 11.8503 35.565 8.92695C31.6921 5.35185 26.5435 3.38303 21.0668 3.38303C16.7868 3.38303 12.6891 4.58579 9.2164 6.86115C8.85587 7.09754 8.77113 7.55879 9.02691 7.89159C9.28268 8.2244 9.78235 8.30262 10.1432 8.06651C10.4015 7.89737 10.6635 7.73515 10.929 7.579L12.9201 10.7627C12.0621 11.2808 11.2554 11.8838 10.5137 12.5684C9.77891 13.2467 9.12572 13.9937 8.56226 14.7921L5.11335 12.9543C5.47294 12.4308 5.86286 11.9242 6.2831 11.4373C6.55827 11.118 6.50136 10.653 6.15553 10.3987C5.80939 10.1444 5.30597 10.1973 5.03049 10.5162C2.71632 13.1985 1.23513 16.4238 0.747342 19.8436C0.16231 23.9449 1.07535 28.1781 3.31698 31.7622C3.7932 32.5273 4.56365 33.0752 5.48638 33.3052C5.79688 33.3829 6.11207 33.421 6.42538 33.421C7.04293 33.421 7.65266 33.272 8.20236 32.9805C9.03129 32.5406 9.62476 31.8297 9.87397 30.9779C10.1232 30.1259 9.99842 29.2357 9.52126 28.4693C8.04039 26.1013 7.46192 23.415 7.84903 20.7006C8.23394 18.0018 9.5469 15.5512 11.646 13.6136C14.1624 11.2906 17.5082 10.0117 21.0668 10.0117C24.6258 10.0117 27.9718 11.2906 30.488 13.6136C32.587 15.551 33.8997 18.0018 34.2849 20.7006C34.47 21.9992 34.4338 23.2914 34.1836 24.5459L25.9125 21.6577C25.7618 20.6977 25.2827 19.809 24.5307 19.1148C22.6215 17.3524 19.515 17.3524 17.6057 19.1148C15.6965 20.8772 15.6965 23.7452 17.6057 25.5076C18.5603 26.3888 19.8142 26.8293 21.0681 26.8293C22.3222 26.8293 23.5761 26.3888 24.5307 25.5073C24.6658 25.3829 24.7925 25.251 24.9106 25.1133L33.6358 26.4292C33.365 27.1301 33.0232 27.8124 32.6117 28.4705C31.629 30.0499 32.2209 32.073 33.9316 32.9802C34.7602 33.4201 35.7248 33.5353 36.6476 33.3052C37.5703 33.0752 38.3407 32.5271 38.816 31.7636C41.0583 28.1784 41.9713 23.9449 41.3863 19.8439ZM8.13388 29.2071C8.39685 29.63 8.46595 30.1218 8.32837 30.5926C8.19048 31.0631 7.86247 31.4562 7.4047 31.6989C6.94662 31.942 6.41381 32.0058 5.90382 31.8788C5.39414 31.7515 4.96827 31.4487 4.70436 31.0247C3.15908 28.5539 2.30857 25.8404 2.18631 23.0493H6.15803C6.28592 25.2068 6.95975 27.3301 8.13388 29.2071ZM6.26184 20.5078C6.21119 20.8614 6.17679 21.2161 6.15647 21.5711H2.18944C2.21383 21.0608 2.26167 20.5493 2.33484 20.0367C2.62564 17.9986 3.29916 16.0362 4.31444 14.2353L7.76085 16.072C6.9954 17.4589 6.48228 18.9615 6.26184 20.5078ZM18.7376 24.4624C17.4528 23.2764 17.4528 21.3463 18.7376 20.1603C20.0228 18.9739 22.1134 18.9742 23.3985 20.1603C23.668 20.4091 23.885 20.6951 24.0448 21.006L21.7613 20.2085C21.1956 20.011 20.5756 20.048 20.0153 20.3132C19.4093 20.5999 18.9418 21.1341 18.7655 21.742C18.5891 22.3496 18.7045 23.0276 19.0741 23.5558C19.4158 24.0439 19.9324 24.3626 20.5293 24.4526L22.9379 24.8157C21.6547 25.6329 19.8789 25.5157 18.7376 24.4624ZM24.6761 23.5804C24.6739 23.5801 24.6718 23.5798 24.6696 23.5792L20.7876 22.9938C20.6022 22.9658 20.4849 22.8478 20.4189 22.754C20.2926 22.5733 20.2516 22.332 20.312 22.1242C20.3723 21.9163 20.5384 21.7264 20.7457 21.6283C20.8173 21.5945 20.9145 21.5619 21.0234 21.5619C21.0781 21.5619 21.1359 21.5703 21.1947 21.5908L24.8634 22.8717C24.8709 22.8746 24.8788 22.8772 24.8866 22.8798L28.5775 24.1686L24.6761 23.5804ZM21.8673 8.55345V4.87761C24.6796 4.98498 27.3815 5.6578 29.8201 6.83661L27.8283 10.0215C25.9913 9.15815 23.9698 8.65534 21.8673 8.55345ZM12.3142 6.83748C14.7656 5.65174 17.4659 4.98383 20.2663 4.87674V8.55345C18.1639 8.65534 16.1424 9.15815 14.3053 10.0215L12.3142 6.83748ZM29.2135 10.7627L31.2059 7.57726C32.3597 8.25672 33.4419 9.05712 34.4328 9.97182C35.4234 10.8862 36.2895 11.8846 37.025 12.9517L33.5717 14.7924C33.0082 13.9937 32.3547 13.2467 31.6199 12.5684C30.8782 11.8838 30.0715 11.2808 29.2135 10.7627ZM34.3728 16.072L37.8261 14.2316C38.837 16.0223 39.5052 17.9764 39.7991 20.0367C39.872 20.5491 39.9198 21.0608 39.9445 21.5711H35.9775C35.9572 21.2161 35.9224 20.8614 35.8721 20.5078C35.6517 18.9615 35.1385 17.4589 34.3728 16.072ZM37.4283 31.0258C37.1654 31.4487 36.7395 31.7515 36.2298 31.8785C35.7201 32.0055 35.187 31.942 34.7292 31.6989C33.784 31.1976 33.4566 30.0797 33.9991 29.2086C34.5035 28.4021 34.9153 27.5503 35.2314 26.67L36.207 26.8172C36.2508 26.8238 36.2939 26.827 36.3368 26.827C36.6932 26.827 37.0143 26.6065 37.1094 26.2791C37.216 25.9123 37.004 25.531 36.6194 25.3965L35.6926 25.0732C35.8402 24.4062 35.9353 23.7296 35.9759 23.0493H39.9473C39.8251 25.8407 38.9746 28.5542 37.4283 31.0258Z" fill="black"/>
<path d="M25.8702 29.577H16.2633C15.8212 29.577 15.4629 29.9078 15.4629 30.3159V32.6807C15.4629 33.0889 15.8212 33.4196 16.2633 33.4196H25.8702C26.3124 33.4196 26.671 33.0889 26.671 32.6807V30.3159C26.671 29.9078 26.3124 29.577 25.8702 29.577ZM25.0698 31.9418H17.0641V31.0548H25.0698V31.9418Z" fill="black"/>
<path d="M9.23394 21.5708C8.79181 21.5708 8.43347 21.9016 8.43347 22.3097C8.43347 22.7179 8.79181 23.0486 9.23394 23.0486H9.25302C9.69515 23.0486 10.0535 22.7179 10.0535 22.3097C10.0535 21.9016 9.69515 21.5708 9.25302 21.5708H9.23394Z" fill="black"/>
<path d="M15.8543 12.4962L15.8449 12.4809C15.6235 12.1276 15.1339 12.0063 14.7511 12.2107C14.3684 12.4148 14.2371 12.8668 14.4585 13.2204L14.4678 13.2354C14.6161 13.4723 14.8853 13.6048 15.1617 13.6048C15.2977 13.6048 15.4353 13.5728 15.5613 13.5058C15.9443 13.3015 16.0754 12.8497 15.8543 12.4962Z" fill="black"/>
<path d="M26.9743 13.6069C27.2511 13.6069 27.52 13.4745 27.6682 13.2375L27.6776 13.2222C27.8989 12.8689 27.7676 12.4169 27.3849 12.2125C27.0022 12.0085 26.5125 12.1294 26.2911 12.483L26.2817 12.4983C26.0607 12.8516 26.1917 13.3036 26.5747 13.5077C26.7007 13.5749 26.8383 13.6069 26.9743 13.6069Z" fill="black"/>
<path d="M32.8997 23.0519C33.3419 23.0519 33.7002 22.7211 33.7002 22.313C33.7002 21.9048 33.3419 21.5738 32.8997 21.5738H32.881C32.4388 21.5738 32.0802 21.9048 32.0802 22.313C32.0802 22.7211 32.4388 23.0519 32.881 23.0519H32.8997Z" fill="black"/>
<path d="M18.2835 34.1594H18.2648C17.8226 34.1594 17.4643 34.4902 17.4643 34.8983C17.4643 35.3064 17.8226 35.6372 18.2648 35.6372H18.2835C18.7257 35.6372 19.0843 35.3064 19.0843 34.8983C19.0843 34.4902 18.7257 34.1594 18.2835 34.1594Z" fill="black"/>
<path d="M23.869 34.1594H20.5837C20.1419 34.1594 19.7832 34.4905 19.7832 34.8986C19.7832 35.3067 20.1419 35.6375 20.5837 35.6375H23.869C24.3109 35.6375 24.6695 35.3067 24.6695 34.8986C24.6695 34.4905 24.3112 34.1594 23.869 34.1594Z" fill="black"/>
</g>
<defs>
<clipPath id="clip0_562_949">
<rect width="40.9842" height="37.8327" fill="white" transform="translate(0.574768 0.574753)"/>
</clipPath>
</defs>
</svg>
