<svg width="160" height="61" viewBox="0 0 160 61" fill="none" xmlns="http://www.w3.org/2000/svg">
<path d="M5.73518 45.2789C4.79937 45.2789 4.07746 45.0249 3.56944 44.5169C3.08817 43.9822 2.84753 43.2335 2.84753 42.271V19.4105C2.84753 18.3945 3.08817 17.6191 3.56944 17.0843C4.07746 16.5496 4.74589 16.2822 5.57475 16.2822C6.29666 16.2822 6.84478 16.4293 7.2191 16.7234C7.62016 16.9907 8.0747 17.4453 8.58271 18.087L22.66 36.0144H21.5771V19.25C21.5771 18.3142 21.8177 17.5923 22.299 17.0843C22.807 16.5496 23.5289 16.2822 24.4647 16.2822C25.4005 16.2822 26.1091 16.5496 26.5904 17.0843C27.0984 17.5923 27.3524 18.3142 27.3524 19.25V42.3913C27.3524 43.2736 27.1251 43.9822 26.6706 44.5169C26.216 45.0249 25.6011 45.2789 24.8257 45.2789C24.077 45.2789 23.4755 45.1319 23.0209 44.8378C22.5931 44.5436 22.1252 44.0757 21.6172 43.434L7.58006 25.5066H8.62282V42.271C8.62282 43.2335 8.38218 43.9822 7.90091 44.5169C7.41963 45.0249 6.69772 45.2789 5.73518 45.2789ZM36.2932 44.918C35.2505 44.918 34.4483 44.6372 33.8869 44.0757C33.3254 43.5143 33.0446 42.7121 33.0446 41.6694V19.8917C33.0446 18.849 33.3254 18.0469 33.8869 17.4854C34.4483 16.9239 35.2505 16.6432 36.2932 16.6432H50.2903C51.0924 16.6432 51.694 16.8571 52.095 17.2849C52.5228 17.6859 52.7367 18.2741 52.7367 19.0495C52.7367 19.8516 52.5228 20.4666 52.095 20.8944C51.694 21.2955 51.0924 21.496 50.2903 21.496H38.9803V28.1135H49.3678C50.1967 28.1135 50.8116 28.3274 51.2127 28.7552C51.6405 29.1563 51.8544 29.7579 51.8544 30.56C51.8544 31.3621 51.6405 31.9771 51.2127 32.4049C50.8116 32.8059 50.1967 33.0064 49.3678 33.0064H38.9803V40.0651H50.2903C51.0924 40.0651 51.694 40.279 52.095 40.7068C52.5228 41.1079 52.7367 41.6961 52.7367 42.4715C52.7367 43.2736 52.5228 43.8886 52.095 44.3164C51.694 44.7174 51.0924 44.918 50.2903 44.918H36.2932ZM71.4168 45.2789C70.481 45.2789 69.7591 45.0249 69.2511 44.5169C68.7698 43.9822 68.5291 43.2335 68.5291 42.271V19.4105C68.5291 18.3945 68.7698 17.6191 69.2511 17.0843C69.7591 16.5496 70.4275 16.2822 71.2564 16.2822C71.9783 16.2822 72.5264 16.4293 72.9007 16.7234C73.3018 16.9907 73.7563 17.4453 74.2643 18.087L88.3416 36.0144H87.2587V19.25C87.2587 18.3142 87.4993 17.5923 87.9806 17.0843C88.4886 16.5496 89.2105 16.2822 90.1463 16.2822C91.0822 16.2822 91.7907 16.5496 92.272 17.0843C92.78 17.5923 93.034 18.3142 93.034 19.25V42.3913C93.034 43.2736 92.8067 43.9822 92.3522 44.5169C91.8976 45.0249 91.2827 45.2789 90.5073 45.2789C89.7587 45.2789 89.1571 45.1319 88.7025 44.8378C88.2747 44.5436 87.8068 44.0757 87.2988 43.434L73.2617 25.5066H74.3044V42.271C74.3044 43.2335 74.0638 43.9822 73.5825 44.5169C73.1012 45.0249 72.3793 45.2789 71.4168 45.2789Z" fill="#41198E"/>
<path d="M5.73518 45.2789C4.79937 45.2789 4.07746 45.0249 3.56944 44.5169C3.08817 43.9822 2.84753 43.2335 2.84753 42.271V19.4105C2.84753 18.3945 3.08817 17.6191 3.56944 17.0843C4.07746 16.5496 4.74589 16.2822 5.57475 16.2822C6.29666 16.2822 6.84478 16.4293 7.2191 16.7234C7.62016 16.9907 8.0747 17.4453 8.58271 18.087L22.66 36.0144H21.5771V19.25C21.5771 18.3142 21.8177 17.5923 22.299 17.0843C22.807 16.5496 23.5289 16.2822 24.4647 16.2822C25.4005 16.2822 26.1091 16.5496 26.5904 17.0843C27.0984 17.5923 27.3524 18.3142 27.3524 19.25V42.3913C27.3524 43.2736 27.1251 43.9822 26.6706 44.5169C26.216 45.0249 25.6011 45.2789 24.8257 45.2789C24.077 45.2789 23.4755 45.1319 23.0209 44.8378C22.5931 44.5436 22.1252 44.0757 21.6172 43.434L7.58006 25.5066H8.62282V42.271C8.62282 43.2335 8.38218 43.9822 7.90091 44.5169C7.41963 45.0249 6.69772 45.2789 5.73518 45.2789ZM36.2932 44.918C35.2505 44.918 34.4483 44.6372 33.8869 44.0757C33.3254 43.5143 33.0446 42.7121 33.0446 41.6694V19.8917C33.0446 18.849 33.3254 18.0469 33.8869 17.4854C34.4483 16.9239 35.2505 16.6432 36.2932 16.6432H50.2903C51.0924 16.6432 51.694 16.8571 52.095 17.2849C52.5228 17.6859 52.7367 18.2741 52.7367 19.0495C52.7367 19.8516 52.5228 20.4666 52.095 20.8944C51.694 21.2955 51.0924 21.496 50.2903 21.496H38.9803V28.1135H49.3678C50.1967 28.1135 50.8116 28.3274 51.2127 28.7552C51.6405 29.1563 51.8544 29.7579 51.8544 30.56C51.8544 31.3621 51.6405 31.9771 51.2127 32.4049C50.8116 32.8059 50.1967 33.0064 49.3678 33.0064H38.9803V40.0651H50.2903C51.0924 40.0651 51.694 40.279 52.095 40.7068C52.5228 41.1079 52.7367 41.6961 52.7367 42.4715C52.7367 43.2736 52.5228 43.8886 52.095 44.3164C51.694 44.7174 51.0924 44.918 50.2903 44.918H36.2932Z" fill="white"/>
<path d="M113.105 44.918C112.062 44.918 111.26 44.6372 110.699 44.0757C110.137 43.5143 109.856 42.7121 109.856 41.6694V19.8917C109.856 18.849 110.137 18.0469 110.699 17.4854C111.26 16.9239 112.062 16.6432 113.105 16.6432H127.102C127.904 16.6432 128.506 16.8571 128.907 17.2849C129.335 17.6859 129.548 18.2741 129.548 19.0495C129.548 19.8516 129.335 20.4666 128.907 20.8944C128.506 21.2955 127.904 21.496 127.102 21.496H115.792V28.1135H126.18C127.008 28.1135 127.623 28.3274 128.024 28.7552C128.452 29.1563 128.666 29.7579 128.666 30.56C128.666 31.3621 128.452 31.9771 128.024 32.4049C127.623 32.8059 127.008 33.0064 126.18 33.0064H115.792V40.0651H127.102C127.904 40.0651 128.506 40.279 128.907 40.7068C129.335 41.1079 129.548 41.6961 129.548 42.4715C129.548 43.2736 129.335 43.8886 128.907 44.3164C128.506 44.7174 127.904 44.918 127.102 44.918H113.105ZM137.027 45.2789C136.091 45.2789 135.369 45.0249 134.861 44.5169C134.38 43.9822 134.139 43.2335 134.139 42.271V19.4105C134.139 18.3945 134.38 17.6191 134.861 17.0843C135.369 16.5496 136.038 16.2822 136.867 16.2822C137.588 16.2822 138.137 16.4293 138.511 16.7234C138.912 16.9907 139.366 17.4453 139.875 18.087L153.952 36.0144H152.869V19.25C152.869 18.3142 153.11 17.5923 153.591 17.0843C154.099 16.5496 154.821 16.2822 155.757 16.2822C156.692 16.2822 157.401 16.5496 157.882 17.0843C158.39 17.5923 158.644 18.3142 158.644 19.25V42.3913C158.644 43.2736 158.417 43.9822 157.962 44.5169C157.508 45.0249 156.893 45.2789 156.117 45.2789C155.369 45.2789 154.767 45.1319 154.313 44.8378C153.885 44.5436 153.417 44.0757 152.909 43.434L138.872 25.5066H139.915V42.271C139.915 43.2335 139.674 43.9822 139.193 44.5169C138.711 45.0249 137.99 45.2789 137.027 45.2789Z" fill="white"/>
<path d="M99.2793 60.0221H98.9786C96.2813 60.0221 93.7697 58.6513 92.3016 56.3874L91.5145 55.1758C91.4703 55.105 91.4261 55.0431 91.3819 54.9724L86.7566 47.809L84.3246 44.0416L79.6728 36.8428C78.4878 35.0122 77.7803 32.9781 77.5415 30.891C77.5061 30.5638 77.4796 30.2277 77.4619 29.9005C77.3469 27.159 78.0456 24.3997 79.5578 21.9766L83.2987 15.9894L85.6511 12.222L90.9574 3.73204C92.4077 1.41499 94.9547 0 97.6963 0C102.366 0 105.656 3.82932 105.656 7.96816C105.656 9.43622 105.24 10.9396 104.329 12.3281L96.1928 24.6385C95.2908 26.0004 94.8574 27.5746 94.884 29.14C94.884 29.4672 94.9105 29.8032 94.9636 30.1304C95.1316 31.3067 95.5649 32.4563 96.2547 33.4822L105.859 47.6233C109.441 52.9029 105.664 60.031 99.2881 60.031L99.2793 60.0221Z" fill="url(#paint0_linear_138_9775)"/>
<path opacity="0.25" d="M88.0743 38.0545L84.3334 44.0417L79.6816 36.8429C78.4965 35.0123 77.7891 32.9782 77.5503 30.8911C77.5149 30.5639 77.4884 30.2278 77.4707 29.9006C77.3557 27.1591 78.0544 24.3998 79.5666 21.9767L83.3075 15.9895L87.9593 23.1883C89.1443 25.0189 89.8518 27.053 90.0906 29.1401C90.126 29.4673 90.1525 29.8033 90.1702 30.1306C90.2852 32.8721 89.5865 35.6402 88.0743 38.0545Z" fill="#0C003F"/>
<path d="M82.9626 38.0544L71.5542 56.2901C70.1039 58.6072 67.5569 60.0222 64.8242 60.0222C60.1547 60.0222 56.8649 56.1928 56.8649 52.054C56.8649 50.5859 57.2805 49.0825 58.2003 47.6941L65.8943 36.0558L66.3365 35.3836C68.1052 32.6952 68.0875 29.2019 66.2746 26.54L62.5248 21.0215L56.6703 12.3989C53.0886 7.11922 56.8649 -0.00878906 63.2412 -0.00878906H63.5419C64.6208 -0.00878906 65.6643 0.212303 66.6283 0.619113C68.0787 1.22933 69.3345 2.26404 70.21 3.62597L70.9971 4.83755C71.0413 4.9083 71.0855 4.97021 71.1297 5.04096L74.4992 10.2587L82.8388 23.1794C85.7572 27.6896 85.8014 33.4823 82.9449 38.0456L82.9626 38.0544Z" fill="url(#paint1_linear_138_9775)"/>
<path opacity="0.2" d="M74.9502 15.2643C74.9502 23.4712 71.4658 30.8734 65.8943 36.0558L66.3365 35.3836C68.1052 32.6952 68.0875 29.2019 66.2746 26.54L62.5248 21.0215L56.6703 12.3989C53.0886 7.11922 56.8649 -0.00878906 63.2412 -0.00878906H63.5419C64.6208 -0.00878906 65.6643 0.212303 66.6283 0.619113C68.0787 1.22933 69.3345 2.26404 70.21 3.62597L70.9971 4.83755C71.0413 4.9083 71.0855 4.97021 71.1297 5.04096L74.4992 10.2587C74.791 11.8771 74.9325 13.5486 74.9325 15.2554L74.9502 15.2643Z" fill="white"/>
<path opacity="0.2" d="M67.5926 7.02189C67.5926 12.3458 65.7001 17.2275 62.5429 21.0303L56.6884 12.4077C53.1067 7.12801 56.8829 0 63.2592 0H63.5599C64.6389 0 65.6824 0.221092 66.6464 0.627902C67.2654 2.65311 67.5926 4.79328 67.5926 7.02189Z" fill="white"/>
<path d="M157.188 48.4902H112.35C110.797 48.4902 109.538 49.7493 109.538 51.3025V57.2101C109.538 58.7633 110.797 60.0224 112.35 60.0224H157.188C158.741 60.0224 160 58.7633 160 57.2101V51.3025C160 49.7493 158.741 48.4902 157.188 48.4902Z" fill="url(#paint2_linear_138_9775)"/>
<path d="M118.175 57.7561C117.932 57.7561 117.743 57.689 117.609 57.5548C117.481 57.4206 117.417 57.2352 117.417 56.9988V51.7357C117.417 51.4865 117.481 51.298 117.609 51.1701C117.737 51.0423 117.922 50.9784 118.165 50.9784C118.401 50.9784 118.584 51.0423 118.711 51.1701C118.839 51.298 118.903 51.4865 118.903 51.7357V56.5003H121.472C121.677 56.5003 121.833 56.5546 121.942 56.6632C122.057 56.7719 122.115 56.9253 122.115 57.1234C122.115 57.3279 122.057 57.4845 121.942 57.5931C121.833 57.7018 121.677 57.7561 121.472 57.7561H118.175ZM126.242 57.8424C126.063 57.8424 125.916 57.8008 125.801 57.7178C125.692 57.6347 125.622 57.5228 125.59 57.3822C125.565 57.2416 125.593 57.085 125.676 56.9125L128.131 51.5344C128.233 51.3171 128.354 51.1606 128.495 51.0647C128.636 50.9624 128.799 50.9113 128.984 50.9113C129.169 50.9113 129.332 50.9624 129.473 51.0647C129.613 51.1606 129.732 51.3171 129.827 51.5344L132.301 56.9125C132.384 57.085 132.413 57.2448 132.387 57.3918C132.368 57.5324 132.304 57.6443 132.195 57.7273C132.087 57.804 131.946 57.8424 131.774 57.8424C131.556 57.8424 131.387 57.7913 131.265 57.689C131.15 57.5867 131.048 57.427 130.959 57.2097L130.383 55.8771L130.978 56.2894H126.98L127.575 55.8771L127.009 57.2097C126.913 57.4334 126.811 57.5963 126.702 57.6986C126.6 57.7944 126.447 57.8424 126.242 57.8424ZM128.965 52.5794L127.738 55.5033L127.479 55.1294H130.479L130.221 55.5033L128.984 52.5794H128.965ZM137.304 57.7561C137.055 57.7561 136.863 57.689 136.729 57.5548C136.595 57.4206 136.528 57.2288 136.528 56.9796V51.7741C136.528 51.5248 136.595 51.3331 136.729 51.1989C136.863 51.0647 137.055 50.9976 137.304 50.9976H139.624C140.104 50.9976 140.513 51.0679 140.851 51.2085C141.19 51.3491 141.446 51.5504 141.618 51.8124C141.797 52.0745 141.887 52.3876 141.887 52.7519C141.887 53.1546 141.772 53.4965 141.542 53.7777C141.311 54.0589 140.995 54.2474 140.592 54.3433V54.1899C141.059 54.273 141.42 54.4583 141.676 54.7459C141.938 55.0271 142.069 55.3946 142.069 55.8484C142.069 56.4491 141.861 56.9189 141.446 57.2576C141.03 57.5899 140.458 57.7561 139.73 57.7561H137.304ZM137.947 56.6536H139.528C139.912 56.6536 140.193 56.5802 140.372 56.4332C140.551 56.2798 140.64 56.0561 140.64 55.7621C140.64 55.4681 140.551 55.2476 140.372 55.1006C140.193 54.9536 139.912 54.8801 139.528 54.8801H137.947V56.6536ZM137.947 53.7777H139.365C139.736 53.7777 140.011 53.7074 140.19 53.5668C140.369 53.4262 140.458 53.2153 140.458 52.9341C140.458 52.6593 140.369 52.4515 140.19 52.3109C140.011 52.1703 139.736 52.1 139.365 52.1H137.947V53.7777ZM146.894 57.7561C146.702 57.7561 146.546 57.7178 146.424 57.6411C146.303 57.558 146.22 57.4493 146.175 57.3151C146.137 57.1745 146.137 57.0211 146.175 56.855C146.22 56.6888 146.309 56.5226 146.443 56.3565L149.933 51.7837V52.2342H146.779C146.568 52.2342 146.405 52.1799 146.29 52.0713C146.181 51.9626 146.127 51.8092 146.127 51.6111C146.127 51.413 146.181 51.2628 146.29 51.1606C146.405 51.0519 146.568 50.9976 146.779 50.9976H150.633C150.831 50.9976 150.987 51.0391 151.102 51.1222C151.224 51.1989 151.307 51.3044 151.352 51.4386C151.396 51.5728 151.396 51.7262 151.352 51.8987C151.307 52.0649 151.217 52.2311 151.083 52.3972L147.594 56.9604V56.5194H150.901C151.112 56.5194 151.272 56.5738 151.38 56.6824C151.495 56.7847 151.553 56.9349 151.553 57.133C151.553 57.3375 151.495 57.4941 151.38 57.6027C151.272 57.705 151.112 57.7561 150.901 57.7561H146.894Z" fill="white"/>
<defs>
<linearGradient id="paint0_linear_138_9775" x1="95.6445" y1="7.47292" x2="89.2859" y2="71.3067" gradientUnits="userSpaceOnUse">
<stop stop-color="#A100FF"/>
<stop offset="1" stop-color="#530DFF"/>
</linearGradient>
<linearGradient id="paint1_linear_138_9775" x1="55.3614" y1="62.6664" x2="82.2728" y2="-15.0873" gradientUnits="userSpaceOnUse">
<stop stop-color="#008CFF"/>
<stop offset="1" stop-color="#2BD3EF"/>
</linearGradient>
<linearGradient id="paint2_linear_138_9775" x1="109.538" y1="54.2563" x2="160" y2="54.2563" gradientUnits="userSpaceOnUse">
<stop stop-color="#1594F9"/>
<stop offset="1" stop-color="#A100FF"/>
</linearGradient>
</defs>
</svg>
