<svg width="42" height="39" viewBox="0 0 42 39" fill="none" xmlns="http://www.w3.org/2000/svg">
<g clip-path="url(#clip0_562_845)">
<path d="M36.8114 19.602H28.3689C26.0784 19.602 24.2216 17.8879 24.2216 15.7735V14.9394C24.2216 14.6964 24.0768 14.4732 23.8447 14.3585L21.9314 13.4128C21.5684 13.2333 21.5684 12.7528 21.9314 12.5733L23.8447 11.6276C24.0767 11.5129 24.2216 11.2897 24.2216 11.0467V4.95736C24.2216 2.84294 26.0785 1.12894 28.3689 1.12894H36.8114C39.1019 1.12894 40.9587 2.84302 40.9587 4.95736V15.7735C40.9587 17.8879 39.1018 19.602 36.8114 19.602Z" fill="#ECF4FF"/>
<path d="M36.8113 1.12894H34.4099C36.7005 1.12894 38.5572 2.84302 38.5572 4.95736V15.7735C38.5572 17.888 36.7004 19.602 34.4099 19.602H36.8113C39.1019 19.602 40.9587 17.8879 40.9587 15.7735V4.95736C40.9587 2.84302 39.1018 1.12894 36.8113 1.12894Z" fill="#DDEAFB"/>
<path d="M7.06735 29.3594H13.7033C16.3496 29.3594 18.1155 30.801 18.1155 30.801L20.4907 32.1078C20.5939 32.1646 20.7272 32.135 20.7915 32.0414C21.4337 31.1079 21.9505 30.2853 21.9505 30.2853L24.8395 31.3848C24.8395 31.3848 23.2313 36.142 22.025 36.2861C20.9782 36.4111 17.913 34.9683 17.1204 34.5844C17.0343 34.5427 16.9316 34.6006 16.9316 34.6904V37.1286C16.9316 37.5288 16.5801 37.8533 16.1466 37.8533H3.44016C3.00663 37.8533 2.65514 37.5288 2.65514 37.1286V32.882C2.65514 32.882 2.57061 29.3594 7.06735 29.3594Z" fill="#6BBEF6"/>
<path d="M4.88188 19.7638C4.88188 21.1011 3.99584 22.1854 2.90287 22.1854C1.8099 22.1854 1.17505 20.9403 1.17505 19.6029C1.17505 18.2655 1.80998 17.3423 2.90295 17.3423C3.99592 17.3423 4.88188 18.4264 4.88188 19.7638Z" fill="#FFCBBE"/>
<path d="M15.8883 19.7638C15.8883 21.1012 16.7744 22.1854 17.8673 22.1854C18.9603 22.1854 19.5952 20.9404 19.5952 19.6029C19.5952 18.2655 18.9603 17.3423 17.8673 17.3423C16.7743 17.3423 15.8883 18.4265 15.8883 19.7638Z" fill="#FFCBBE"/>
<path d="M8.39868 25.0718H12.3718V29.3596H8.39868V25.0718Z" fill="#FFCBBE"/>
<path d="M3.99805 21.1063V17.0619C3.99805 13.8056 6.85766 11.1659 10.3852 11.1659C13.9127 11.1659 16.7723 13.8056 16.7723 17.0619V21.084C16.7723 24.3464 13.9073 26.9912 10.3731 26.9912C6.85229 26.9912 3.99805 24.3564 3.99805 21.1063Z" fill="#FFDDCE"/>
<path d="M10.3853 11.1659C9.97462 11.1659 9.57358 11.2031 9.18455 11.2714C12.1378 11.7902 14.3711 14.1847 14.3711 17.0619V21.084C14.3711 23.9671 12.1331 26.3663 9.17358 26.8856C9.56229 26.954 9.96301 26.9912 10.3733 26.9912C13.9074 26.9912 16.7725 24.3464 16.7725 21.084V17.0619C16.7725 13.8056 13.9128 11.1659 10.3853 11.1659Z" fill="#FFCBBE"/>
<path d="M23.2252 30.7706C22.7743 31.8236 21.4179 34.8416 20.251 35.9138C20.9737 36.1639 21.6376 36.3324 22.025 36.2862C23.2313 36.1421 24.8394 31.3849 24.8394 31.3849L23.2252 30.7706Z" fill="#5EA5EC"/>
<path d="M15.2993 34.399C14.8714 34.409 14.5301 34.7315 14.5301 35.1267V37.1286C14.5301 37.5288 14.1787 37.8533 13.7451 37.8533H16.1465C16.5801 37.8533 16.9316 37.5288 16.9316 37.1286V34.6904C16.3252 34.4422 15.7401 34.3887 15.2993 34.399Z" fill="#5EA5EC"/>
<path d="M10.3852 29.3595L8.51452 28.0953C8.44616 28.0491 8.35274 28.0512 8.28686 28.1003L6.75828 29.241C6.66006 29.3143 6.64846 29.4487 6.73291 29.5354L8.3758 31.2224C8.45953 31.3083 8.60617 31.3062 8.68694 31.2178L10.3852 29.3595Z" fill="#ECF4FF"/>
<path d="M10.3851 29.3595L12.2558 28.0953C12.3242 28.0491 12.4176 28.0512 12.4835 28.1003L14.0121 29.241C14.1103 29.3143 14.1219 29.4487 14.0375 29.5354L12.3946 31.2224C12.3108 31.3083 12.1642 31.3062 12.0834 31.2178L10.3851 29.3595Z" fill="#DDEAFB"/>
<path d="M26.3207 27.7856V29.905C26.3207 30.8587 25.4832 31.6319 24.45 31.6319H23.0972C22.0636 31.6319 21.2257 30.8584 21.2257 29.9043V27.3166V24.4444C21.2257 23.8621 21.7371 23.39 22.368 23.39C22.9988 23.39 23.5103 23.8621 23.5103 24.4444V26.0579H24.4492C25.4828 26.058 26.3207 26.8315 26.3207 27.7856Z" fill="#FFDDCE"/>
<path d="M10.3853 35.5062C11.0484 35.5062 11.586 35.01 11.586 34.3978C11.586 33.7857 11.0484 33.2894 10.3853 33.2894C9.72215 33.2894 9.18457 33.7857 9.18457 34.3978C9.18457 35.01 9.72215 35.5062 10.3853 35.5062Z" fill="#FFE07D"/>
<path d="M36.5551 7.18015C35.4764 6.18438 33.746 6.15667 32.6316 7.09798C32.5796 7.14187 32.4994 7.14283 32.4475 7.09894C31.3214 6.14692 29.5643 6.18482 28.4884 7.21259C27.4064 8.24619 27.4555 9.90181 28.5565 10.9181L32.0288 14.1235C32.3106 14.3836 32.7674 14.3836 33.0491 14.1235L36.5551 10.8871C37.6643 9.86324 37.6638 8.20355 36.5551 7.18015Z" fill="#DD4FB1"/>
<path d="M36.5552 7.18033C35.6873 6.37912 34.3977 6.20518 33.3463 6.65792C33.6385 6.78376 33.9125 6.9577 34.1538 7.18033C35.2625 8.20374 35.2629 9.86343 34.1538 10.8873L31.3384 13.4862L32.0289 14.1237C32.3107 14.3838 32.7675 14.3838 33.0492 14.1237L36.5552 10.8873C37.6644 9.86343 37.6639 8.20374 36.5552 7.18033Z" fill="#DA2EA2"/>
<path d="M14.5845 9.45067C14.4731 9.39074 14.4012 9.28286 14.396 9.16397C14.3627 8.41744 13.8909 7.47443 11.8881 7.10186C8.8594 6.53844 4.97334 6.60649 3.9292 6.63723C3.80209 6.641 3.721 6.76358 3.77519 6.86977L4.77418 8.82451C4.83206 8.93779 4.77218 9.07249 4.64475 9.1155L1.67651 10.1183C1.56589 10.1557 1.52514 10.2806 1.59503 10.3681L2.92733 12.0371C2.98753 12.1125 2.98729 12.2153 2.92685 12.2904L1.58342 13.9622C1.51706 14.0447 1.549 14.1626 1.64962 14.2066L3.10144 14.842C3.2753 14.9181 3.38913 15.0786 3.38993 15.2562C3.39641 16.6545 3.99805 18.507 3.99805 18.507C3.99805 18.507 5.1123 14.1097 7.1423 14.8132C9.17311 15.5166 10.385 15.4161 10.385 15.4161C10.385 15.4161 11.5977 15.5166 13.6285 14.8132C15.6593 14.1097 16.7728 18.507 16.7728 18.507C16.7728 18.507 19.1066 11.884 14.5845 9.45067Z" fill="#FFE07D"/>
<path d="M14.5844 9.45067C14.4731 9.39074 14.4012 9.28286 14.3959 9.16397C14.3626 8.41744 13.8908 7.47442 11.888 7.10186C9.06516 6.57678 5.49874 6.60013 4.1814 6.63073C5.77586 6.66605 7.76888 6.78235 9.48661 7.10186C11.4894 7.47442 11.9612 8.41744 11.9945 9.16397C11.9998 9.28286 12.0717 9.39074 12.183 9.45067C14.5201 10.7082 15.0259 13.0848 14.9691 15.088C16.1437 16.0235 16.7728 18.5071 16.7728 18.5071C16.7728 18.5071 19.1065 11.884 14.5844 9.45067Z" fill="#FFD064"/>
<path d="M40.9586 12.845C41.2902 12.845 41.559 12.5969 41.559 12.2908V4.95744C41.559 2.5408 39.4292 0.574753 36.8112 0.574753H28.3687C25.7508 0.574753 23.6209 2.5408 23.6209 4.95744V11.0467C23.6209 11.0854 23.598 11.1209 23.561 11.1391L21.6477 12.0848C21.2842 12.2645 21.0585 12.6125 21.0585 12.9931C21.0585 13.3737 21.2843 13.7217 21.6477 13.9013L23.5611 14.8472C23.598 14.8654 23.6209 14.9008 23.6209 14.9394V15.7735C23.6209 18.1901 25.7508 20.1562 28.3687 20.1562H36.8112C39.4292 20.1562 41.559 18.1901 41.559 15.7735V14.8935C41.559 14.5874 41.2902 14.3393 40.9586 14.3393C40.6271 14.3393 40.3583 14.5874 40.3583 14.8935V15.7735C40.3583 17.5789 38.7671 19.0478 36.8112 19.0478H28.3687C26.4128 19.0478 24.8217 17.5789 24.8217 15.7735V14.9394C24.8217 14.4912 24.5557 14.0814 24.1279 13.8699L22.3538 12.993L24.1279 12.1161C24.5558 11.9046 24.8217 11.4947 24.8217 11.0467V4.95744C24.8217 3.15196 26.4128 1.68313 28.3687 1.68313H36.8112C38.7671 1.68313 40.3583 3.15196 40.3583 4.95744V12.2908C40.3583 12.5968 40.6271 12.845 40.9586 12.845Z" fill="black"/>
<path d="M9.83586 22.2975C10.041 22.3469 10.2129 22.3716 10.3847 22.3716C10.5565 22.3716 10.7285 22.3469 10.9336 22.2975C11.2545 22.2203 11.4467 21.9176 11.363 21.6214C11.2793 21.3252 10.9512 21.1479 10.6306 21.2251C10.4169 21.2764 10.3526 21.2764 10.139 21.2251C9.81809 21.1476 9.49021 21.3253 9.40656 21.6214C9.32283 21.9175 9.51511 22.2202 9.83586 22.2975Z" fill="black"/>
<path d="M7.21838 17.9395C7.79 17.8017 8.0528 17.8017 8.62433 17.9395C8.941 18.0158 9.27432 17.8354 9.35693 17.5433C9.44074 17.2472 9.24854 16.9444 8.92779 16.8671C8.15662 16.6812 7.68642 16.6812 6.91508 16.8671C6.59425 16.9444 6.40214 17.2472 6.48595 17.5433C6.5696 17.8394 6.89755 18.0169 7.21838 17.9395Z" fill="black"/>
<path d="M12.1452 17.9395C12.7167 17.8017 12.9795 17.8017 13.5512 17.9395C13.8676 18.0158 14.2011 17.8355 14.2837 17.5433C14.3675 17.2472 14.1753 16.9444 13.8546 16.8671C13.0833 16.6812 12.613 16.6812 11.8418 16.8671C11.521 16.9444 11.3289 17.2472 11.4127 17.5433C11.4964 17.8394 11.8245 18.0169 12.1452 17.9395Z" fill="black"/>
<path d="M11.9248 24.2357C12.2146 24.0868 12.3187 23.7494 12.1575 23.4819C11.9962 23.2145 11.6307 23.1184 11.341 23.2672C10.7511 23.5703 10.0183 23.5703 9.42831 23.2672C9.1387 23.1184 8.77297 23.2146 8.61175 23.4819C8.45054 23.7494 8.55468 24.0869 8.84445 24.2357C9.31945 24.4797 9.852 24.6017 10.3846 24.6017C10.9173 24.6017 11.4498 24.4797 11.9248 24.2357Z" fill="black"/>
<path d="M7.60353 18.9842C7.27197 18.9842 7.00317 19.2323 7.00317 19.5384V19.9052C7.00317 20.2113 7.27197 20.4594 7.60353 20.4594C7.93508 20.4594 8.20388 20.2113 8.20388 19.9052V19.5384C8.20388 19.2323 7.93508 18.9842 7.60353 18.9842Z" fill="black"/>
<path d="M13.1659 18.9842C12.8344 18.9842 12.5656 19.2323 12.5656 19.5384V19.9052C12.5656 20.2113 12.8344 20.4594 13.1659 20.4594C13.4975 20.4594 13.7663 20.2113 13.7663 19.9052V19.5384C13.7663 19.2323 13.4975 18.9842 13.1659 18.9842Z" fill="black"/>
<path d="M24.4491 25.5039H24.1105V24.4446C24.1105 23.5576 23.3288 22.8359 22.3679 22.8359C21.407 22.8359 20.6252 23.5576 20.6252 24.4446V29.9044C20.6252 30.2542 20.7112 30.5857 20.8643 30.8823C20.7351 31.078 20.6066 31.271 20.4804 31.4571L18.4656 30.3486C18.1781 30.1279 16.6611 29.0411 14.4228 28.8379C14.4116 28.8286 14.401 28.8189 14.3892 28.8101L12.9718 27.7524V27.0833C15.043 26.316 16.6275 24.6602 17.1696 22.6297C17.3945 22.7016 17.6284 22.7403 17.8671 22.7403C19.2159 22.7403 20.1948 21.421 20.1948 19.6032C20.1948 17.893 19.2812 16.7879 17.8671 16.7879C17.8457 16.7879 17.8244 16.7891 17.8029 16.7897C17.8961 16.2303 17.968 15.5825 17.9744 14.8962C17.9997 12.1675 16.9676 10.1411 14.9876 9.02764C14.915 8.25066 14.4069 7.00529 12.0062 6.55868C11.2071 6.41008 10.2879 6.29289 9.27405 6.21043C8.9445 6.1825 8.6524 6.4089 8.62327 6.71378C8.59413 7.01866 8.83836 7.28763 9.16855 7.31445C10.1384 7.39337 11.0133 7.50465 11.769 7.64526C13.079 7.88896 13.7609 8.40761 13.7957 9.18695C13.8095 9.49567 13.9912 9.77328 14.2817 9.92956C16.8985 11.3377 16.9431 14.4133 16.6418 16.4281C16.2436 15.6064 15.6757 14.7594 14.9251 14.3887C14.4449 14.1518 13.9235 14.1192 13.4172 14.2944C11.5663 14.9355 10.1964 14.9191 10.3853 14.9191C10.5741 14.9191 9.20361 14.9355 7.35276 14.2944C6.84686 14.1192 6.32567 14.1516 5.84555 14.3886C5.08454 14.7642 4.51108 15.6297 4.11196 16.4621C4.04168 16.056 3.99149 15.6346 3.98973 15.2539C3.98797 14.8667 3.73998 14.5084 3.35807 14.3413L2.37245 13.91L3.4085 12.6207C3.62751 12.3482 3.62815 11.9816 3.41011 11.7084L2.41312 10.4594L4.85048 9.63599C5.06917 9.5621 5.24535 9.40574 5.3338 9.20683C5.42226 9.00791 5.41601 8.78239 5.31667 8.58805L4.59561 7.17716C5.07949 7.17006 5.72259 7.16755 6.45823 7.18233C6.78954 7.18573 7.06427 6.94625 7.07147 6.64033C7.07867 6.33427 6.8158 6.0809 6.48432 6.07425C5.31203 6.0509 4.36803 6.06996 3.90944 6.08341C3.64697 6.09109 3.4085 6.21922 3.27154 6.42597C3.13458 6.63272 3.11961 6.88698 3.23168 7.1063L4.05817 8.72342L1.46968 9.59794C1.24114 9.67515 1.06288 9.84969 0.992756 10.0647C0.922635 10.2798 0.966981 10.5161 1.11123 10.6969L2.28144 12.163L1.10074 13.6321C0.961698 13.8052 0.91439 14.0244 0.970983 14.2334C1.02758 14.4424 1.18103 14.6152 1.39187 14.7076L2.78966 15.3193C2.79702 15.7948 2.8649 16.3093 2.95352 16.7893C2.93647 16.789 2.91958 16.7879 2.90245 16.7879C1.48849 16.7879 0.574829 17.8929 0.574829 19.6031C0.574829 21.421 1.55373 22.7402 2.90253 22.7402C3.13963 22.7402 3.37184 22.702 3.59534 22.6311C4.13293 24.6667 5.72115 26.3264 7.79782 27.0906V27.7525L6.38034 28.8102C6.36994 28.818 6.36057 28.8267 6.35056 28.8349C4.13926 29.0241 3.08455 30.085 2.58738 30.9567C2.05947 31.8822 2.05298 32.7803 2.0541 32.8854V37.1288C2.0541 37.8339 2.67559 38.4076 3.43948 38.4076H16.1461C16.91 38.4076 17.5315 37.8339 17.5315 37.1288V35.4022C19.0382 36.0988 21.1272 36.9524 22.1016 36.8358C22.4595 36.793 23.5401 36.6634 25.2265 32.0702C26.2096 31.7689 26.9209 30.9126 26.9209 29.9053V27.7857C26.921 26.5275 25.8121 25.5039 24.4491 25.5039ZM12.3533 28.7162L13.3231 29.4398L12.2503 30.5414L11.2584 29.4561L12.3533 28.7162ZM17.8671 17.8962C18.698 17.8962 18.9941 18.778 18.9941 19.6031C18.9941 20.6004 18.5726 21.6319 17.8671 21.6319C17.6907 21.6319 17.5202 21.5856 17.358 21.4947C17.3672 21.3588 17.3725 21.222 17.3725 21.084V18.5921C17.4101 18.477 17.4797 18.2534 17.5587 17.9465C17.6597 17.9138 17.7628 17.8962 17.8671 17.8962ZM2.90253 21.6319C2.19707 21.6319 1.77554 20.6004 1.77554 19.6031C1.77554 18.778 2.07155 17.8962 2.90253 17.8962C3.00819 17.8962 3.11265 17.914 3.21495 17.9476C3.29356 18.2455 3.36176 18.4722 3.39722 18.5863V21.1063C3.39722 21.237 3.40194 21.3666 3.41035 21.4954C3.24849 21.5857 3.07839 21.6319 2.90253 21.6319ZM4.59793 21.1062V18.5729C4.87625 17.5192 5.5962 15.7679 6.41204 15.3657C6.58798 15.2791 6.74792 15.2686 6.93091 15.332C8.8526 15.9977 10.1125 15.9841 10.3846 15.9713C10.657 15.9838 11.9174 15.9975 13.8391 15.332C14.0222 15.2688 14.1823 15.2791 14.3584 15.3658C15.1741 15.768 15.8936 17.5183 16.1717 18.5718V21.0839C16.1717 24.0356 13.5703 26.4369 10.3728 26.4369C7.1885 26.437 4.59793 24.0456 4.59793 21.1062ZM10.3728 27.5454C10.8515 27.5454 11.3191 27.5007 11.771 27.4158V27.7359L10.3848 28.6727L8.99853 27.7359V27.4196C9.44303 27.5019 9.9025 27.5454 10.3728 27.5454ZM8.41635 28.7161L9.51123 29.4561L8.51937 30.5415L7.44649 29.4398L8.41635 28.7161ZM21.9355 35.7378C21.3734 35.7908 19.5153 35.1187 17.399 34.0936C17.171 33.9832 16.9034 33.9907 16.6831 34.1136C16.4625 34.2367 16.3309 34.4524 16.3309 34.6904V37.1287C16.3309 37.2226 16.248 37.2992 16.1462 37.2992H6.0788V36.6003C6.0788 36.2942 5.81 36.0461 5.47845 36.0461C5.14689 36.0461 4.87809 36.2942 4.87809 36.6003V37.2991H3.43956C3.33774 37.2991 3.25489 37.2226 3.25489 37.1286V32.8819C3.25489 32.8778 3.25489 32.8738 3.25473 32.8697C3.25209 32.7611 3.22968 30.286 6.33007 29.9512L7.92894 31.593C8.08215 31.7503 8.30012 31.8398 8.52881 31.8398C8.53305 31.8398 8.5373 31.8398 8.54154 31.8397C8.7748 31.8363 8.99493 31.74 9.14542 31.5754L10.3848 30.2191L11.6242 31.5754C11.7746 31.74 11.9946 31.8363 12.2279 31.8397C12.2322 31.8398 12.2364 31.8398 12.2407 31.8398C12.4694 31.8398 12.6873 31.7503 12.8406 31.5929L14.4359 29.9549C16.4028 30.1739 17.705 31.2063 17.7174 31.2162C17.7454 31.2391 17.7756 31.2594 17.8077 31.2771L20.183 32.584C20.3162 32.6572 20.4617 32.6922 20.6053 32.6922C20.8768 32.6922 21.1407 32.567 21.2979 32.3385C21.4234 32.156 21.5516 31.9668 21.6811 31.7732C22.0825 32.0331 22.5706 32.1863 23.0969 32.1863H23.9113C22.9907 34.57 22.2268 35.6273 21.9355 35.7378ZM25.7203 29.9052C25.7203 30.5518 25.1504 31.0778 24.4499 31.0778H23.0971C22.3962 31.0778 21.826 30.5514 21.826 29.9044V24.4446C21.826 24.1687 22.0691 23.9442 22.3679 23.9442C22.6667 23.9442 22.9098 24.1686 22.9098 24.4446V26.0581C22.9098 26.3642 23.1786 26.6123 23.5101 26.6123H24.4491C25.15 26.6123 25.7203 27.1387 25.7203 27.7857V29.9052Z" fill="black"/>
<path d="M10.3848 32.7354C9.39166 32.7354 8.58374 33.4813 8.58374 34.398C8.58374 35.3147 9.39166 36.0605 10.3848 36.0605C11.378 36.0605 12.1859 35.3147 12.1859 34.398C12.1859 33.4813 11.378 32.7354 10.3848 32.7354ZM10.3848 34.9522C10.0537 34.9522 9.78445 34.7036 9.78445 34.398C9.78445 34.0923 10.0537 33.8438 10.3848 33.8438C10.7159 33.8438 10.9852 34.0923 10.9852 34.398C10.9852 34.7036 10.7159 34.9522 10.3848 34.9522Z" fill="black"/>
<path d="M32.5391 6.45374C31.1657 5.53519 29.2667 5.67115 28.0564 6.82727C26.7609 8.06481 26.7947 10.0757 28.1317 11.3099L31.6041 14.5153C31.8618 14.7532 32.2002 14.872 32.5387 14.872C32.8773 14.872 33.2158 14.7532 33.4735 14.5153L36.9794 11.2789C38.3206 10.0408 38.3207 8.02624 36.9794 6.78825C35.771 5.67263 33.8908 5.5527 32.5391 6.45374ZM36.1305 10.4951L32.6246 13.7315C32.5773 13.7751 32.5005 13.7751 32.4532 13.7315L28.9807 10.5261C28.104 9.71682 28.0767 8.40309 28.92 7.59752C29.3625 7.17478 29.9461 6.96153 30.5312 6.96153C31.07 6.96153 31.61 7.14242 32.0416 7.50744C32.3248 7.74686 32.7524 7.74678 33.0367 7.50678C33.922 6.75899 35.281 6.78781 36.1305 7.57203C37.0035 8.37789 37.0035 9.68933 36.1305 10.4951Z" fill="black"/>
</g>
<defs>
<clipPath id="clip0_562_845">
<rect width="40.9842" height="37.8327" fill="white" transform="translate(0.574829 0.574753)"/>
</clipPath>
</defs>
</svg>
