<svg width="42" height="39" viewBox="0 0 42 39" fill="none" xmlns="http://www.w3.org/2000/svg">
<g clip-path="url(#clip0_562_886)">
<path d="M39.5765 8.65315L39.4718 6.74006L37.4083 6.49901C37.2504 6.03642 37.0235 5.60323 36.7394 5.20841L37.8408 3.5891L36.2907 2.30519L34.6438 3.47263C34.1866 3.25347 33.6933 3.09024 33.1753 2.99291L32.7055 1.13575L30.6179 1.2333L30.3534 3.12471C29.8485 3.26978 29.3757 3.47807 28.9447 3.7387L27.1787 2.73048L25.7767 4.15208L27.0493 5.66057C26.8098 6.07976 26.6314 6.53193 26.5248 7.00681L24.4981 7.43872L24.6028 9.35181L26.6664 9.59286C26.8243 10.0555 27.0512 10.4886 27.3352 10.8835L26.2338 12.5028L27.7839 13.7867L29.4308 12.6192C29.8881 12.8384 30.3813 13.0016 30.8994 13.099L31.3691 14.9561L33.4566 14.8587L33.7211 12.9673C34.2259 12.8222 34.6988 12.614 35.1298 12.3533L36.8958 13.3615L38.2978 11.9399L37.0251 10.4314C37.2647 10.0123 37.4431 9.56009 37.5497 9.08521L39.5765 8.65315ZM32.1827 10.7027C30.5816 10.7773 29.2186 9.64841 29.1383 8.18117C29.058 6.71393 30.2908 5.4639 31.8918 5.38921C33.4928 5.31452 34.8559 6.44346 34.9362 7.9107C35.0164 9.37794 33.7838 10.628 32.1827 10.7027Z" fill="#7974E3"/>
<path d="M15.2986 21.9512L28.3834 27.2469L34.2094 14.9807L31.8044 9.28116L23.0075 5.72077L15.2986 21.9512Z" fill="#F0F0FF"/>
<path d="M30.9826 14.9807L25.6769 26.1515L28.3835 27.247L34.2095 14.9807L32.6971 11.3966L30.9826 14.9807Z" fill="#E8E8FF"/>
<path d="M31.8043 9.28125L29.9149 13.2298L34.2094 14.9808L31.8043 9.28125Z" fill="#CFCFFF"/>
<path d="M27.7108 20.6371H38.0525V30.1532H27.7108V20.6371Z" fill="#96E1FF"/>
<path d="M40.5954 27.6576L38.0524 30.1536V20.6375L40.5954 18.1415V27.6576Z" fill="#FDF486"/>
<path d="M38.0525 20.6375H27.7108L30.2539 18.1415H40.5955L38.0525 20.6375Z" fill="#FD6DC3"/>
<path d="M31.4939 36.7676L32.6889 35.6634L31.7187 34.3806C31.9352 34.0397 32.0947 33.6763 32.1979 33.3021L33.8599 33.0314L33.853 31.4649L32.1885 31.1844C32.0821 30.8095 31.9193 30.4452 31.6998 30.1031L32.6587 28.8259L31.4539 27.7148L30.0712 28.6011C29.7003 28.3988 29.3055 28.2489 28.8993 28.1509L28.594 26.6147L26.8971 26.6098L26.6053 28.1442C26.2 28.2397 25.8065 28.3873 25.4373 28.5875L24.0468 27.693L22.8518 28.7972L23.822 30.08C23.6054 30.4209 23.446 30.7843 23.3428 31.1585L21.6808 31.4293L21.6877 32.9957L23.3521 33.2762C23.4586 33.6511 23.6213 34.0154 23.8408 34.3576L22.882 35.6347L24.0868 36.7458L25.4695 35.8595C25.8404 36.0618 26.2352 36.2117 26.6414 36.3097L26.9468 37.8459L28.6437 37.8509L28.9355 36.3164C29.3408 36.2209 29.7343 36.0733 30.1034 35.8731L31.4939 36.7676ZM26.2688 33.6176C25.4301 32.8441 25.4247 31.5941 26.2565 30.8255C27.0883 30.057 28.4424 30.061 29.2811 30.8344C30.1196 31.6078 30.1252 32.8579 29.2934 33.6264C28.4616 34.395 27.1075 34.391 26.2688 33.6176Z" fill="#7974E3"/>
<path d="M19.3856 4.87768C19.2867 4.87768 19.1877 4.87842 19.0884 4.88066C12.4956 5.02468 7.14813 10.054 7.08577 16.1641C7.04091 20.5589 9.68161 24.385 13.5792 26.3226V28.2376C13.5792 29.0195 14.2633 29.6533 15.1072 29.6533H19.3856V4.87768Z" fill="#FDF486"/>
<path d="M19.3856 29.653H15.1072V32.7761C15.1072 34.1789 16.3392 35.3161 17.8589 35.3161H19.3856V29.653Z" fill="#CFCFFF"/>
<path d="M32.1979 33.3013L33.8599 33.0305L33.853 31.4641L32.1886 31.1836C32.0821 30.8087 31.9194 30.4444 31.6999 30.1022L32.6587 28.8251L31.4539 27.714L30.0712 28.6002C29.7146 28.4057 29.3359 28.2602 28.9462 28.1622C30.2704 29.159 31.1164 30.6764 31.1164 32.3767C31.1164 33.8489 30.4814 35.1835 29.4518 36.1624C29.6753 36.0825 29.8933 35.9862 30.1033 35.8724L31.4938 36.7668L32.6888 35.6627L31.7187 34.3799C31.9353 34.0389 32.0947 33.6756 32.1979 33.3013Z" fill="#6B64E8"/>
<path d="M41.198 18.1125C41.1824 17.8212 40.9128 17.5818 40.5953 17.5818H33.6338L34.7634 15.2037C34.8269 15.0701 34.8304 14.9126 34.7731 14.7767L34.1947 13.4063C34.5167 13.2972 34.8288 13.164 35.1275 13.0071L36.5775 13.8348C36.8456 13.9728 37.1008 13.9398 37.3432 13.7358L38.7452 12.3142C38.9435 12.1132 38.9561 11.8096 38.7752 11.5951L37.734 10.361C37.8616 10.098 37.9672 9.82697 38.0499 9.55002L39.7125 9.1957C39.9982 9.13486 40.1955 8.89358 40.1806 8.62327L40.0759 6.71026C40.0611 6.43994 39.8385 6.21839 39.5477 6.18436L37.8548 5.98658C37.7423 5.71879 37.6077 5.45897 37.452 5.2092L38.353 3.88457C38.5096 3.65431 38.4639 3.35339 38.2447 3.17191L36.6946 1.888C36.4777 1.70839 36.153 1.69699 35.922 1.86075L34.5699 2.81923C34.281 2.70134 33.9833 2.60394 33.6791 2.52798L33.2944 1.00734C33.2278 0.744249 32.966 0.561356 32.6747 0.576547L30.5871 0.673877C30.2948 0.687504 30.0551 0.892291 30.0176 1.16015L29.801 2.70886C29.5066 2.81282 29.221 2.93733 28.9466 3.08158L27.4966 2.25379C27.2489 2.11245 26.9271 2.15393 26.7309 2.35283L25.329 3.77443C25.1307 3.97542 25.118 4.27902 25.299 4.49357L26.3401 5.72758C26.2409 5.93207 26.1563 6.14177 26.0841 6.35497L23.2502 5.20801C22.8986 5.10063 22.6329 5.1964 22.4532 5.49524L20.0477 10.5597V1.88368C20.0477 1.16157 18.8377 1.16157 18.8377 1.88368V4.33003C14.6908 4.49185 10.8662 6.51441 8.57024 9.77439C8.15801 10.3596 9.13695 11.019 9.58476 10.3832C11.6575 7.44019 15.1013 5.60902 18.8377 5.44787V29.0939H15.107C14.5981 29.0939 14.1841 28.7094 14.1841 28.2367V26.3217C14.1841 26.1163 14.0619 25.9274 13.8659 25.8299C10.0155 23.9158 7.64929 20.2138 7.6906 16.1684C7.70141 15.1112 7.87929 14.0655 8.21932 13.0604C8.45246 12.3712 7.2974 12.0381 7.06426 12.7275C6.6889 13.837 6.49255 14.9912 6.48069 16.1579C6.43632 20.5067 8.91519 24.4959 12.9741 26.65V28.2367C12.9741 29.1307 13.6198 29.8875 14.5021 30.1296V32.7754C14.5021 34.4839 16.0079 35.874 17.8587 35.874H18.8378V37.8498C18.8378 38.5719 20.0478 38.5719 20.0478 37.8498V24.482L26.2127 26.9771L26.074 27.7066C25.8705 27.7704 25.6718 27.8458 25.4791 27.9325L24.3927 27.2338C24.1522 27.0791 23.8261 27.1057 23.6188 27.2973L22.4238 28.4014C22.2166 28.5928 22.1879 28.8939 22.3557 29.1158L23.1137 30.118C23.02 30.2961 22.9384 30.4795 22.8695 30.6675L21.5757 30.8783C21.2856 30.9255 21.0747 31.1587 21.0758 31.4305L21.0828 32.997C21.084 33.2659 21.2926 33.4958 21.5791 33.5441L22.8807 33.7635C22.9517 33.9539 23.0357 34.1399 23.132 34.3202L22.3847 35.3156C22.218 35.5376 22.2473 35.838 22.4544 36.0288L23.6591 37.14C23.8661 37.3308 24.1914 37.3577 24.4319 37.2036L25.5095 36.5129C25.705 36.6017 25.9065 36.6789 26.1128 36.7444L26.3516 37.9457C26.4042 38.2102 26.6535 38.4026 26.9448 38.4034L28.6417 38.4083H28.6437C28.9373 38.4083 29.1888 38.2136 29.2396 37.9464L29.4668 36.7519C29.6704 36.6881 29.869 36.6127 30.0617 36.526L31.148 37.2247C31.3886 37.3795 31.7147 37.3529 31.9219 37.1612L33.1169 36.0571C33.3241 35.8657 33.3528 35.5646 33.185 35.3427L32.427 34.3405C32.5207 34.1625 32.6023 33.979 32.6713 33.791L33.965 33.5803C34.255 33.533 34.466 33.2998 34.4649 33.028L34.458 31.4616C34.4568 31.1927 34.2482 30.9627 33.9617 30.9144L32.7382 30.7083C34.4698 30.7011 36.2285 30.7009 37.9384 30.7009C38.1386 30.7356 38.3235 30.6803 38.4931 30.535L41.0361 28.0389C41.1416 27.9353 41.2004 27.7985 41.2004 27.6563V18.1404C41.2003 18.131 41.1985 18.1219 41.198 18.1125ZM39.1956 18.6989L37.817 20.052H29.1365L30.5152 18.6989H39.1956ZM32.3679 9.07715C32.3108 8.94191 32.1912 8.82664 32.047 8.7684L29.7506 7.83897C29.8603 6.82106 30.7724 5.99909 31.9221 5.94547C33.1891 5.88865 34.2684 6.78011 34.3318 7.93734C34.3837 8.88606 33.7305 9.73917 32.7722 10.0353L32.3679 9.07715ZM31.7689 10.7356L32.4225 12.2841L33.1137 13.9223L30.7126 12.9432L31.7689 10.7356ZM27.5264 5.31569L26.5669 4.17849L27.2875 3.44781L28.6262 4.21208C28.8261 4.32609 29.0794 4.32311 29.276 4.20426C29.6663 3.96819 30.0892 3.78389 30.533 3.6564C30.7588 3.59153 30.9229 3.4111 30.9532 3.19462L31.153 1.76595L32.231 1.71568L32.5857 3.11844C32.6396 3.33105 32.8226 3.49525 33.0544 3.53881C33.5096 3.62423 33.9505 3.76832 34.3647 3.96693C34.5732 4.06686 34.8257 4.04624 35.012 3.9142L36.2604 3.02923L37.0571 3.68909L36.2268 4.90992C36.1003 5.09586 36.1036 5.33304 36.2352 5.51594C36.492 5.87301 36.6925 6.25972 36.831 6.66543C36.902 6.87349 37.0977 7.02429 37.3321 7.05169L38.8929 7.23406L38.9465 8.2128L37.4135 8.53949C37.1833 8.58849 37.0051 8.75686 36.9572 8.97036C36.8637 9.38694 36.7065 9.79033 36.4899 10.1694C36.379 10.3636 36.4016 10.5998 36.5477 10.7731L37.5072 11.9104L36.7865 12.641L35.4478 11.8768C35.248 11.7628 34.9947 11.7657 34.7981 11.8845C34.471 12.0824 34.1209 12.2432 33.7552 12.3653L33.2114 11.0765C34.646 10.6081 35.6187 9.31641 35.5401 7.88097C35.443 6.10855 33.7927 4.73968 31.8609 4.82994C30.2406 4.90552 28.9296 5.98412 28.6063 7.37593L27.1995 6.80654C27.2932 6.5004 27.422 6.2032 27.584 5.91948C27.6951 5.72519 27.6725 5.48898 27.5264 5.31569ZM17.8586 34.757C16.675 34.757 15.712 33.8681 15.712 32.7755V30.211H18.8376V34.757H17.8586ZM20.0477 13.3416L23.3185 6.45535L31.0055 9.56655L29.3612 13.0027C29.2439 13.327 29.3469 13.5725 29.6702 13.7393L33.4128 15.2654L32.3125 17.5819H30.2535C30.0866 17.5819 29.9271 17.6455 29.8128 17.7577L27.2698 20.2538C27.1451 20.3762 27.0796 20.7026 27.0951 20.8785V26.0509L26.9363 26.0504L20.0477 23.2624V13.3416ZM33.2527 32.5621L32.0927 32.7511C31.8584 32.7893 31.6701 32.9506 31.6115 33.1633C31.5208 33.4924 31.3812 33.8066 31.1967 34.0971C31.0772 34.2853 31.0873 34.5205 31.2226 34.6993L31.9026 35.5986L31.4239 36.0408L30.4491 35.4138C30.2552 35.2891 30.0004 35.2801 29.7967 35.3905C29.4822 35.5611 29.142 35.6902 28.7856 35.7742C28.5551 35.8285 28.3805 36.0025 28.3394 36.2188L28.1357 37.2899L27.4509 37.2879L27.2363 36.2079C27.1938 35.9946 27.0214 35.8232 26.7941 35.7684C26.4362 35.682 26.094 35.5506 25.7771 35.3778C25.5736 35.2667 25.3186 35.2754 25.1242 35.3999L24.1566 36.02L23.667 35.5685L24.3379 34.6748C24.4726 34.4954 24.4818 34.26 24.3612 34.0721C24.1737 33.7795 24.031 33.4638 23.9371 33.1335C23.8775 32.9237 23.6917 32.7648 23.4605 32.7257L22.2905 32.5285L22.2877 31.8965L23.4476 31.7075C23.6819 31.6693 23.8702 31.508 23.9288 31.2953C24.0195 30.9662 24.1591 30.652 24.3436 30.3615C24.4631 30.1733 24.453 29.9381 24.3178 29.7593L23.6377 28.86L24.1164 28.4178L25.0911 29.0448C25.2849 29.1696 25.5398 29.1786 25.7435 29.0681C26.0582 28.8975 26.3984 28.7684 26.7547 28.6844C26.9852 28.6301 27.1598 28.4561 27.2009 28.2398L27.4046 27.1687L28.0893 27.1707L28.304 28.2507C28.3464 28.464 28.5188 28.6354 28.7461 28.6902C29.1041 28.7766 29.4463 28.908 29.7631 29.0808C29.9668 29.1919 30.2218 29.1833 30.416 29.0587L31.3835 28.4386L31.8732 28.8901L31.2022 29.7838C31.0675 29.9632 31.0584 30.1986 31.1788 30.3865C31.3664 30.6791 31.5091 30.9948 31.6029 31.3251C31.6625 31.5348 31.8483 31.6938 32.0795 31.7329L33.2497 31.93L33.2527 32.5621ZM38.659 28.7418C38.6588 28.1918 38.6573 26.8332 38.6573 26.8332C38.6573 26.111 37.4472 26.111 37.4472 26.8332V29.5839C35.9197 29.584 34.3602 29.5851 32.8195 29.5912L33.1559 29.143C33.3226 28.921 33.2933 28.6206 33.0863 28.4298L31.8815 27.3186C31.6745 27.1278 31.3491 27.1009 31.1087 27.255L30.0312 27.9457C29.8357 27.8569 29.6342 27.7796 29.4279 27.7142L29.1891 26.5129C29.1129 26.1294 28.6742 26.0054 28.3136 26.0543C28.3036 25.434 28.3765 22.1904 28.3136 21.195H37.4473V23.9171C37.4473 24.6393 38.6574 24.6393 38.6574 23.9171C38.6574 23.9171 38.6592 21.8172 38.6592 20.8561L39.9903 19.5496V27.4352L38.659 28.7418Z" fill="#060606"/>
<path d="M27.7679 29.6919C27.7649 29.6919 27.7619 29.6919 27.7589 29.6919C27.0286 29.6919 26.3432 29.9537 25.8282 30.4295C25.3111 30.9073 25.028 31.5434 25.031 32.2207C25.034 32.8965 25.3216 33.5324 25.841 34.0114C26.3604 34.4904 27.0494 34.7553 27.7815 34.7575H27.7905C28.5208 34.7575 29.2063 34.4957 29.7213 34.0199C30.2384 33.5421 30.5215 32.906 30.5186 32.2287C30.5156 31.553 30.2279 30.917 29.7086 30.438C29.1891 29.9591 28.4999 29.6941 27.7679 29.6919ZM28.8651 33.2304C28.5776 33.496 28.1938 33.6446 27.7852 33.6405C27.3748 33.6393 26.988 33.4903 26.6962 33.2212C26.4043 32.952 26.2427 32.5951 26.241 32.2162C26.2393 31.8388 26.3967 31.4847 26.6842 31.219C26.9717 30.9534 27.357 30.8064 27.764 30.8089C28.1745 30.8102 28.5613 30.959 28.8532 31.2282C29.145 31.4974 29.3067 31.8543 29.3083 32.2332C29.31 32.6106 29.1526 32.9647 28.8651 33.2304Z" fill="#060606"/>
<path d="M8.7787 7.00408C9.2866 7.00408 9.56573 6.38227 9.20658 6.05066L7.14349 4.14592C6.59041 3.63522 5.73465 4.4251 6.28781 4.93565L8.35082 6.84047C8.469 6.94957 8.62389 7.00408 8.7787 7.00408Z" fill="#060606"/>
<path d="M4.4381 15.8037H1.52054C0.738271 15.8037 0.738271 16.9208 1.52054 16.9208H4.43818C5.22045 16.9208 5.22045 15.8037 4.4381 15.8037Z" fill="#060606"/>
<path d="M8.53551 25.8126L6.4725 27.7174C5.91934 28.228 6.7751 29.0179 7.32818 28.5071L9.39119 26.6024C9.94435 26.0917 9.08859 25.3019 8.53551 25.8126Z" fill="#060606"/>
</g>
<defs>
<clipPath id="clip0_562_886">
<rect width="40.9842" height="37.8327" fill="white" transform="translate(0.574829 0.574753)"/>
</clipPath>
</defs>
</svg>
