<svg width="42" height="39" viewBox="0 0 42 39" fill="none" xmlns="http://www.w3.org/2000/svg">
<g clip-path="url(#clip0_562_923)">
<path d="M27.4707 27.1765H14.6631C9.58726 27.1765 5.4577 30.9885 5.4577 35.6741V37.2997C5.4577 37.9119 5.9953 38.4081 6.65841 38.4081H35.4754C36.1386 38.4081 36.6762 37.9119 36.6762 37.2997V35.6741C36.6762 30.9885 32.5466 27.1765 27.4707 27.1765Z" fill="#323232"/>
<path d="M27.4707 27.1765H21.067V38.4081H35.4755C36.1386 38.4081 36.6762 37.9119 36.6762 37.2997V35.6741C36.6762 30.9885 32.5466 27.1765 27.4707 27.1765Z" fill="#2359EB"/>
<path d="M24.2689 24.9597H17.8651C17.202 24.9597 16.6644 25.456 16.6644 26.0681V28.2848C16.6644 30.5258 18.6394 32.3489 21.067 32.3489C23.4946 32.3489 25.4696 30.5258 25.4696 28.2848V26.0681C25.4696 25.456 24.932 24.9597 24.2689 24.9597Z" fill="#FFF5F5"/>
<path d="M24.2688 24.9597H21.067V32.3489C23.4946 32.3489 25.4696 30.5258 25.4696 28.2848V26.0681C25.4696 25.456 24.932 24.9597 24.2688 24.9597Z" fill="#D7D4EB"/>
<path d="M21.0668 5.0098C21.7299 5.0098 22.2675 4.51354 22.2675 3.90142V1.68466C22.2675 1.07253 21.7299 0.576275 21.0668 0.576275C20.4037 0.576275 19.8661 1.07253 19.8661 1.68466V3.90142C19.8661 4.51354 20.4037 5.0098 21.0668 5.0098Z" fill="url(#paint0_linear_562_923)"/>
<path d="M12.0223 4.21837L13.223 6.13816C13.5546 6.66827 14.2889 6.84989 14.8632 6.54383C15.4375 6.23777 15.6342 5.55988 15.3027 5.02978L14.102 3.10999C13.7704 2.57989 13.036 2.39826 12.4618 2.70433C11.8875 3.01039 11.6908 3.68827 12.0223 4.21837Z" fill="url(#paint1_linear_562_923)"/>
<path d="M6.60186 10.0341L8.68157 11.1424C9.25583 11.4485 9.99019 11.2669 10.3217 10.7368C10.6533 10.2067 10.4565 9.52879 9.88228 9.22273L7.80257 8.11435C7.22831 7.80829 6.49396 7.98992 6.1624 8.52002C5.83085 9.05012 6.0276 9.72801 6.60186 10.0341Z" fill="url(#paint2_linear_562_923)"/>
<path d="M34.3311 8.11405L32.2514 9.22243C31.6771 9.52849 31.4804 10.2064 31.8119 10.7365C32.1435 11.2666 32.8779 11.4482 33.4521 11.1421L35.5318 10.0338C36.1061 9.7277 36.3028 9.04982 35.9713 8.51971C35.6397 7.98961 34.9054 7.80799 34.3311 8.11405Z" fill="url(#paint3_linear_562_923)"/>
<path d="M27.2706 6.54353C27.8448 6.84959 28.5792 6.66796 28.9107 6.13786L30.1114 4.21807C30.443 3.68797 30.2462 3.01008 29.672 2.70402C29.0977 2.39796 28.3634 2.57959 28.0318 3.10969L26.8311 5.02948C26.4995 5.55958 26.6963 6.23747 27.2706 6.54353Z" fill="url(#paint4_linear_562_923)"/>
<path d="M25.4694 25.8243C25.4694 25.1921 25.8246 24.6068 26.4194 24.2587C29.3332 22.5536 31.0727 19.639 31.0727 16.4623C31.0727 11.3693 26.5841 7.22582 21.0668 7.22582C15.5496 7.22582 11.0609 11.3693 11.0609 16.4623C11.0609 19.639 12.8005 22.5536 15.7143 24.2587C16.3091 24.6068 16.6642 25.1921 16.6642 25.8243V26.0683H25.4694V25.8243Z" fill="url(#paint5_linear_562_923)"/>
<path d="M21.067 7.22613V26.0686H25.4696V25.8246C25.4696 25.1924 25.8247 24.6071 26.4195 24.259C29.3333 22.5539 31.0729 19.6393 31.0729 16.4626C31.0729 11.3696 26.5842 7.22613 21.067 7.22613Z" fill="url(#paint6_linear_562_923)"/>
<path d="M24.3174 15.6791C23.8485 15.2463 23.0883 15.2463 22.6194 15.6791L21.0669 17.1122L19.5146 15.6792C19.0457 15.2463 18.2854 15.2463 17.8165 15.6792C17.3476 16.112 17.3476 16.8138 17.8165 17.2467L19.8662 19.1387V26.0689H22.2676V19.1387L24.3174 17.2467C24.7863 16.8138 24.7863 16.112 24.3174 15.6791Z" fill="white"/>
<path d="M22.2677 3.90081V1.68405C22.2677 1.07193 21.7301 0.575666 21.067 0.575666V5.00919C21.7301 5.00919 22.2677 4.51293 22.2677 3.90081Z" fill="url(#paint7_linear_562_923)"/>
<path d="M22.2676 19.1384L24.3174 17.2463C24.7863 16.8134 24.7863 16.1117 24.3174 15.6788C23.8485 15.2459 23.0883 15.2459 22.6193 15.6788L21.0669 17.1118V26.0685H22.2676V19.1384Z" fill="white"/>
</g>
<defs>
<linearGradient id="paint0_linear_562_923" x1="21.0633" y1="0.576275" x2="21.204" y2="5.00555" gradientUnits="userSpaceOnUse">
<stop stop-color="#A101FF"/>
<stop offset="1" stop-color="#18B3F7"/>
</linearGradient>
<linearGradient id="paint1_linear_562_923" x1="13.6572" y1="2.55565" x2="13.739" y2="6.6911" gradientUnits="userSpaceOnUse">
<stop stop-color="#A101FF"/>
<stop offset="1" stop-color="#18B3F7"/>
</linearGradient>
<linearGradient id="paint2_linear_562_923" x1="8.23553" y1="7.96568" x2="8.27799" y2="11.2908" gradientUnits="userSpaceOnUse">
<stop stop-color="#A101FF"/>
<stop offset="1" stop-color="#18B3F7"/>
</linearGradient>
<linearGradient id="paint3_linear_562_923" x1="31.6509" y1="9.6281" x2="36.1323" y2="9.6281" gradientUnits="userSpaceOnUse">
<stop stop-color="#A101FF"/>
<stop offset="1" stop-color="#18B3F7"/>
</linearGradient>
<linearGradient id="paint4_linear_562_923" x1="26.67" y1="4.62377" x2="30.2725" y2="4.62377" gradientUnits="userSpaceOnUse">
<stop stop-color="#A101FF"/>
<stop offset="1" stop-color="#18B3F7"/>
</linearGradient>
<linearGradient id="paint5_linear_562_923" x1="21.0376" y1="7.22582" x2="21.3428" y2="26.0643" gradientUnits="userSpaceOnUse">
<stop stop-color="#A101FF"/>
<stop offset="1" stop-color="#18B3F7"/>
</linearGradient>
<linearGradient id="paint6_linear_562_923" x1="21.067" y1="16.6474" x2="31.0729" y2="16.6474" gradientUnits="userSpaceOnUse">
<stop stop-color="#A101FF"/>
<stop offset="1" stop-color="#18B3F7"/>
</linearGradient>
<linearGradient id="paint7_linear_562_923" x1="21.067" y1="2.79243" x2="22.2677" y2="2.79243" gradientUnits="userSpaceOnUse">
<stop stop-color="#A101FF"/>
<stop offset="1" stop-color="#18B3F7"/>
</linearGradient>
<clipPath id="clip0_562_923">
<rect width="40.9842" height="37.8327" fill="white" transform="translate(0.574768 0.574753)"/>
</clipPath>
</defs>
</svg>
