<svg width="52" height="61" viewBox="0 0 52 61" fill="none" xmlns="http://www.w3.org/2000/svg">
<path d="M43.9949 60.031H43.6942C40.9968 60.031 38.4852 58.6602 37.0172 56.3962L36.2301 55.1846C36.1859 55.1139 36.1417 55.052 36.0974 54.9812L31.4722 47.8178L29.0402 44.0504L24.3884 36.8517C23.2033 35.021 22.4958 32.987 22.2571 30.8999C22.2217 30.5727 22.1952 30.2366 22.1775 29.9094C22.0625 27.1678 22.7612 24.4086 24.2734 21.9854L28.0143 15.9983L30.3667 12.2308L35.6729 3.7409C37.1233 1.42386 39.6703 0.00886536 42.4118 0.00886536C47.0813 0.00886536 50.3711 3.83818 50.3711 7.97703C50.3711 9.44508 49.9555 10.9485 49.0446 12.337L40.9084 24.6474C40.0063 26.0093 39.573 27.5835 39.5995 29.1488C39.5995 29.476 39.6261 29.8121 39.6791 30.1393C39.8472 31.3155 40.2805 32.4652 40.9703 33.4911L50.5746 47.6321C54.1562 52.9118 50.38 60.0398 44.0037 60.0398L43.9949 60.031Z" fill="url(#paint0_linear_138_9642)"/>
<path opacity="0.25" d="M32.7898 38.0632L29.049 44.0504L24.3972 36.8517C23.2121 35.021 22.5046 32.987 22.2659 30.8999C22.2305 30.5726 22.2039 30.2366 22.1863 29.9094C22.0713 27.1678 22.7699 24.4086 24.2822 21.9854L28.0231 15.9982L32.6749 23.197C33.8599 25.0276 34.5674 27.0617 34.8062 29.1488C34.8416 29.476 34.8681 29.8121 34.8858 30.1393C35.0008 32.8808 34.3021 35.6489 32.7898 38.0632Z" fill="#0C003F"/>
<path d="M27.6782 38.0632L16.2698 56.2989C14.8194 58.616 12.2725 60.031 9.53977 60.031C4.8703 60.031 1.58045 56.2016 1.58045 52.0628C1.58045 50.5947 1.9961 49.0913 2.91584 47.7029L10.6099 36.0646L11.052 35.3924C12.8208 32.704 12.8031 29.2107 10.9901 26.5488L7.2404 21.0303L1.38589 12.4077C-2.19581 7.12801 1.58045 0 7.95675 0H8.25743C9.33636 0 10.3799 0.221092 11.3439 0.627902C12.7942 1.23812 14.05 2.27283 14.9256 3.63476L15.7127 4.84634C15.7569 4.91709 15.8011 4.979 15.8453 5.04975L19.2148 10.2675L27.5544 23.1881C30.4728 27.6984 30.517 33.491 27.6605 38.0544L27.6782 38.0632Z" fill="url(#paint1_linear_138_9642)"/>
<path opacity="0.2" d="M19.6658 15.2731C19.6658 23.48 16.1814 30.8822 10.6099 36.0646L11.052 35.3924C12.8208 32.704 12.8031 29.2107 10.9901 26.5488L7.2404 21.0303L1.38589 12.4077C-2.19581 7.12801 1.58045 0 7.95675 0H8.25743C9.33636 0 10.3799 0.221092 11.3439 0.627902C12.7942 1.23812 14.05 2.27283 14.9256 3.63476L15.7127 4.84634C15.7569 4.91709 15.8011 4.979 15.8453 5.04975L19.2148 10.2675C19.5066 11.8859 19.6481 13.5574 19.6481 15.2642L19.6658 15.2731Z" fill="white"/>
<path opacity="0.2" d="M12.3082 7.03098C12.3082 12.3549 10.4157 17.2366 7.25848 21.0394L1.40395 12.4168C-2.17774 7.13711 1.59851 0.00909424 7.97481 0.00909424H8.2755C9.35443 0.00909424 10.398 0.230186 11.3619 0.636996C11.981 2.6622 12.3082 4.80237 12.3082 7.03098Z" fill="white"/>
<defs>
<linearGradient id="paint0_linear_138_9642" x1="40.3601" y1="7.48178" x2="34.0015" y2="71.3155" gradientUnits="userSpaceOnUse">
<stop stop-color="#A100FF"/>
<stop offset="1" stop-color="#530DFF"/>
</linearGradient>
<linearGradient id="paint1_linear_138_9642" x1="0.0770187" y1="62.6752" x2="26.9884" y2="-15.0785" gradientUnits="userSpaceOnUse">
<stop stop-color="#008CFF"/>
<stop offset="1" stop-color="#2BD3EF"/>
</linearGradient>
</defs>
</svg>
