<svg width="24" height="24" viewBox="0 0 24 24" fill="none" xmlns="http://www.w3.org/2000/svg">
<path d="M12 0C5.3838 0 0 5.3838 0 12C0 18.6162 5.3838 24 12 24C18.6162 24 24 18.6162 24 12C24 5.3838 18.6162 0 12 0ZM17.2776 12.8862L14.0784 16.6536C13.8084 16.9722 13.422 17.1366 13.035 17.1366C12.7224 17.1366 12.4068 17.0292 12.1488 16.8108C11.5728 16.323 11.502 15.4584 11.991 14.8818L13.2762 13.3692H7.7646C7.0086 13.3692 6.396 12.7566 6.396 12.0006C6.396 11.2446 7.0086 10.632 7.7646 10.632H13.2762L11.991 9.1194C11.502 8.5428 11.5728 7.6794 12.1488 7.1892C12.7248 6.7002 13.5888 6.771 14.0784 7.3476L17.2776 11.115C17.712 11.625 17.712 12.375 17.2776 12.8862Z" fill="white"/>
</svg>
