<svg width="24" height="25" viewBox="0 0 24 25" fill="none" xmlns="http://www.w3.org/2000/svg">
<g clip-path="url(#clip0_536_1149)">
<path d="M15.9546 7.73352C20.3368 7.66658 23.9136 11.1157 23.9984 15.4976C24.0109 16.141 23.9466 16.7672 23.8141 17.3678C23.5898 18.3849 23.4564 19.4198 23.4564 20.4613V22.4745C23.4564 22.7829 23.2064 23.033 22.8979 23.033H20.8848C19.8433 23.033 18.8083 23.1663 17.7913 23.3907C17.1906 23.5231 16.5644 23.5875 15.9211 23.575C11.5392 23.4902 8.09012 19.9135 8.15696 15.5314C8.22216 11.2541 11.6773 7.79886 15.9546 7.73352Z" fill="url(#paint0_linear_536_1149)"/>
<path d="M15.9546 7.73352C20.3368 7.66658 23.9136 11.1157 23.9984 15.4976C24.0109 16.141 23.9466 16.7672 23.8141 17.3678C23.5898 18.3849 23.4564 19.4198 23.4564 20.4613V22.4745C23.4564 22.7829 23.2064 23.033 22.8979 23.033H20.8848C19.8433 23.033 18.8083 23.1663 17.7913 23.3907C17.1906 23.5231 16.5644 23.5875 15.9211 23.575C11.5392 23.4902 8.09012 19.9135 8.15696 15.5314C8.22216 11.2541 11.6773 7.79886 15.9546 7.73352Z" fill="url(#paint1_linear_536_1149)"/>
<path d="M9.80147 0.50428C4.4627 0.422718 0.105251 4.62463 0.00184496 9.96303C-0.0132956 10.7467 0.0650323 11.5097 0.22647 12.2414C0.49975 13.4804 0.662219 14.7413 0.662219 16.0102V18.4628C0.662219 18.8385 0.966812 19.1432 1.34261 19.1432H3.7952C5.06401 19.1432 6.3249 19.3056 7.56394 19.5789C8.29566 19.7403 9.05859 19.8187 9.84229 19.8035C15.1806 19.7001 19.3825 15.3428 19.3011 10.0041C19.2216 4.79319 15.0124 0.583827 9.80147 0.50428Z" fill="url(#paint2_linear_536_1149)"/>
<path d="M6.19656 9.63692C5.92393 9.34724 5.53806 9.16531 5.10878 9.16531C4.28317 9.16531 3.61389 9.83459 3.61389 10.6602C3.61389 11.0894 3.79577 11.4753 4.0855 11.748L7.31021 14.9727C7.58288 15.2624 7.96876 15.4443 8.39799 15.4443C9.2236 15.4443 9.89288 14.775 9.89288 13.9494C9.89288 13.5202 9.71096 13.1343 9.42127 12.8616L6.19656 9.63692Z" fill="url(#paint3_linear_536_1149)"/>
<path d="M5.10866 12.1549C5.93426 12.1549 6.60354 11.4856 6.60354 10.66C6.60354 9.8344 5.93426 9.16512 5.10866 9.16512C4.28305 9.16512 3.61377 9.8344 3.61377 10.66C3.61377 11.4856 4.28305 12.1549 5.10866 12.1549Z" fill="white"/>
<path d="M10.4242 9.63692C10.1516 9.34724 9.76572 9.16531 9.33644 9.16531C8.51083 9.16531 7.84155 9.83459 7.84155 10.6602C7.84155 11.0894 8.02343 11.4753 8.31316 11.748L11.5379 14.9727C11.8105 15.2624 12.1964 15.4443 12.6257 15.4443C13.4513 15.4443 14.1205 14.775 14.1205 13.9494C14.1205 13.5202 13.9386 13.1343 13.6489 12.8616L10.4242 9.63692Z" fill="url(#paint4_linear_536_1149)"/>
<path d="M9.33644 12.1549C10.162 12.1549 10.8313 11.4856 10.8313 10.66C10.8313 9.8344 10.162 9.16512 9.33644 9.16512C8.51084 9.16512 7.84155 9.8344 7.84155 10.66C7.84155 11.4856 8.51084 12.1549 9.33644 12.1549Z" fill="white"/>
<path d="M14.6518 9.63692C14.3791 9.34724 13.9933 9.16531 13.564 9.16531C12.7384 9.16531 12.0691 9.83459 12.0691 10.6602C12.0691 11.0894 12.251 11.4753 12.5407 11.748L15.7654 14.9727C16.0381 15.2624 16.424 15.4443 16.8532 15.4443C17.6788 15.4443 18.3481 14.775 18.3481 13.9494C18.3481 13.5202 18.1662 13.1343 17.8765 12.8616L14.6518 9.63692Z" fill="url(#paint5_linear_536_1149)"/>
<path d="M13.5642 12.1549C14.3898 12.1549 15.0591 11.4856 15.0591 10.66C15.0591 9.8344 14.3898 9.16512 13.5642 9.16512C12.7386 9.16512 12.0693 9.8344 12.0693 10.66C12.0693 11.4856 12.7386 12.1549 13.5642 12.1549Z" fill="white"/>
</g>
<defs>
<linearGradient id="paint0_linear_536_1149" x1="14.4788" y1="14.0559" x2="26.1096" y2="25.6867" gradientUnits="userSpaceOnUse">
<stop stop-color="#A7F3CE"/>
<stop offset="1" stop-color="#61DB99"/>
</linearGradient>
<linearGradient id="paint1_linear_536_1149" x1="18.2861" y1="17.863" x2="13.346" y2="12.9233" gradientUnits="userSpaceOnUse">
<stop stop-color="#61DB99" stop-opacity="0"/>
<stop offset="1" stop-color="#009E74"/>
</linearGradient>
<linearGradient id="paint2_linear_536_1149" x1="6.12512" y1="8.59395" x2="18.4048" y2="20.8737" gradientUnits="userSpaceOnUse">
<stop stop-color="#62E1FB"/>
<stop offset="1" stop-color="#00A2F3"/>
</linearGradient>
<linearGradient id="paint3_linear_536_1149" x1="8.43417" y1="13.9859" x2="1.96872" y2="7.52064" gradientUnits="userSpaceOnUse">
<stop stop-color="#00A2F3" stop-opacity="0"/>
<stop offset="1" stop-color="#0075CD"/>
</linearGradient>
<linearGradient id="paint4_linear_536_1149" x1="12.6615" y1="13.9857" x2="6.19628" y2="7.52048" gradientUnits="userSpaceOnUse">
<stop stop-color="#00A2F3" stop-opacity="0"/>
<stop offset="1" stop-color="#0075CD"/>
</linearGradient>
<linearGradient id="paint5_linear_536_1149" x1="16.8891" y1="13.9858" x2="10.4238" y2="7.52055" gradientUnits="userSpaceOnUse">
<stop stop-color="#00A2F3" stop-opacity="0"/>
<stop offset="1" stop-color="#0075CD"/>
</linearGradient>
<clipPath id="clip0_536_1149">
<rect width="24" height="24" fill="white" transform="translate(0 0.0397949)"/>
</clipPath>
</defs>
</svg>
