<svg width="53" height="56" viewBox="0 0 53 56" fill="none" xmlns="http://www.w3.org/2000/svg">
<path d="M26.3871 0C11.8124 0 0 11.8124 0 26.3871H52.7741C52.7741 11.8124 40.9617 0 26.3871 0Z" fill="#666666"/>
<path d="M49.8852 29.4414C49.8852 42.4015 39.3421 52.9398 26.3868 52.9398C13.4316 52.9398 2.88845 42.3967 2.88845 29.4414H0.00463867C0.00463867 43.9917 11.8414 55.8285 26.3917 55.8285C40.942 55.8285 52.7788 43.9917 52.7788 29.4414H49.895H49.8852Z" fill="#666666"/>
<path d="M26.3869 49.2165C37.2948 49.2165 46.17 40.3414 46.17 29.4335H43.2862C43.2862 38.7511 35.7046 46.3278 26.3918 46.3278C17.079 46.3278 9.49745 38.7463 9.49745 29.4335H6.61365C6.61365 40.3414 15.4888 49.2165 26.3967 49.2165H26.3869Z" fill="#666666"/>
</svg>
