<svg width="48" height="48" viewBox="0 0 48 48" fill="none" xmlns="http://www.w3.org/2000/svg">
<g clip-path="url(#clip0_536_1187)">
<path d="M28.5967 38.6788L18.0103 28.0924C17.3467 27.4288 17.3459 26.3555 18.0081 25.6934C18.2699 25.4315 18.5969 25.2729 18.9371 25.2195C19.4553 25.1356 20.0065 25.2942 20.4075 25.6952L17.6814 22.9695C17.35 22.6377 17.1834 22.2037 17.1837 21.7701C17.1837 21.6801 17.191 21.5892 17.2053 21.4988C17.2599 21.1582 17.4177 20.8319 17.6796 20.5701C17.9388 20.3108 18.26 20.1537 18.5955 20.098C19.0525 20.0219 19.5337 20.1332 19.9175 20.4324L18.88 19.3949C18.5486 19.0635 18.382 18.6277 18.382 18.1941C18.3816 18.1022 18.3893 18.0092 18.4047 17.9183C18.4589 17.5803 18.6167 17.2555 18.8774 16.9948C19.1393 16.7329 19.4659 16.5747 19.8076 16.5209C20.3258 16.4374 20.8769 16.596 21.2779 16.997L22.4659 18.1849C22.0653 17.7843 21.9064 17.2328 21.9899 16.7146C22.0437 16.3744 22.2012 16.0481 22.4637 15.7855C23.1255 15.1242 24.1999 15.1245 24.8631 15.7877L31.7428 22.6677L31.7622 22.6403C32.1108 22.2916 32.5217 22.0437 32.9601 21.8958C34.0422 21.5314 35.287 21.7804 36.1501 22.6436L39.3581 25.8516C39.9748 26.4683 40.3205 27.3036 40.322 28.1744L40.3238 30.1813C40.3245 31.1191 40.6977 32.0189 41.362 32.6832L42.0776 33.3984L33.8954 41.5803L32.9813 40.6662C32.3734 40.0583 31.5648 39.6921 30.7075 39.6361C29.911 39.5837 29.1614 39.2439 28.5967 38.6788Z" fill="#FECBAA"/>
<path d="M33.3636 42.1117L42.6503 32.825C42.9565 32.5188 43.4527 32.5188 43.7585 32.825L47.0661 36.1322C47.3719 36.4383 47.3719 36.9342 47.0661 37.2403L37.779 46.5274C37.4728 46.8332 36.977 46.8332 36.6708 46.5274L33.3636 43.2198C33.0574 42.914 33.0574 42.4178 33.3636 42.1117Z" fill="#FDD559"/>
<path d="M19.4018 38.6799L29.9882 28.0935C30.6518 27.4299 30.6522 26.3566 29.9901 25.6945C29.7282 25.4322 29.4012 25.274 29.0614 25.2202C28.5428 25.1367 27.992 25.2953 27.5907 25.6963L30.3167 22.9702C30.6481 22.6388 30.8148 22.2045 30.8144 21.7709C30.8144 21.6808 30.8075 21.59 30.7928 21.4999C30.7382 21.1593 30.5804 20.833 30.3186 20.5712C30.0597 20.3119 29.7381 20.1548 29.4027 20.0991C28.9456 20.023 28.4644 20.1343 28.0807 20.4331L29.1181 19.3956C29.4495 19.0642 29.6162 18.6288 29.6162 18.1952C29.6165 18.1029 29.6088 18.0103 29.5935 17.9194C29.5393 17.5814 29.3814 17.2562 29.1207 16.9959C28.8588 16.734 28.5322 16.5755 28.1909 16.522C27.6723 16.4385 27.1215 16.5967 26.7202 16.9977L25.5322 18.1857C25.9328 17.7854 26.0918 17.2339 26.0083 16.7153C25.9548 16.3755 25.797 16.0492 25.5344 15.7866C24.8726 15.1249 23.7982 15.1256 23.1353 15.7885L16.2554 22.6685L16.2359 22.6414C15.8873 22.2927 15.4764 22.0448 15.0381 21.8969C13.9563 21.5321 12.7112 21.7815 11.848 22.6447L8.64038 25.8527C8.02368 26.4694 7.67761 27.3047 7.67651 28.1755L7.67431 30.1824C7.67395 31.1206 7.30078 32.02 6.63647 32.6843L5.9209 33.3995L14.1028 41.5814L15.0172 40.6673C15.6251 40.0594 16.4337 39.6932 17.291 39.6372C18.0871 39.5848 18.8368 39.2446 19.4018 38.6799Z" fill="#FECBAA"/>
<path d="M14.6348 42.1128L5.34774 32.8257C5.04159 32.5195 4.54537 32.5195 4.23959 32.8257L0.931976 36.1333C0.62619 36.4391 0.62619 36.9353 0.931976 37.2414L10.2191 46.5282C10.5252 46.8343 11.0211 46.8343 11.3272 46.5282L14.6348 43.2209C14.9406 42.9148 14.9406 42.4186 14.6348 42.1128Z" fill="#FF84A7"/>
<path d="M30.7701 13.3085V28.2799C30.7701 29.2185 30.0117 29.9777 29.0749 29.9777C28.7047 29.9777 28.3615 29.8586 28.0829 29.6561C27.6573 29.3485 27.3797 28.8472 27.3797 28.2799V32.135C27.3797 32.6037 27.1904 33.0286 26.8839 33.3351C26.8202 33.3988 26.751 33.4577 26.6766 33.5112C26.3972 33.7137 26.0552 33.8327 25.6849 33.8327C25.3183 33.8327 24.98 33.7167 24.7031 33.5189C24.3263 33.2497 24.0648 32.8308 24.0047 32.3478V33.8152C24.0047 34.2839 23.8143 34.7095 23.5078 35.016C23.4433 35.0815 23.3719 35.1416 23.2969 35.1951C23.0193 35.3957 22.6783 35.514 22.3096 35.514C21.9393 35.514 21.5962 35.3946 21.3168 35.1914C20.8912 34.8838 20.6136 34.3824 20.6136 33.8152V32.135C20.6136 32.7012 20.336 33.204 19.9105 33.5112C19.6322 33.7137 19.2898 33.8327 18.9188 33.8327C17.9831 33.8327 17.2236 33.0725 17.2236 32.135V22.4052L17.1907 22.411C16.6977 22.411 16.2316 22.2957 15.8174 22.0902C14.7946 21.583 14.0903 20.5265 14.0903 19.3059V14.7693C14.0903 13.8974 14.4364 13.062 15.0513 12.445L16.4689 11.0248C17.1317 10.3609 17.5038 9.46072 17.5038 8.52139V7.50992H29.0749V8.80264C29.0749 9.6625 29.388 10.4931 29.9542 11.1391C30.4804 11.7389 30.7701 12.5098 30.7701 13.3085Z" fill="#FEDFC5"/>
<path d="M29.9901 25.6945C29.7282 25.4322 29.4012 25.274 29.0614 25.2202C28.5428 25.1367 27.992 25.2953 27.591 25.6963L30.3171 22.9702C30.6485 22.6388 30.8148 22.2045 30.8148 21.7709C30.8148 21.6808 30.8075 21.59 30.7928 21.4999C30.7386 21.1589 30.5808 20.833 30.3189 20.5712C30.0597 20.3119 29.7381 20.1548 29.4027 20.0991C28.946 20.023 28.4648 20.1343 28.081 20.4331L29.1185 19.3956C29.4499 19.0642 29.6162 18.6288 29.6162 18.1952C29.6169 18.1029 29.6089 18.0103 29.5935 17.9194C29.5393 17.5814 29.3814 17.2562 29.1211 16.9959C28.8592 16.734 28.5322 16.5755 28.1909 16.522C27.6723 16.4385 27.1216 16.5967 26.7206 16.9977L25.5326 18.1857C25.9328 17.7854 26.0921 17.2339 26.0083 16.7153C25.9548 16.3755 25.797 16.0492 25.5344 15.7866C24.8727 15.1249 23.7982 15.1256 23.1354 15.7885L16.2554 22.6685L16.236 22.6414C15.8873 22.2927 15.4764 22.0448 15.0381 21.8969C14.5192 21.7218 13.9625 21.6899 13.4286 21.7976C13.8589 22.4476 14.4598 22.9867 15.193 23.3503C15.3962 23.4511 15.6046 23.5356 15.817 23.6041V32.135C15.817 33.8467 17.2082 35.239 18.9184 35.239C19.1239 35.239 19.3268 35.2192 19.5242 35.18C19.745 35.6312 20.0738 36.0282 20.4888 36.3281C20.7462 36.5156 21.0271 36.6592 21.3226 36.7588L29.9879 28.0931C30.6518 27.4299 30.6526 26.3566 29.9901 25.6945Z" fill="#FFAE85"/>
<path d="M32.1753 28.2799V22.2927C32.0299 22.3945 31.8911 22.5106 31.7611 22.6406L31.742 22.6677L24.862 15.7877C24.1992 15.1249 23.1244 15.1242 22.463 15.7859C22.2004 16.0485 22.0426 16.3744 21.9888 16.7146C21.9053 17.2332 22.0646 17.7847 22.4648 18.1849L21.2768 16.997C20.8758 16.596 20.3251 16.4378 19.8065 16.5213C19.4652 16.5747 19.1382 16.7333 18.8763 16.9951C18.616 17.2555 18.4581 17.5807 18.4036 17.9187C18.3885 18.0095 18.3805 18.1022 18.3812 18.1945C18.3812 18.6281 18.5475 19.0635 18.8793 19.3949L19.9167 20.4324C19.5326 20.1336 19.0514 20.0222 18.5947 20.0984C18.2593 20.1541 17.9377 20.3112 17.6785 20.5704C17.4166 20.8323 17.2588 21.1582 17.2046 21.4992C17.1899 21.5892 17.1826 21.6801 17.1826 21.7701C17.1826 22.2037 17.3489 22.6381 17.6803 22.9695L20.4064 25.6956C20.0054 25.2946 19.4546 25.136 18.936 25.2195C18.5962 25.2733 18.2692 25.4315 18.0073 25.6934C17.3452 26.3558 17.3459 27.4292 18.0095 28.0928L25.1015 35.1848C25.292 35.221 25.4868 35.2394 25.6842 35.2394C26.3412 35.2394 26.9696 35.0357 27.4984 34.6523C27.6335 34.5549 27.761 34.4461 27.8774 34.3297C28.463 33.7445 28.7853 32.9652 28.7853 32.1354V31.3711C28.8808 31.3799 28.9772 31.3843 29.0742 31.3843C30.784 31.3839 32.1753 29.9916 32.1753 28.2799Z" fill="#FFAE85"/>
<path d="M30.7701 13.3085V28.2799C30.7701 29.2185 30.0117 29.9777 29.0749 29.9777C29.0497 29.9777 29.0226 29.9777 28.9951 29.9758C28.6567 29.9601 28.3429 29.8447 28.0851 29.6572C28.084 29.6572 28.084 29.6561 28.0829 29.6561C27.6573 29.3485 27.3797 28.8472 27.3797 28.2799V32.135C27.3797 32.6037 27.1904 33.0286 26.8839 33.3351C26.8202 33.3988 26.751 33.4577 26.6766 33.5112C26.3972 33.7137 26.0552 33.8327 25.6849 33.8327C25.3183 33.8327 24.98 33.7167 24.7031 33.5189C24.3263 33.2497 24.0648 32.8308 24.0047 32.3478V33.8152C24.0047 34.2839 23.8143 34.7095 23.5078 35.016C23.4433 35.0815 23.3719 35.1416 23.2969 35.1951C23.0193 35.3957 22.6783 35.514 22.3096 35.514C21.9393 35.514 21.5962 35.3946 21.3168 35.1914C20.8912 34.8838 20.6136 34.3824 20.6136 33.8152V32.135C20.6136 32.7012 20.336 33.204 19.9105 33.5112C19.6322 33.7137 19.2898 33.8327 18.9188 33.8327C17.9831 33.8327 17.2236 33.0725 17.2236 32.135V22.4052L17.1907 22.411C16.6977 22.411 16.2316 22.2957 15.8174 22.0902C14.7946 21.583 14.0903 20.5265 14.0903 19.3059V14.7693C14.0903 13.8974 14.4364 13.062 15.0513 12.445L16.4689 11.0248C16.8787 10.6139 17.1779 10.1133 17.3456 9.56765C17.4507 9.23037 17.5038 8.87478 17.5038 8.52139V7.50992H29.0749V8.80264C29.0749 9.09231 29.1057 9.3981 29.1866 9.67752C29.3214 10.2147 29.584 10.7161 29.9542 11.1391C30.4757 11.7345 30.7701 12.5153 30.7701 13.3085Z" fill="#FEDFC5"/>
<path d="M30.7701 13.3085V28.2799C30.7701 29.2185 30.0117 29.9777 29.0749 29.9777C29.0497 29.9777 29.0226 29.9777 28.9951 29.9758C28.6567 29.9601 28.3429 29.8447 28.0851 29.6572L28.114 15.2304C28.114 15.1432 28.0942 15.0055 28.0576 14.8301C27.4109 11.6792 24.7511 9.56765 21.5343 9.56765H17.3456C17.4507 9.23037 17.5038 8.87478 17.5038 8.52139V7.50992H29.0749V8.80264C29.0749 9.09231 29.1057 9.3981 29.1866 9.67752C29.3214 10.2147 29.584 10.7161 29.9542 11.1391C30.4757 11.7345 30.7701 12.5153 30.7701 13.3085Z" fill="#FECBAA"/>
<path d="M29.8268 7.51027H16.6926C16.2601 7.51027 15.9093 7.15944 15.9093 6.72658V2.04935C15.9093 1.61649 16.2601 1.26566 16.6926 1.26566H29.8268C30.2593 1.26566 30.6101 1.61649 30.6101 2.04935V6.72658C30.6101 7.15944 30.2593 7.51027 29.8268 7.51027Z" fill="#83D9FF"/>
<path d="M19.7212 42.5519L19.5802 43.2407L19.716 42.5511C19.3352 42.476 18.9653 42.724 18.8902 43.1048C18.8152 43.4861 19.0631 43.8556 19.4443 43.9306C19.4454 43.931 19.456 43.9328 19.4571 43.9332C19.5018 43.9416 19.5461 43.946 19.5901 43.946C19.9207 43.946 20.2155 43.7116 20.2796 43.3747C20.3529 42.9931 20.1028 42.6247 19.7212 42.5519Z" fill="black"/>
<path d="M25.0971 42.7778L25.167 43.4773L25.0949 42.7782C24.7086 42.8177 24.4277 43.163 24.4676 43.5494C24.5046 43.9112 24.81 44.1807 25.1659 44.1807C25.1901 44.1807 25.2147 44.1793 25.2388 44.1771L25.2582 44.1749C25.6428 44.1298 25.9156 43.783 25.8727 43.3985C25.8295 43.0144 25.4816 42.7375 25.0971 42.7778Z" fill="black"/>
<path d="M22.4055 42.8664C22.4055 42.8664 22.3956 42.8661 22.3952 42.8661C22.0078 42.8485 21.684 43.1495 21.6665 43.5373C21.6493 43.9251 21.9539 44.2536 22.3418 44.2712C22.3527 44.2719 22.3634 44.2719 22.3744 44.2719C22.7479 44.2719 23.0592 43.9779 23.076 43.6007C23.0936 43.2129 22.7937 42.884 22.4055 42.8664Z" fill="black"/>
<path d="M17.124 41.8374L17.1152 41.8341C16.7497 41.703 16.3513 41.8941 16.2202 42.2596C16.0887 42.6251 16.2828 43.0294 16.6483 43.1608C16.727 43.189 16.8072 43.2022 16.886 43.2022C17.1742 43.2022 17.4448 43.0239 17.5477 42.7368C17.6792 42.3713 17.4895 41.9685 17.124 41.8374Z" fill="black"/>
<path d="M27.7507 42.2856L27.9239 42.9671L27.7485 42.2864C27.3724 42.383 27.146 42.7665 27.2427 43.1426C27.3244 43.4597 27.61 43.6706 27.9231 43.6706C27.9814 43.6706 28.0403 43.6633 28.0993 43.6479C28.1022 43.6472 28.1147 43.6439 28.118 43.6432C28.4911 43.5414 28.7094 43.1579 28.6098 42.784C28.5102 42.4105 28.1253 42.1882 27.7507 42.2856Z" fill="black"/>
<path d="M30.2926 41.399L30.5713 42.0443L30.2904 41.3997C29.9344 41.555 29.7715 41.9692 29.9264 42.3251C30.0417 42.5899 30.3003 42.7478 30.5716 42.7478C30.665 42.7478 30.7606 42.7287 30.8518 42.6892C30.8547 42.6877 30.8661 42.6829 30.869 42.6815C31.2217 42.5222 31.3773 42.1091 31.2198 41.7557C31.0624 41.4019 30.6471 41.2434 30.2926 41.399Z" fill="black"/>
<path d="M14.4382 9.34681C14.551 9.34681 14.6656 9.31972 14.7715 9.26332C15.1142 9.08058 15.2435 8.65468 15.0608 8.3119C14.878 7.9695 14.4525 7.83949 14.1097 8.0226L14.1013 8.02699C13.7589 8.20973 13.6333 8.63344 13.816 8.97621C13.942 9.21278 14.1866 9.34681 14.4382 9.34681Z" fill="black"/>
<path d="M6.30503 17.2002C6.4094 17.2548 6.52109 17.2808 6.63132 17.2808C6.88437 17.2808 7.129 17.1438 7.25461 16.9039L7.26706 16.8794C7.43845 16.5308 7.29489 16.1093 6.94626 15.9382C6.60019 15.7676 6.18198 15.9082 6.0084 16.2521C5.82895 16.5956 5.96152 17.02 6.30503 17.2002Z" fill="black"/>
<path d="M5.3152 19.8454C5.38991 19.8706 5.46572 19.8827 5.54079 19.8827C5.83376 19.8827 6.10732 19.6978 6.20656 19.4048L6.21571 19.377C6.32997 19.006 6.1216 18.6123 5.75026 18.4984C5.38222 18.3849 4.99147 18.5893 4.87392 18.9555C4.75051 19.3228 4.94789 19.7212 5.3152 19.8454Z" fill="black"/>
<path d="M7.69226 14.7404C7.81714 14.8312 7.96179 14.8751 8.10535 14.8751C8.32251 14.8751 8.53711 14.7744 8.67444 14.5855L8.68359 14.573C8.90918 14.2573 8.83557 13.8193 8.52063 13.5938C8.20532 13.3678 7.76587 13.4403 7.53955 13.7553L8.10608 14.172L7.53735 13.7582C7.30884 14.0724 7.37842 14.5122 7.69226 14.7404Z" fill="black"/>
<path d="M12.0513 10.8655C12.1988 10.8655 12.3475 10.819 12.4746 10.7223C12.7881 10.4931 12.8558 10.0532 12.6266 9.73976C12.397 9.42629 11.9571 9.35854 11.644 9.58779L11.6264 9.6006C11.3174 9.83534 11.2558 10.2774 11.4906 10.5868C11.629 10.7692 11.8388 10.8655 12.0513 10.8655Z" fill="black"/>
<path d="M4.68749 30.5087C4.78051 30.8108 5.0581 31.0045 5.35839 31.0045C5.42687 31.0045 5.49682 30.9943 5.56566 30.973C5.9348 30.8599 6.14318 30.4688 6.03258 30.0989C5.92675 29.7297 5.54406 29.5129 5.17162 29.6144C4.79699 29.7166 4.57616 30.1033 4.67834 30.4779C4.68053 30.4852 4.68529 30.5013 4.68749 30.5087Z" fill="black"/>
<path d="M9.92721 12.7185C10.11 12.7185 10.2927 12.6479 10.4308 12.5072C10.705 12.2326 10.705 11.7873 10.4308 11.513C10.1561 11.2383 9.71078 11.2383 9.43613 11.513L9.42441 11.5247C9.15268 11.8019 9.15817 12.2465 9.43539 12.5182C9.57199 12.6522 9.7496 12.7185 9.92721 12.7185Z" fill="black"/>
<path d="M5.46456 27.4431C5.41513 27.0611 5.06613 26.7902 4.6838 26.8356C4.29855 26.8817 4.02316 27.2314 4.06894 27.6171L4.07297 27.6453C4.12424 27.9946 4.42416 28.2451 4.7673 28.2451C4.80099 28.2451 4.83542 28.2425 4.87021 28.2374C5.2529 28.1818 5.5184 27.8258 5.46456 27.4431Z" fill="black"/>
<path d="M4.5813 25.4293C4.58863 25.4293 4.59559 25.4297 4.60254 25.4297C4.98121 25.4297 5.29395 25.1283 5.30494 24.7471L5.30567 24.717C5.30567 24.3285 4.99073 24.0139 4.60254 24.0139C4.21693 24.0139 3.90418 24.3237 3.89942 24.7079C3.88917 25.0953 4.19422 25.418 4.5813 25.4293Z" fill="black"/>
<path d="M4.73547 22.6095C4.77758 22.6168 4.81896 22.6205 4.86034 22.6205C5.19433 22.6205 5.49059 22.3813 5.55175 22.0411C5.55358 22.0309 5.55504 22.0206 5.55651 22.0104C5.61327 21.6262 5.34777 21.2688 4.96325 21.2124C4.58349 21.156 4.2279 21.4171 4.16674 21.7958C4.10009 22.1774 4.35424 22.541 4.73547 22.6095Z" fill="black"/>
<path d="M37.9031 14.9623C38.0394 15.1601 38.2584 15.2659 38.4817 15.2659C38.6191 15.2659 38.7582 15.2256 38.8798 15.1417C39.1995 14.922 39.2804 14.484 39.0607 14.164L38.4762 14.5551L39.0585 14.1607C38.8403 13.8391 38.403 13.7553 38.0818 13.9732C37.7603 14.1911 37.6764 14.6283 37.8943 14.9499L37.9031 14.9623Z" fill="black"/>
<path d="M41.4938 22.0378C41.1078 22.0811 40.8302 22.4293 40.8738 22.8153L40.8775 22.8457C40.9277 23.1962 41.2287 23.4492 41.5729 23.4492C41.6059 23.4492 41.6396 23.447 41.6733 23.4423C42.0545 23.3877 42.3204 23.0365 42.2709 22.6556C42.2266 22.2707 41.8772 21.9946 41.4938 22.0378Z" fill="black"/>
<path d="M40.3073 20.0537L40.3102 20.0629C40.4003 20.3694 40.6805 20.5679 40.9844 20.5679C41.05 20.5679 41.1166 20.5587 41.1829 20.539C41.5557 20.4295 41.7688 20.0387 41.6593 19.6659L41.6564 19.6568C41.5469 19.284 41.1562 19.0708 40.7834 19.1807C40.4109 19.2902 40.1978 19.6809 40.3073 20.0537Z" fill="black"/>
<path d="M39.3142 17.4247C39.4368 17.6741 39.6877 17.8195 39.9484 17.8195C40.0521 17.8195 40.1575 17.7964 40.2568 17.7473C40.605 17.5759 40.7497 17.157 40.5779 16.8084L39.9407 17.1054L40.5772 16.8069C40.4124 16.4553 39.9938 16.3041 39.6423 16.4689C39.2907 16.6337 39.1391 17.0523 39.3039 17.4038L39.3142 17.4247Z" fill="black"/>
<path d="M36.1321 12.7665C36.2698 12.9071 36.4518 12.9774 36.6342 12.9774C36.8118 12.9774 36.9894 12.9108 37.1264 12.7764C37.4018 12.5069 37.408 12.0663 37.1425 11.7887C36.8792 11.5049 36.4353 11.4877 36.1504 11.7506C35.8652 12.0139 35.8476 12.4589 36.1109 12.7442L36.1321 12.7665Z" fill="black"/>
<path d="M41.7224 24.9737C41.336 24.9639 41.0126 25.2667 40.9991 25.6531C40.9815 26.038 41.2771 26.3657 41.6623 26.3873C41.6759 26.3881 41.6887 26.3884 41.7022 26.3884C42.0725 26.3884 42.3826 26.0987 42.4035 25.7241L42.4046 25.6952C42.4156 25.3074 42.1102 24.9851 41.7224 24.9737Z" fill="black"/>
<path d="M31.6358 9.31387L31.6527 9.32302C31.7574 9.37868 31.8698 9.40505 31.9804 9.40505C32.2305 9.40505 32.4726 9.27029 32.5997 9.03408C32.7828 8.69314 32.6539 8.26687 32.314 8.0823L31.9738 8.69753L32.3118 8.08084C31.9713 7.89407 31.5439 8.01895 31.3571 8.35952C31.1707 8.69973 31.2952 9.12746 31.6358 9.31387Z" fill="black"/>
<path d="M34.014 10.856L34.025 10.8644C34.152 10.9607 34.3011 11.0072 34.4494 11.0072C34.6618 11.0072 34.8716 10.9113 35.0101 10.7289C35.2448 10.4195 35.184 9.97855 34.8749 9.74381L34.8702 9.74051C34.5622 9.50394 34.1209 9.5618 33.8843 9.86979C33.6478 10.1778 33.706 10.6194 34.014 10.856Z" fill="black"/>
<path d="M47.566 35.6184L44.2653 32.3119C43.9844 32.0306 43.6113 31.8757 43.2139 31.8757C42.8169 31.8757 42.4434 32.0306 42.1629 32.3119L42.0864 32.3884L41.8696 32.1716C41.6019 31.9032 41.3946 31.5908 41.254 31.2506C41.2415 31.2055 41.225 31.1616 41.2038 31.1202C41.0961 30.8177 41.0401 30.4958 41.0401 30.1651V29.2298C41.1042 29.2635 41.1741 29.2881 41.2492 29.3009C41.2895 29.3078 41.3294 29.3111 41.3689 29.3111C41.7026 29.3111 41.9977 29.0731 42.0596 28.7347C42.1347 28.3546 41.8882 27.9851 41.5077 27.9089C41.3404 27.8756 41.1749 27.9045 41.0357 27.98C40.9925 26.9809 40.5842 26.0478 39.8737 25.3359L36.6716 22.1283C35.9531 21.4087 34.9976 21.0124 33.9814 21.0124C33.1948 21.0124 32.4455 21.2508 31.8134 21.6921L31.4736 21.3505V13.3085C31.4736 12.3391 31.1216 11.4038 30.483 10.6754C30.0285 10.1576 29.7784 9.49257 29.7784 8.80263V8.2134H29.8267C30.6463 8.2134 31.3132 7.54653 31.3132 6.72658V2.04934C31.3132 1.2294 30.6463 0.562531 29.8267 0.562531H16.6926C15.873 0.562531 15.2062 1.2294 15.2062 2.04934V6.72658C15.2062 7.54653 15.873 8.2134 16.6926 8.2134H16.801V8.52174C16.801 9.2798 16.5062 9.99244 15.9712 10.5282L14.5536 11.9484C13.8014 12.702 13.3872 13.7036 13.3872 14.7693V19.3055C13.3872 19.9219 13.5351 20.5038 13.7955 21.0194C12.8631 21.0732 11.9941 21.4618 11.3283 22.1283L8.12621 25.3359C7.37401 26.0896 6.95983 27.0915 6.95983 28.1568V30.1651C6.95983 30.9232 6.66539 31.6358 6.13036 32.1716L5.91613 32.3862C5.91503 32.3869 5.9143 32.3877 5.91356 32.3884L5.83739 32.3119C5.55651 32.0306 5.18334 31.8757 4.786 31.8757C4.38903 31.8757 4.0155 32.0306 3.73498 32.3119L0.433959 35.6184C-0.144653 36.1981 -0.144653 37.1414 0.433959 37.7212L1.56445 38.8531C1.83874 39.1281 2.28405 39.1285 2.55871 38.8542C2.83337 38.5796 2.8341 38.1346 2.55944 37.8596L1.42932 36.7273C1.39746 36.6954 1.39746 36.6438 1.42932 36.6119L4.73034 33.3054C4.7611 33.2746 4.81127 33.2743 4.84203 33.3054L5.41588 33.8803H5.41625L13.2521 41.7297L14.1299 42.6093C14.1617 42.6412 14.1617 42.6928 14.1299 42.7247L10.8292 46.0312C10.7981 46.0623 10.7479 46.0623 10.7171 46.0312L4.55016 39.8536C4.27587 39.5786 3.83056 39.5782 3.5559 39.8525C3.28088 40.1272 3.28051 40.5721 3.5548 40.8471L9.72215 47.0247C10.0027 47.306 10.3762 47.4609 10.7735 47.4609C11.1705 47.4609 11.5437 47.306 11.8246 47.0247L15.1252 43.7182C15.7038 43.1389 15.7038 42.1955 15.1252 41.6158L15.0893 41.5799L15.5057 41.1628C15.992 40.6754 16.638 40.3824 17.3247 40.3381C18.2911 40.2755 19.2004 39.8631 19.8849 39.1772L22.9171 36.1384C23.7916 35.9088 24.4724 35.1965 24.6573 34.3044C24.969 34.4527 25.3172 34.5362 25.6849 34.5362C27.0073 34.5362 28.0832 33.4592 28.0832 32.135V30.4654C28.3857 30.6035 28.7215 30.6811 29.0753 30.6811C30.3977 30.6811 31.4732 29.6041 31.4732 28.2799V23.3441L33.6361 25.5176C33.7734 25.6556 33.9539 25.7245 34.1345 25.7245C34.3139 25.7245 34.4933 25.6564 34.6307 25.5198C34.9057 25.2458 34.9068 24.8009 34.6329 24.5255L32.8297 22.7135C33.1787 22.5212 33.572 22.4187 33.9814 22.4187C34.6215 22.4187 35.2236 22.6684 35.6762 23.1222L38.8783 26.3295C39.3654 26.8176 39.6338 27.4665 39.6338 28.1568V30.1651C39.6338 31.2986 40.0744 32.3639 40.8742 33.1651L41.0925 33.3838L40.0726 34.4055L33.9041 40.5846L33.5602 40.2399C33.5566 40.2367 33.5533 40.233 33.5496 40.2297L33.4892 40.1689C32.7612 39.4398 31.794 39.0014 30.7664 38.9348C30.1413 38.8941 29.5532 38.6275 29.1082 38.1822L26.7978 35.8842C26.5224 35.6103 26.0771 35.6114 25.8032 35.8868C25.5296 36.1622 25.5307 36.6075 25.8061 36.8811L28.1151 39.1772C28.7995 39.8631 29.7088 40.2755 30.6756 40.3381C31.3619 40.3824 32.0079 40.6754 32.4942 41.1624L32.5283 41.1965C32.5466 41.2174 32.566 41.2368 32.5865 41.2551L32.9106 41.5795L32.8747 41.6158C32.2961 42.1955 32.2961 43.1385 32.8747 43.7182L36.1754 47.0247C36.4562 47.306 36.8294 47.4609 37.2267 47.4609C37.6237 47.4609 37.9972 47.306 38.2781 47.0247L47.566 37.7208C48.1446 37.1411 48.1446 36.1981 47.566 35.6184ZM41.5114 28.6267L41.4982 28.6245L41.37 28.5985L41.5114 28.6267ZM18.8895 38.1837C18.4467 38.6275 17.8586 38.8941 17.2339 38.9348C16.2059 39.0014 15.2387 39.4398 14.5107 40.1689L14.0958 40.5846L13.7223 40.2103C13.7175 40.2055 13.7127 40.2004 13.708 40.196L6.90746 33.3838L7.12572 33.1651C7.92552 32.3639 8.36607 31.2986 8.36607 30.1651V28.1568C8.36607 27.4665 8.63414 26.8176 9.12157 26.3295L12.3237 23.1222C12.7763 22.6684 13.3784 22.4187 14.0185 22.4187C14.4291 22.4187 14.8238 22.522 15.1739 22.7157L13.3678 24.5248C13.0935 24.7994 13.0938 25.2447 13.3685 25.519C13.5058 25.656 13.6856 25.7245 13.8655 25.7245C14.0456 25.7245 14.2258 25.6556 14.3631 25.5183L16.5205 23.3569V32.135C16.5205 33.4592 17.5964 34.5362 18.9188 34.5362C19.2916 34.5362 19.6446 34.4505 19.9596 34.2982C20.1024 34.9951 20.5477 35.5825 21.1512 35.9172L18.8895 38.1837ZM30.0673 28.2803C30.0673 28.8288 29.622 29.2752 29.0753 29.2752C28.5281 29.2752 28.0832 28.8288 28.0832 28.2803V20.4371C28.0832 20.0489 27.7686 19.734 27.3801 19.734C26.9915 19.734 26.677 20.0489 26.677 20.4371V32.1353C26.677 32.6839 26.232 33.13 25.6849 33.13C25.1938 33.13 24.7862 32.7704 24.7075 32.2998V20.4291C24.7075 20.0405 24.3929 19.7259 24.0044 19.7259C23.8795 19.7259 23.7619 19.7589 23.6601 19.816C23.4378 19.9343 23.2866 20.168 23.2866 20.4371V32.135C23.2866 32.2243 23.2917 32.3119 23.3012 32.3987V33.8155C23.3012 34.3641 22.8563 34.8105 22.3092 34.8105C21.7624 34.8105 21.3175 34.3641 21.3175 33.8155V20.4206C21.3175 20.0325 21.0025 19.7175 20.6143 19.7175C20.2258 19.7175 19.9109 20.0325 19.9109 20.4206V32.135C19.9109 32.6836 19.4659 33.13 18.9192 33.13C18.372 33.13 17.9271 32.6836 17.9271 32.135V19.0558C17.9271 18.6672 17.6122 18.3523 17.224 18.3523C16.8354 18.3523 16.5208 18.6672 16.5208 19.0558V21.475C16.4619 21.494 16.4048 21.5207 16.3517 21.5559C15.4424 21.2142 14.7934 20.3346 14.7934 19.3055V14.7693C14.7934 14.079 15.0619 13.4301 15.5489 12.9419L16.9665 11.5217C17.7667 10.7205 18.2072 9.65516 18.2072 8.52174V8.2134H19.6208C20.0094 8.2134 20.3239 7.89845 20.3239 7.51027C20.3239 7.12172 20.0094 6.80715 19.6208 6.80715H16.6926C16.6483 6.80715 16.6124 6.77089 16.6124 6.72658V2.04934C16.6124 2.00503 16.6483 1.96878 16.6926 1.96878H29.8264C29.871 1.96878 29.9069 2.00503 29.9069 2.04934V6.72658C29.9069 6.77126 29.871 6.80715 29.8264 6.80715H22.9218C22.5337 6.80715 22.2187 7.12172 22.2187 7.51027C22.2187 7.89845 22.5337 8.2134 22.9218 8.2134H28.3721V8.80263C28.3721 9.83388 28.746 10.8281 29.4254 11.603C29.8392 12.0747 30.0673 12.6804 30.0673 13.3085V28.2803ZM46.5706 36.7273L37.2828 46.0312C37.2674 46.0469 37.2487 46.0546 37.2267 46.0546C37.2051 46.0546 37.1865 46.0469 37.1707 46.0312L33.8701 42.7247C33.8382 42.6928 33.8382 42.6412 33.8701 42.6093L34.4014 42.0769L34.4018 42.0765L39.7935 36.6756L43.1579 33.3054C43.1886 33.2743 43.2388 33.2743 43.2696 33.3054L46.5706 36.6119C46.6025 36.6438 46.6025 36.6954 46.5706 36.7273Z" fill="black"/>
<path d="M18.9188 3.63797C18.5061 3.63797 18.1703 3.97452 18.1703 4.38797C18.1703 4.80179 18.5061 5.13797 18.9188 5.13797C19.3319 5.13797 19.6677 4.80179 19.6677 4.38797C19.6677 3.97452 19.3319 3.63797 18.9188 3.63797Z" fill="black"/>
<path d="M43.4439 35.6894C43.0308 35.6894 42.695 36.026 42.695 36.4394C42.695 36.8529 43.0308 37.1894 43.4439 37.1894C43.8566 37.1894 44.1924 36.8529 44.1924 36.4394C44.1924 36.026 43.8566 35.6894 43.4439 35.6894Z" fill="black"/>
<path d="M11.7173 42.8628C11.7173 42.4493 11.3815 42.1128 10.9687 42.1128C10.5557 42.1128 10.2198 42.4493 10.2198 42.8628C10.2198 43.2762 10.5557 43.6128 10.9687 43.6128C11.3815 43.6128 11.7173 43.2762 11.7173 42.8628Z" fill="black"/>
</g>
<defs>
<clipPath id="clip0_536_1187">
<rect width="48" height="48" fill="white"/>
</clipPath>
</defs>
</svg>
