<svg width="209" height="298" viewBox="0 0 209 298" fill="none" xmlns="http://www.w3.org/2000/svg">
<g filter="url(#filter0_d_514_1398)">
<rect x="4" width="201" height="291.724" rx="100.5" fill="#7EA1FF"/>
</g>
<g clip-path="url(#clip0_514_1398)">
<path d="M181.592 153.952L156.815 140.204C155.348 139.471 153.698 139.471 152.232 140.204L142.334 145.796V107.576H69.0119V145.796L59.1131 140.204C57.647 139.471 55.9972 139.471 54.5305 140.204L29.7541 153.952C28.379 154.776 27.4628 156.335 27.4628 157.985C27.4628 159.634 28.379 161.192 29.7541 162.017L47.3819 171.732L94.2163 212.426H117.129L163.964 171.732L181.592 162.017C182.967 161.192 183.883 159.634 183.883 157.985C183.883 156.335 182.967 154.776 181.592 153.952ZM105.673 166.508L82.4741 153.402H128.871L105.673 166.508Z" fill="url(#paint0_linear_514_1398)"/>
<path d="M181.592 181.448L163.964 171.732L107.964 203.261C107.231 203.627 106.406 203.811 105.673 203.811C104.94 203.811 104.115 203.627 103.382 203.261L47.382 171.732L29.7542 181.448C28.3791 182.272 27.4629 183.831 27.4629 185.48C27.4629 187.13 28.3791 188.688 29.7542 189.513L103.382 230.757C104.115 231.123 104.94 231.307 105.673 231.307C106.406 231.307 107.231 231.123 107.964 230.757L181.592 189.513C182.967 188.688 183.883 187.13 183.883 185.48C183.883 183.831 182.967 182.272 181.592 181.448ZM29.7542 134.522L103.382 175.765C104.115 176.131 104.94 176.315 105.673 176.315C106.406 176.315 107.231 176.131 107.964 175.765L181.592 134.522C182.967 133.696 183.883 132.139 183.883 130.489C183.883 128.839 182.967 127.281 181.592 126.456L107.964 85.2125C106.498 84.4793 104.848 84.4793 103.382 85.2125L29.7542 126.456C28.3791 127.281 27.4629 128.839 27.4629 130.489C27.4629 132.139 28.3791 133.696 29.7542 134.522ZM120.796 124.531C118.963 122.79 118.963 119.857 120.796 118.115C122.537 116.283 125.47 116.283 127.211 118.115L136.377 127.281C138.21 129.022 138.21 131.955 136.377 133.696L127.211 142.862C125.563 144.695 122.445 144.695 120.796 142.862C118.963 141.12 118.963 138.187 120.796 136.446L126.661 130.489L120.796 124.531ZM98.8907 138.554L103.473 120.224C104.115 117.749 106.589 116.283 109.064 116.924C111.539 117.474 113.005 119.948 112.455 122.423L107.873 140.754C107.092 143.747 103.71 144.768 102.282 144.053C99.8072 143.503 98.3408 141.029 98.8907 138.554ZM74.9697 127.281L84.135 118.115C85.8764 116.283 88.8089 116.283 90.5503 118.115C92.3834 119.857 92.3834 122.79 90.5503 124.531L84.6849 130.489L90.55 136.446C92.3831 138.187 92.3831 141.12 90.55 142.862C88.9015 144.695 85.7841 144.695 84.1347 142.862L74.9694 133.696C73.1364 131.955 73.1364 129.022 74.9697 127.281Z" fill="url(#paint1_linear_514_1398)"/>
</g>
<defs>
<filter id="filter0_d_514_1398" x="0.871595" y="0" width="207.257" height="297.98" filterUnits="userSpaceOnUse" color-interpolation-filters="sRGB">
<feFlood flood-opacity="0" result="BackgroundImageFix"/>
<feColorMatrix in="SourceAlpha" type="matrix" values="0 0 0 0 0 0 0 0 0 0 0 0 0 0 0 0 0 0 127 0" result="hardAlpha"/>
<feOffset dy="3.1284"/>
<feGaussianBlur stdDeviation="1.5642"/>
<feComposite in2="hardAlpha" operator="out"/>
<feColorMatrix type="matrix" values="0 0 0 0 0 0 0 0 0 0 0 0 0 0 0 0 0 0 0.25 0"/>
<feBlend mode="normal" in2="BackgroundImageFix" result="effect1_dropShadow_514_1398"/>
<feBlend mode="normal" in="SourceGraphic" in2="effect1_dropShadow_514_1398" result="shape"/>
</filter>
<linearGradient id="paint0_linear_514_1398" x1="105.673" y1="212.426" x2="105.673" y2="107.576" gradientUnits="userSpaceOnUse">
<stop stop-color="#ADDCFF"/>
<stop offset="0.5028" stop-color="#EAF6FF"/>
<stop offset="1" stop-color="#EAF6FF"/>
</linearGradient>
<linearGradient id="paint1_linear_514_1398" x1="105.673" y1="231.307" x2="105.673" y2="84.6626" gradientUnits="userSpaceOnUse">
<stop stop-color="#5558FF"/>
<stop offset="1" stop-color="#00C0FF"/>
</linearGradient>
<clipPath id="clip0_514_1398">
<rect width="156.42" height="156.42" fill="white" transform="translate(27.463 79.7744)"/>
</clipPath>
</defs>
</svg>
