<svg width="209" height="297" viewBox="0 0 209 297" fill="none" xmlns="http://www.w3.org/2000/svg">
<g filter="url(#filter0_d_514_1408)">
<rect x="4" width="201" height="290.593" rx="100.5" fill="#6DD1F9"/>
</g>
<g clip-path="url(#clip0_514_1408)">
<path d="M156.479 102.277L127.604 131.152C121.69 125.238 113.521 121.58 104.5 121.58V80.7461C124.798 80.7461 143.178 88.9718 156.479 102.277Z" fill="url(#paint0_linear_514_1408)"/>
<path d="M81.3962 131.152C75.4826 137.066 71.8243 145.235 71.8243 154.256H30.9904C30.9904 133.958 39.2161 115.578 52.5208 102.277L81.3962 131.152Z" fill="url(#paint1_linear_514_1408)"/>
<path d="M104.5 80.7461V121.58C95.4787 121.58 87.3097 125.238 81.3961 131.152L52.5208 102.277C65.8221 88.9718 84.202 80.7461 104.5 80.7461Z" fill="url(#paint2_linear_514_1408)"/>
<path d="M178.01 154.256H137.176C137.176 145.235 133.518 137.066 127.604 131.152L156.479 102.277C169.784 115.578 178.01 133.958 178.01 154.256Z" fill="url(#paint3_linear_514_1408)"/>
<path d="M178.01 154.256C178.01 174.554 169.784 192.934 156.479 206.235L127.604 177.36C133.518 171.446 137.176 163.277 137.176 154.256H178.01Z" fill="url(#paint4_linear_514_1408)"/>
<path d="M81.3962 177.36L52.5208 206.235C39.2161 192.934 30.9904 174.554 30.9904 154.256H71.8243C71.8243 163.277 75.4826 171.446 81.3962 177.36Z" fill="url(#paint5_linear_514_1408)"/>
<path d="M156.479 206.235C143.178 219.54 124.798 227.765 104.5 227.765V186.931C113.521 186.931 121.69 183.273 127.604 177.36L156.479 206.235Z" fill="url(#paint6_linear_514_1408)"/>
<path d="M104.5 186.931V227.765C84.202 227.765 65.8221 219.54 52.5208 206.235L81.3961 177.36C87.3097 183.273 95.4787 186.931 104.5 186.931Z" fill="url(#paint7_linear_514_1408)"/>
<path d="M143.931 114.825L127.604 131.152C121.69 125.238 113.521 121.58 104.5 121.58V98.4939C119.9 98.4939 133.837 104.734 143.931 114.825Z" fill="url(#paint8_linear_514_1408)"/>
<path d="M81.3962 131.152C75.4826 137.065 71.8244 145.234 71.8244 154.256H48.7382C48.7382 138.855 54.9784 124.919 65.069 114.825L81.3962 131.152Z" fill="url(#paint9_linear_514_1408)"/>
<path d="M104.5 98.4939V121.58C95.4787 121.58 87.3098 125.238 81.3962 131.152L65.069 114.825C75.163 104.734 89.0998 98.4939 104.5 98.4939Z" fill="url(#paint10_linear_514_1408)"/>
<path d="M160.262 154.256H137.176C137.176 145.234 133.518 137.065 127.604 131.152L143.931 114.825C154.021 124.919 160.262 138.855 160.262 154.256Z" fill="url(#paint11_linear_514_1408)"/>
<path d="M160.262 154.256C160.262 169.656 154.021 183.593 143.931 193.687L127.604 177.36C133.518 171.446 137.176 163.277 137.176 154.256H160.262Z" fill="url(#paint12_linear_514_1408)"/>
<path d="M81.3962 177.36L65.069 193.687C54.9787 183.593 48.7382 169.656 48.7382 154.256H71.8244C71.8244 163.277 75.4826 171.446 81.3962 177.36Z" fill="url(#paint13_linear_514_1408)"/>
<path d="M143.931 193.687C133.837 203.777 119.9 210.018 104.5 210.018V186.931C113.521 186.931 121.69 183.273 127.604 177.36L143.931 193.687Z" fill="url(#paint14_linear_514_1408)"/>
<path d="M104.5 186.931V210.018C89.0998 210.018 75.163 203.777 65.069 193.687L81.3962 177.36C87.3098 183.273 95.4787 186.931 104.5 186.931Z" fill="url(#paint15_linear_514_1408)"/>
<path d="M164.968 112.451L134.973 142.445C136.395 146.109 137.176 150.091 137.176 154.256C137.176 163.277 133.518 171.446 127.604 177.359C121.69 183.273 113.521 186.931 104.5 186.931C100.335 186.931 96.3529 186.15 92.6897 184.729L62.6953 214.723C74.5646 222.945 88.9695 227.765 104.5 227.765C124.798 227.765 143.178 219.539 156.48 206.235C169.784 192.934 178.01 174.554 178.01 154.256C178.01 138.725 173.19 124.32 164.968 112.451Z" fill="url(#paint16_linear_514_1408)"/>
<path d="M42.4538 184.667L26.7544 228.584C25.9949 230.709 28.0468 232.761 30.1716 232.001L74.0883 216.302C82.8502 207.54 51.2154 175.906 42.4538 184.667Z" fill="url(#paint17_linear_514_1408)"/>
<path d="M127.104 163.291L74.0876 216.302C73.2215 214.801 71.9053 213.473 70.2192 212.532C67.9156 211.256 64.3129 211.955 61.8187 212.711C61.2758 212.873 60.7793 212.59 60.5773 212.157C60.4503 211.897 60.4273 211.579 60.5657 211.268C60.5715 211.268 60.5715 211.262 60.5715 211.262C60.7102 210.945 60.8315 210.621 60.9354 210.298C60.9815 210.142 61.0277 209.986 61.0741 209.83C61.0799 209.818 61.0799 209.813 61.0799 209.801C61.2128 209.299 61.3051 208.797 61.357 208.283C61.3744 208.115 61.386 207.942 61.3974 207.775C61.4117 207.496 61.4145 207.217 61.4053 206.938C61.3421 204.986 60.7044 203.048 59.4918 201.401C59.1973 200.997 58.8683 200.616 58.5047 200.252C58.1408 199.888 57.7599 199.559 57.3557 199.264C55.4734 197.879 53.2101 197.244 50.9816 197.359C50.8142 197.371 50.641 197.382 50.4736 197.399C49.9597 197.451 49.4516 197.544 48.9551 197.677C48.9435 197.677 48.9377 197.677 48.9261 197.682C48.7703 197.728 48.6142 197.775 48.4584 197.821C48.291 197.873 48.1293 197.931 47.9677 197.994C47.8119 198.052 47.6558 198.116 47.5 198.185C47.4942 198.185 47.4942 198.185 47.4884 198.191C47.1764 198.329 46.859 198.306 46.5993 198.179C46.1664 197.977 45.8835 197.48 46.0451 196.938C46.8016 194.444 47.5 190.847 46.2241 188.543C45.2828 186.851 43.9609 185.535 42.454 184.669L95.465 131.653C97.8551 129.268 101.724 129.268 104.108 131.653L108.617 136.162L122.595 150.14L127.104 154.649C129.488 157.033 129.488 160.901 127.104 163.291Z" fill="url(#paint18_linear_514_1408)"/>
<path d="M122.595 150.139L60.5773 212.157C60.4502 211.897 60.4273 211.579 60.5657 211.267C60.5715 211.267 60.5715 211.262 60.5715 211.262C60.7102 210.944 61.3106 208.791 61.3567 208.283C61.3799 208.109 61.3912 207.942 61.397 207.775C61.5125 205.546 60.8774 203.283 59.4918 201.4C59.1973 200.996 58.8683 200.615 58.5047 200.251C58.1408 199.888 57.7599 199.559 57.3557 199.264C55.4734 197.878 53.2101 197.243 50.9816 197.359C50.8142 197.365 50.6468 197.376 50.4736 197.399C49.9655 197.445 49.4574 197.538 48.9551 197.676C48.9435 197.676 48.9377 197.676 48.9261 197.682C48.7703 197.722 47.6561 198.115 47.5 198.184C47.4942 198.184 47.4942 198.184 47.4884 198.19C47.1764 198.329 46.859 198.306 46.5993 198.179L108.617 136.161L122.595 150.139Z" fill="url(#paint19_linear_514_1408)"/>
<path d="M35.6194 223.137C33.9574 221.475 32.0998 220.141 30.135 219.128L26.7548 228.584C25.9953 230.709 28.0471 232.761 30.172 232.001L39.6281 228.621C38.615 226.656 37.2814 224.798 35.6194 223.137Z" fill="url(#paint20_linear_514_1408)"/>
<path d="M177.462 81.2942L113.445 145.311L104.081 135.946C102.04 133.905 102.04 130.596 104.081 128.554L109.682 122.954C112.099 120.536 113.457 117.257 113.457 113.839V106.859C113.457 101.368 116.936 96.4797 122.124 94.6802L174.473 76.522C177.371 75.5166 179.631 79.125 177.462 81.2942Z" fill="url(#paint21_linear_514_1408)"/>
<path d="M177.462 81.2942L113.445 145.311L122.81 154.675C124.851 156.716 128.161 156.716 130.202 154.675L135.803 149.074C138.22 146.657 141.499 145.299 144.918 145.299H151.897C157.388 145.299 162.276 141.821 164.076 136.633L182.234 84.2834C183.239 81.3856 179.631 79.125 177.462 81.2942Z" fill="url(#paint22_linear_514_1408)"/>
<path d="M147.301 114.461L179.456 82.3059C180.257 81.5054 180.352 80.2024 179.604 79.3518C178.786 78.4197 177.365 78.3855 176.501 79.2485L144.37 111.38C142.266 113.484 139.351 114.636 136.387 114.374C133.646 114.132 130.813 115.17 128.859 117.489C126.089 120.774 126.133 125.676 128.955 128.917C132.344 132.808 138.252 132.96 141.838 129.374C143.716 127.496 144.568 124.981 144.395 122.525C144.184 119.533 145.18 116.582 147.301 114.461Z" fill="url(#paint23_linear_514_1408)"/>
<path d="M112.914 117.537C112.307 119.564 111.205 121.43 109.682 122.953L104.081 128.554C102.04 130.595 102.04 133.905 104.081 135.946L113.445 145.311L122.81 154.675C124.851 156.716 128.161 156.716 130.202 154.675L135.803 149.074C137.326 147.551 139.192 146.449 141.219 145.842L112.914 117.537Z" fill="url(#paint24_linear_514_1408)"/>
<path d="M119.264 171.131L87.6251 139.492L100.234 126.883C101.695 125.422 104.062 125.422 105.522 126.883L131.873 153.234C133.334 154.694 133.334 157.062 131.873 158.522L119.264 171.131Z" fill="url(#paint25_linear_514_1408)"/>
</g>
<defs>
<filter id="filter0_d_514_1408" x="0.883721" y="0" width="207.233" height="296.826" filterUnits="userSpaceOnUse" color-interpolation-filters="sRGB">
<feFlood flood-opacity="0" result="BackgroundImageFix"/>
<feColorMatrix in="SourceAlpha" type="matrix" values="0 0 0 0 0 0 0 0 0 0 0 0 0 0 0 0 0 0 127 0" result="hardAlpha"/>
<feOffset dy="3.11628"/>
<feGaussianBlur stdDeviation="1.55814"/>
<feComposite in2="hardAlpha" operator="out"/>
<feColorMatrix type="matrix" values="0 0 0 0 0 0 0 0 0 0 0 0 0 0 0 0 0 0 0.25 0"/>
<feBlend mode="normal" in2="BackgroundImageFix" result="effect1_dropShadow_514_1408"/>
<feBlend mode="normal" in="SourceGraphic" in2="effect1_dropShadow_514_1408" result="shape"/>
</filter>
<linearGradient id="paint0_linear_514_1408" x1="96.5432" y1="77.9818" x2="145.142" y2="126.58" gradientUnits="userSpaceOnUse">
<stop stop-color="#FFF5D9"/>
<stop offset="1" stop-color="#FFCE47"/>
</linearGradient>
<linearGradient id="paint1_linear_514_1408" x1="40.3591" y1="126.87" x2="62.1122" y2="148.623" gradientUnits="userSpaceOnUse">
<stop stop-color="#6FA953"/>
<stop offset="1" stop-color="#43765A"/>
</linearGradient>
<linearGradient id="paint2_linear_514_1408" x1="75.8354" y1="88.8362" x2="104.423" y2="117.424" gradientUnits="userSpaceOnUse">
<stop stop-color="#E4E08E"/>
<stop offset="1" stop-color="#6FA953"/>
</linearGradient>
<linearGradient id="paint3_linear_514_1408" x1="127.974" y1="109.412" x2="174.372" y2="155.811" gradientUnits="userSpaceOnUse">
<stop stop-color="#FFCE47"/>
<stop offset="1" stop-color="#FF9356"/>
</linearGradient>
<linearGradient id="paint4_linear_514_1408" x1="138.281" y1="151.282" x2="165.179" y2="178.18" gradientUnits="userSpaceOnUse">
<stop stop-color="#FF9356"/>
<stop offset="1" stop-color="#FF755C"/>
</linearGradient>
<linearGradient id="paint5_linear_514_1408" x1="36.4833" y1="154.556" x2="68.134" y2="186.207" gradientUnits="userSpaceOnUse">
<stop stop-color="#7ACBFF"/>
<stop offset="1" stop-color="#45A2E0"/>
</linearGradient>
<linearGradient id="paint6_linear_514_1408" x1="104.448" y1="190.959" x2="131.001" y2="217.511" gradientUnits="userSpaceOnUse">
<stop stop-color="#FF755C"/>
<stop offset="1" stop-color="#FF4181"/>
</linearGradient>
<linearGradient id="paint7_linear_514_1408" x1="59.1239" y1="177.196" x2="123.33" y2="241.403" gradientUnits="userSpaceOnUse">
<stop stop-color="#FF4181"/>
<stop offset="1" stop-color="#843561"/>
</linearGradient>
<linearGradient id="paint8_linear_514_1408" x1="133.852" y1="127.839" x2="103.942" y2="97.9284" gradientUnits="userSpaceOnUse">
<stop stop-color="#FFF5D9"/>
<stop offset="1" stop-color="#FFCE47"/>
</linearGradient>
<linearGradient id="paint9_linear_514_1408" x1="74.7546" y1="152.391" x2="37.6831" y2="115.32" gradientUnits="userSpaceOnUse">
<stop stop-color="#6FA953"/>
<stop offset="1" stop-color="#43765A"/>
</linearGradient>
<linearGradient id="paint10_linear_514_1408" x1="100.682" y1="122.557" x2="67.6904" y2="89.5651" gradientUnits="userSpaceOnUse">
<stop stop-color="#E4E08E"/>
<stop offset="1" stop-color="#6FA953"/>
</linearGradient>
<linearGradient id="paint11_linear_514_1408" x1="159.91" y1="153.897" x2="125.082" y2="119.069" gradientUnits="userSpaceOnUse">
<stop stop-color="#FFCE47"/>
<stop offset="1" stop-color="#FF9356"/>
</linearGradient>
<linearGradient id="paint12_linear_514_1408" x1="157.509" y1="179.384" x2="134.241" y2="156.116" gradientUnits="userSpaceOnUse">
<stop stop-color="#FF9356"/>
<stop offset="1" stop-color="#FF755C"/>
</linearGradient>
<linearGradient id="paint13_linear_514_1408" x1="83.8966" y1="189.421" x2="40.9365" y2="146.461" gradientUnits="userSpaceOnUse">
<stop stop-color="#7ACBFF"/>
<stop offset="1" stop-color="#45A2E0"/>
</linearGradient>
<linearGradient id="paint14_linear_514_1408" x1="130.871" y1="208.508" x2="99.559" y2="177.196" gradientUnits="userSpaceOnUse">
<stop stop-color="#FF755C"/>
<stop offset="1" stop-color="#FF4181"/>
</linearGradient>
<linearGradient id="paint15_linear_514_1408" x1="105.207" y1="210.731" x2="66.9926" y2="172.517" gradientUnits="userSpaceOnUse">
<stop stop-color="#FF4181"/>
<stop offset="1" stop-color="#843561"/>
</linearGradient>
<linearGradient id="paint16_linear_514_1408" x1="136.061" y1="185.817" x2="113.853" y2="163.608" gradientUnits="userSpaceOnUse">
<stop stop-color="#843561" stop-opacity="0"/>
<stop offset="1" stop-color="#3A2F4D"/>
</linearGradient>
<linearGradient id="paint17_linear_514_1408" x1="30.3337" y1="196.778" x2="61.9638" y2="228.409" gradientUnits="userSpaceOnUse">
<stop stop-color="#FFE0EA"/>
<stop offset="1" stop-color="#FFC0D5"/>
</linearGradient>
<linearGradient id="paint18_linear_514_1408" x1="42.454" y1="173.083" x2="128.892" y2="173.083" gradientUnits="userSpaceOnUse">
<stop stop-color="#FFCE47"/>
<stop offset="1" stop-color="#FF9356"/>
</linearGradient>
<linearGradient id="paint19_linear_514_1408" x1="97.7231" y1="187.285" x2="65.7876" y2="155.35" gradientUnits="userSpaceOnUse">
<stop stop-color="#FFCE47"/>
<stop offset="1" stop-color="#FF9356"/>
</linearGradient>
<linearGradient id="paint20_linear_514_1408" x1="30.5846" y1="226.248" x2="38.6552" y2="234.319" gradientUnits="userSpaceOnUse">
<stop stop-color="#2F73A0"/>
<stop offset="1" stop-color="#174461"/>
</linearGradient>
<linearGradient id="paint21_linear_514_1408" x1="139.007" y1="103.695" x2="143.172" y2="110.538" gradientUnits="userSpaceOnUse">
<stop stop-color="#EDF5FF"/>
<stop offset="1" stop-color="#C7E9FF"/>
</linearGradient>
<linearGradient id="paint22_linear_514_1408" x1="149.585" y1="116.862" x2="155.238" y2="126.977" gradientUnits="userSpaceOnUse">
<stop stop-color="#EDF5FF"/>
<stop offset="1" stop-color="#C7E9FF"/>
</linearGradient>
<linearGradient id="paint23_linear_514_1408" x1="160.265" y1="110.096" x2="150.559" y2="100.39" gradientUnits="userSpaceOnUse">
<stop stop-color="#2F73A0"/>
<stop offset="1" stop-color="#174461"/>
</linearGradient>
<linearGradient id="paint24_linear_514_1408" x1="123.488" y1="135.263" x2="118.185" y2="140.565" gradientUnits="userSpaceOnUse">
<stop stop-color="#7ACBFF" stop-opacity="0"/>
<stop offset="1" stop-color="#2F73A0"/>
</linearGradient>
<linearGradient id="paint25_linear_514_1408" x1="113.55" y1="143.003" x2="105.294" y2="156.262" gradientUnits="userSpaceOnUse">
<stop stop-color="#2F73A0"/>
<stop offset="1" stop-color="#174461"/>
</linearGradient>
<clipPath id="clip0_514_1408">
<rect width="155.814" height="155.814" fill="white" transform="translate(26.593 76.3489)"/>
</clipPath>
</defs>
</svg>
