<svg width="209" height="298" viewBox="0 0 209 298" fill="none" xmlns="http://www.w3.org/2000/svg">
<g filter="url(#filter0_d_514_1448)">
<rect x="4" width="201" height="291.724" rx="100.5" fill="#954BC2"/>
</g>
<g clip-path="url(#clip0_514_1448)">
<path d="M111.639 209.653C146.494 209.653 174.749 181.398 174.749 146.544C174.749 111.689 146.494 83.4338 111.639 83.4338C76.7849 83.4338 48.5297 111.689 48.5297 146.544C48.5297 181.398 76.7849 209.653 111.639 209.653Z" fill="url(#paint0_linear_514_1448)"/>
<path d="M154.952 84.2314C154.952 84.2314 119.689 119.495 119.686 119.498L109.502 146.464C109.272 147.107 109.439 147.741 109.823 148.182L164.435 202.776C179.417 188.705 188.777 168.719 188.777 146.543C188.777 119.997 175.367 98.1096 154.952 84.2314Z" fill="url(#paint1_linear_514_1448)"/>
<path d="M111.639 69.406C69.0382 69.406 34.5018 103.943 34.5018 146.544C34.5018 189.144 69.0382 223.681 111.639 223.681C154.241 223.681 188.777 189.145 188.777 146.544C188.777 103.942 154.24 69.406 111.639 69.406ZM111.639 205.499C79.0801 205.499 52.6843 179.103 52.6843 146.544C52.6843 113.984 79.0801 87.5885 111.639 87.5885C144.199 87.5885 170.594 113.984 170.594 146.544C170.594 179.103 144.199 205.499 111.639 205.499Z" fill="url(#paint2_linear_514_1448)"/>
<path d="M111.64 106.122C89.3162 106.122 71.2175 124.22 71.2175 146.544C71.2175 168.867 89.3162 186.966 111.64 186.966C133.963 186.966 152.062 168.867 152.062 146.544C152.062 124.22 133.963 106.122 111.64 106.122ZM111.64 167.538C100.044 167.538 90.6458 158.14 90.6458 146.544C90.6458 134.948 100.044 125.55 111.64 125.55C123.235 125.55 132.633 134.948 132.633 146.544C132.633 158.14 123.235 167.538 111.64 167.538Z" fill="url(#paint3_linear_514_1448)"/>
<path d="M111.639 154.543C116.057 154.543 119.639 150.962 119.639 146.544C119.639 142.125 116.057 138.544 111.639 138.544C107.221 138.544 103.639 142.125 103.639 146.544C103.639 150.962 107.221 154.543 111.639 154.543Z" fill="url(#paint4_linear_514_1448)"/>
<path d="M176.503 104.78C169.947 96.4529 162.412 89.2987 154.953 84.2322C154.953 84.2322 149.422 89.7636 142.74 96.4452C159.463 106.853 170.595 125.397 170.595 146.543C170.595 163.701 163.265 179.145 151.567 189.914L164.435 202.778C179.417 188.71 188.777 168.718 188.777 146.543C188.777 131.153 184.27 116.815 176.503 104.78Z" fill="url(#paint5_linear_514_1448)"/>
<path d="M129.102 110.083C123.742 115.443 119.685 119.496 119.685 119.496L117.125 126.277C126.062 128.685 132.633 136.845 132.633 146.544C132.633 153.221 129.517 159.168 124.66 163.016L138.442 176.794C146.796 169.396 152.061 158.585 152.061 146.544C152.062 130.475 142.683 116.593 129.102 110.083Z" fill="url(#paint6_linear_514_1448)"/>
<path d="M112.477 138.589L109.502 146.463C109.274 147.107 109.438 147.739 109.822 148.181L115.3 153.659C117.879 152.33 119.639 149.644 119.639 146.544C119.639 142.406 116.5 139.004 112.477 138.589Z" fill="url(#paint7_linear_514_1448)"/>
<path d="M119.687 117.974L111.695 140.329L110.705 146.544C110.213 147.922 117.854 146.488 117.854 146.488L140.209 138.496C145.894 132.812 125.371 112.289 119.687 117.974Z" fill="url(#paint8_linear_514_1448)"/>
<path d="M189.762 88.9464L140.209 138.496C139.647 137.522 138.793 136.661 137.699 136.05C136.205 135.222 133.868 135.676 132.25 136.166C131.897 136.271 131.575 136.088 131.444 135.807C131.362 135.638 131.347 135.432 131.437 135.23C131.44 135.23 131.44 135.226 131.44 135.226C131.53 135.02 131.609 134.81 131.676 134.601C131.706 134.5 131.736 134.399 131.766 134.298C131.77 134.29 131.77 134.286 131.77 134.279C131.856 133.953 131.916 133.627 131.95 133.294C131.961 133.185 131.968 133.073 131.976 132.964C131.985 132.783 131.987 132.602 131.981 132.421C131.94 131.155 131.526 129.897 130.74 128.829C130.549 128.567 130.335 128.32 130.1 128.084C129.863 127.848 129.616 127.634 129.354 127.443C128.133 126.544 126.665 126.132 125.219 126.207C125.111 126.215 124.998 126.222 124.889 126.233C124.556 126.267 124.226 126.327 123.904 126.413C123.897 126.413 123.893 126.413 123.886 126.417C123.784 126.447 123.683 126.477 123.582 126.507C123.474 126.54 123.369 126.578 123.264 126.619C123.163 126.656 123.062 126.697 122.961 126.742C122.957 126.742 122.957 126.742 122.953 126.746C122.751 126.836 122.545 126.821 122.376 126.739C122.095 126.608 121.912 126.285 122.017 125.933C122.508 124.315 122.961 121.982 122.133 120.487C121.522 119.39 120.665 118.536 119.687 117.974L169.237 68.421C170.787 66.874 173.297 66.874 174.844 68.421L177.769 71.3464L186.837 80.4145L189.763 83.3398C191.309 84.8862 191.309 87.396 189.762 88.9464Z" fill="url(#paint9_linear_514_1448)"/>
<path d="M186.837 80.414L131.444 135.807C131.362 135.638 131.347 135.432 131.437 135.23C131.441 135.23 131.441 135.226 131.441 135.226C131.531 135.02 131.92 133.623 131.95 133.293C131.965 133.181 131.973 133.072 131.977 132.964C132.051 131.518 131.639 130.05 130.741 128.829C130.549 128.566 130.336 128.319 130.1 128.083C129.864 127.847 129.617 127.634 129.355 127.443C128.134 126.544 126.666 126.132 125.22 126.207C125.111 126.21 125.003 126.218 124.89 126.233C124.56 126.263 124.231 126.323 123.905 126.413C123.898 126.413 123.894 126.413 123.886 126.416C123.785 126.442 123.062 126.697 122.961 126.742C122.958 126.742 122.958 126.742 122.954 126.746C122.751 126.836 122.546 126.821 122.377 126.738L177.769 71.3459L186.837 80.414Z" fill="url(#paint10_linear_514_1448)"/>
<path d="M115.253 142.93C114.175 141.852 112.97 140.987 111.695 140.329L109.502 146.464C109.009 147.842 110.34 149.174 111.719 148.681L117.853 146.488C117.196 145.213 116.331 144.008 115.253 142.93Z" fill="url(#paint11_linear_514_1448)"/>
</g>
<defs>
<filter id="filter0_d_514_1448" x="0.871595" y="0" width="207.257" height="297.98" filterUnits="userSpaceOnUse" color-interpolation-filters="sRGB">
<feFlood flood-opacity="0" result="BackgroundImageFix"/>
<feColorMatrix in="SourceAlpha" type="matrix" values="0 0 0 0 0 0 0 0 0 0 0 0 0 0 0 0 0 0 127 0" result="hardAlpha"/>
<feOffset dy="3.1284"/>
<feGaussianBlur stdDeviation="1.5642"/>
<feComposite in2="hardAlpha" operator="out"/>
<feColorMatrix type="matrix" values="0 0 0 0 0 0 0 0 0 0 0 0 0 0 0 0 0 0 0.25 0"/>
<feBlend mode="normal" in2="BackgroundImageFix" result="effect1_dropShadow_514_1448"/>
<feBlend mode="normal" in="SourceGraphic" in2="effect1_dropShadow_514_1448" result="shape"/>
</filter>
<linearGradient id="paint0_linear_514_1448" x1="86.3945" y1="121.299" x2="171.407" y2="206.311" gradientUnits="userSpaceOnUse">
<stop stop-color="white"/>
<stop offset="1" stop-color="#C7E9FF"/>
</linearGradient>
<linearGradient id="paint1_linear_514_1448" x1="163.401" y1="151.709" x2="141.814" y2="125.043" gradientUnits="userSpaceOnUse">
<stop stop-color="#7ACBFF" stop-opacity="0"/>
<stop offset="1" stop-color="#2F73A0"/>
</linearGradient>
<linearGradient id="paint2_linear_514_1448" x1="80.7832" y1="115.687" x2="184.691" y2="219.595" gradientUnits="userSpaceOnUse">
<stop stop-color="#FF4181"/>
<stop offset="1" stop-color="#843561"/>
</linearGradient>
<linearGradient id="paint3_linear_514_1448" x1="95.4703" y1="130.374" x2="149.92" y2="184.825" gradientUnits="userSpaceOnUse">
<stop stop-color="#FF4181"/>
<stop offset="1" stop-color="#843561"/>
</linearGradient>
<linearGradient id="paint4_linear_514_1448" x1="108.439" y1="143.343" x2="119.216" y2="154.12" gradientUnits="userSpaceOnUse">
<stop stop-color="#FF4181"/>
<stop offset="1" stop-color="#843561"/>
</linearGradient>
<linearGradient id="paint5_linear_514_1448" x1="173.266" y1="156.027" x2="144.949" y2="127.709" gradientUnits="userSpaceOnUse">
<stop stop-color="#843561" stop-opacity="0"/>
<stop offset="1" stop-color="#3A2F4D"/>
</linearGradient>
<linearGradient id="paint6_linear_514_1448" x1="160.622" y1="168.67" x2="132.305" y2="140.353" gradientUnits="userSpaceOnUse">
<stop stop-color="#843561" stop-opacity="0"/>
<stop offset="1" stop-color="#3A2F4D"/>
</linearGradient>
<linearGradient id="paint7_linear_514_1448" x1="149.159" y1="180.133" x2="120.842" y2="151.816" gradientUnits="userSpaceOnUse">
<stop stop-color="#843561" stop-opacity="0"/>
<stop offset="1" stop-color="#3A2F4D"/>
</linearGradient>
<linearGradient id="paint8_linear_514_1448" x1="112.419" y1="125.302" x2="132.939" y2="145.822" gradientUnits="userSpaceOnUse">
<stop stop-color="#FFE0EA"/>
<stop offset="1" stop-color="#FFC0D5"/>
</linearGradient>
<linearGradient id="paint9_linear_514_1448" x1="119.687" y1="102.879" x2="190.922" y2="102.879" gradientUnits="userSpaceOnUse">
<stop stop-color="#FFCE47"/>
<stop offset="1" stop-color="#FF9356"/>
</linearGradient>
<linearGradient id="paint10_linear_514_1448" x1="163.122" y1="112.092" x2="142.404" y2="91.3742" gradientUnits="userSpaceOnUse">
<stop stop-color="#FFCE47"/>
<stop offset="1" stop-color="#FF9356"/>
</linearGradient>
<linearGradient id="paint11_linear_514_1448" x1="112.013" y1="144.988" x2="117.249" y2="150.224" gradientUnits="userSpaceOnUse">
<stop stop-color="#2F73A0"/>
<stop offset="1" stop-color="#174461"/>
</linearGradient>
<clipPath id="clip0_514_1448">
<rect width="156.42" height="156.42" fill="white" transform="translate(34.5019 67.2607)"/>
</clipPath>
</defs>
</svg>
