<svg width="48" height="48" viewBox="0 0 48 48" fill="none" xmlns="http://www.w3.org/2000/svg">
<path d="M48 45.8858C47.9996 44.1917 46.9922 42.6683 45.4332 42.0051L33.4756 36.9176V33.9363C34.7416 32.3469 35.5421 30.454 35.8102 28.4215H38.2547C40.5809 28.4215 42.4735 26.5289 42.4735 24.2027V18.1547C42.4735 16.0277 40.8907 14.2644 38.8414 13.9776C38.5374 4.8278 33.4218 0 24.0002 0C14.5786 0 9.46296 4.8278 9.15901 13.9776C7.10967 14.2644 5.5269 16.0277 5.5269 18.1547V24.2027C5.5269 26.5289 7.41949 28.4215 9.74568 28.4215H12.1902C12.4582 30.4543 13.2588 32.3473 14.5248 33.9363V36.9176L2.56752 42.0051C1.00819 42.6683 0.000732427 44.1917 0 45.8862V46.5934C0 46.9665 0.14795 47.3243 0.41199 47.588C0.675664 47.8517 1.03346 48 1.40626 48H46.5941C46.9673 48 47.3251 47.8517 47.5887 47.588C47.8524 47.324 48.0004 46.9662 48.0004 46.5934L48 45.8858ZM30.6645 37.9042C30.6656 37.9379 30.7444 41.351 28.7284 43.4505C27.6213 44.603 26.0305 45.1871 24.0002 45.1871C21.9772 45.1871 20.3904 44.607 19.2841 43.463C17.2439 41.3525 17.3351 37.9339 17.3358 37.9042C17.3369 37.8852 17.3373 37.8665 17.3373 37.8475V36.4551C19.2628 37.6735 21.5597 38.3279 24.0002 38.3279C26.4406 38.3279 28.7375 37.6735 30.6631 36.4551V37.8475C30.6631 37.8665 30.6634 37.8852 30.6645 37.9042ZM33.0984 26.2627L30.4232 28.0465C29.5736 28.613 28.5844 28.9126 27.5627 28.9126H25.1842C24.4078 28.9126 23.7779 29.5421 23.7779 30.3188C23.7779 31.0956 24.4078 31.7251 25.1842 31.7251H27.5627C29.1415 31.7251 30.6704 31.2622 31.9836 30.3862L32.522 30.0273C31.253 33.3016 28.0077 35.5154 24.0002 35.5154C18.8135 35.5154 14.902 31.8075 14.902 26.8903V15.4897C15.4564 12.9123 16.2595 11.2743 17.2278 10.7491C18.192 10.2254 19.5932 10.77 20.9482 11.2962C22.004 11.706 23.0012 12.0935 24.0002 12.0935C25.0084 12.0935 25.9935 11.702 27.0368 11.2878C28.3933 10.7487 29.6747 10.2397 30.6239 10.7348C31.3157 11.0955 32.3019 12.2187 33.0984 15.5077V26.2627ZM39.6609 18.1547V24.2027C39.6609 24.978 39.03 25.609 38.2547 25.609H35.9109V16.7484H38.2547C39.03 16.7484 39.6609 17.3794 39.6609 18.1547ZM14.4786 6.25749C16.4262 3.97159 19.6294 2.81252 24.0002 2.81252C28.3709 2.81252 31.5742 3.97159 33.5217 6.25749C35.0551 8.05743 35.8952 10.6381 36.0252 13.9359H35.5938C34.7445 10.9198 33.5661 9.09712 31.9243 8.24091C29.8329 7.15032 27.7066 7.99481 25.9982 8.67377C25.2468 8.97224 24.4697 9.28095 23.9998 9.28095C23.5278 9.28095 22.7338 8.9726 21.9662 8.6745C20.1974 7.98712 17.9957 7.13201 15.886 8.2768C14.2952 9.14033 13.1434 10.9974 12.3806 13.9359H11.9752C12.1048 10.6381 12.9453 8.05743 14.4786 6.25749ZM8.33942 24.2027V18.1547C8.33942 17.3794 8.97041 16.7484 9.74568 16.7484H12.0894V25.609H9.74568C8.97041 25.609 8.33942 24.978 8.33942 24.2027ZM3.66836 44.5931L14.6859 39.9056C14.9327 41.4316 15.5458 43.508 17.0487 45.1875H2.99856C3.14761 44.9271 3.37979 44.7158 3.66836 44.5931ZM30.9517 45.1875C32.4546 43.508 33.0676 41.4316 33.3145 39.9056L44.332 44.5931C44.6206 44.7158 44.8524 44.9271 45.0018 45.1875H30.9517Z" fill="white"/>
</svg>
