<svg width="75" height="48" viewBox="0 0 75 48" fill="none" xmlns="http://www.w3.org/2000/svg">
<path d="M27.6476 24.0317C27.6476 32.0745 31.6918 39.1906 37.8494 43.4539C43.9705 39.1222 47.9691 31.9878 47.9691 23.9176C47.9691 15.8474 44.0344 8.83627 38.0001 4.49536C31.7512 8.74954 27.6431 15.9159 27.6431 24.0317H27.6476Z" fill="#666666"/>
<path d="M24.352 24.0325C24.352 15.3187 28.5194 7.55894 34.9646 2.63834C31.6918 0.958573 27.9854 0 24.0507 0C10.8409 0 0.127808 10.7085 0.127808 23.9229C0.127808 37.1374 10.8363 47.8458 24.0507 47.8458C27.9169 47.8458 31.564 46.9238 34.7957 45.2943C28.451 40.3645 24.352 32.6732 24.352 24.0325Z" fill="#666666"/>
<path d="M51.2647 47.5254C38.3104 47.5254 27.7754 36.9858 27.7754 24.0361C27.7754 11.0864 38.315 0.546753 51.2647 0.546753C64.2144 0.546753 74.754 11.0864 74.754 24.0361C74.754 36.9858 64.2144 47.5254 51.2647 47.5254ZM51.2647 3.83782C40.1271 3.83782 31.071 12.8985 31.071 24.0361C31.071 35.1736 40.1317 44.2297 51.2647 44.2297C62.3977 44.2297 71.4629 35.1691 71.4629 24.0361C71.4629 12.9031 62.4022 3.83782 51.2647 3.83782Z" fill="#666666"/>
</svg>
