<svg width="72" height="72" viewBox="0 0 72 72" fill="none" xmlns="http://www.w3.org/2000/svg">
<g clip-path="url(#clip0_530_2277)">
<path d="M72 36C72 55.8825 55.8825 72 36 72C16.1175 72 0 55.8825 0 36C0 16.1175 16.1175 0 36 0C55.8825 0 72 16.1175 72 36Z" fill="#0069A3"/>
<path d="M26.0821 57.0278H45.9179V65.8438H26.0821V57.0278Z" fill="#87A8E6"/>
<path d="M68.2888 12.7881V51.9368C66.9353 54.6746 65.244 57.2146 63.2692 59.5025C63.0401 59.5305 62.8077 59.5453 62.5715 59.5453H9.42957C9.19281 59.5453 8.961 59.5305 8.73138 59.5025C6.75494 57.2135 5.06415 54.6746 3.71228 51.9368V12.7881C3.71228 9.63007 6.27155 7.0708 9.42957 7.0708H62.5715C65.729 7.0708 68.2888 9.63007 68.2888 12.7881Z" fill="#D4E4FF"/>
<path d="M65.35 12.788V48.6848C65.35 50.2173 64.1025 51.4637 62.5715 51.4637H9.42957C7.89697 51.4637 6.65112 50.2173 6.65112 48.6848V12.788C6.65112 11.2554 7.89697 10.009 9.42957 10.009H62.5715C64.1025 10.009 65.35 11.2554 65.35 12.788Z" fill="#244477"/>
<path d="M52.4515 67.7565C52.4515 67.8504 52.4487 67.9427 52.4416 68.0355C47.5131 70.5701 41.9233 71.9999 36.0005 71.9999C30.0756 71.9999 24.4863 70.5684 19.5579 68.0339C19.5507 67.9416 19.548 67.8488 19.548 67.7565C19.548 66.5853 20.0226 65.524 20.7911 64.7556C21.5596 63.9871 22.6203 63.5125 23.7914 63.5125H48.208C50.5519 63.5125 52.4515 65.4125 52.4515 67.7565Z" fill="#D4E4FF"/>
<path d="M23.0109 30.0426H12.1349C11.2967 30.0426 10.6166 29.3625 10.6166 28.5243C10.6166 27.6855 11.2967 27.006 12.1349 27.006H23.0109C23.8497 27.006 24.5292 27.6855 24.5292 28.5243C24.5292 29.3625 23.8497 30.0426 23.0109 30.0426Z" fill="white"/>
<path d="M23.0109 35.9912H12.1349C11.2967 35.9912 10.6166 35.3112 10.6166 34.4729C10.6166 33.6341 11.2967 32.9546 12.1349 32.9546H23.0109C23.8497 32.9546 24.5292 33.6341 24.5292 34.4729C24.5292 35.3112 23.8497 35.9912 23.0109 35.9912Z" fill="#0069A3"/>
<path d="M23.0109 41.9397H12.1349C11.2967 41.9397 10.6166 41.2596 10.6166 40.4214C10.6166 39.5826 11.2967 38.9031 12.1349 38.9031H23.0109C23.8497 38.9031 24.5292 39.5826 24.5292 40.4214C24.5292 41.2596 23.8497 41.9397 23.0109 41.9397Z" fill="#FCD971"/>
<path d="M23.0109 47.8883H12.1349C11.2967 47.8883 10.6166 47.2083 10.6166 46.37C10.6166 45.5312 11.2967 44.8517 12.1349 44.8517H23.0109C23.8497 44.8517 24.5292 45.5312 24.5292 46.37C24.5292 47.2083 23.8497 47.8883 23.0109 47.8883Z" fill="#0069A3"/>
<path d="M59.9024 30.0426H32.0317C31.1935 30.0426 30.5134 29.3625 30.5134 28.5243C30.5134 27.6855 31.1935 27.006 32.0317 27.006H59.9024C60.7412 27.006 61.4207 27.6855 61.4207 28.5243C61.4207 29.3625 60.7412 30.0426 59.9024 30.0426Z" fill="#228BD1"/>
<path d="M59.9024 35.9912H32.0317C31.1935 35.9912 30.5134 35.3112 30.5134 34.4729C30.5134 33.6341 31.1935 32.9546 32.0317 32.9546H59.9024C60.7412 32.9546 61.4207 33.6341 61.4207 34.4729C61.4207 35.3112 60.7412 35.9912 59.9024 35.9912Z" fill="#FF4079"/>
<path d="M59.9024 41.9397H32.0317C31.1935 41.9397 30.5134 41.2596 30.5134 40.4214C30.5134 39.5826 31.1935 38.9031 32.0317 38.9031H59.9024C60.7412 38.9031 61.4207 39.5826 61.4207 40.4214C61.4207 41.2596 60.7412 41.9397 59.9024 41.9397Z" fill="white"/>
<path d="M59.9024 47.8883H32.0317C31.1935 47.8883 30.5134 47.2083 30.5134 46.37C30.5134 45.5312 31.1935 44.8517 32.0317 44.8517H59.9024C60.7412 44.8517 61.4207 45.5312 61.4207 46.37C61.4207 47.2083 60.7412 47.8883 59.9024 47.8883Z" fill="#FCD971"/>
<path d="M25.4965 19.1991L29.7631 16.4278C29.8471 16.3602 29.9647 16.3438 30.0822 16.3438C30.5865 16.3438 31.2248 16.881 31.2248 17.5698C31.2248 17.8555 31.1072 18.1076 30.9221 18.2252L27.9657 20.1401L30.9221 22.055C31.1072 22.1725 31.2248 22.4247 31.2248 22.7103C31.2248 23.3992 30.5865 23.937 30.0822 23.937C29.9647 23.937 29.8471 23.9199 29.7631 23.8529L25.4965 21.0811C25.1098 20.8289 24.9758 20.4257 24.9758 20.1401C24.9758 19.8544 25.1098 19.4512 25.4965 19.1991Z" fill="white"/>
<path d="M39.7914 12.715C39.7914 12.8161 39.7749 12.9337 39.7244 13.0342L33.8115 25.1461C33.694 25.3982 33.3748 25.5657 33.0551 25.5657C32.4844 25.5657 32.1147 25.0955 32.1147 24.6758C32.1147 24.5748 32.1482 24.4572 32.1987 24.3567L38.0951 12.2448C38.2297 11.9592 38.4983 11.8246 38.8004 11.8246C39.2706 11.8246 39.7914 12.1778 39.7914 12.715Z" fill="white"/>
<path d="M46.4101 21.0806L42.143 23.8524C42.059 23.92 41.9414 23.9365 41.8239 23.9365C41.3201 23.9365 40.6818 23.3992 40.6818 22.7104C40.6818 22.4247 40.7994 22.1726 40.9839 22.0551L43.9409 20.1401L40.9839 18.2252C40.7994 18.1077 40.6818 17.8555 40.6818 17.5699C40.6818 16.881 41.3201 16.3433 41.8239 16.3433C41.9414 16.3433 42.059 16.3603 42.143 16.4273L46.4101 19.1992C46.7963 19.4513 46.9308 19.8545 46.9308 20.1401C46.9308 20.4252 46.7963 20.829 46.4101 21.0806Z" fill="white"/>
</g>
<defs>
<clipPath id="clip0_530_2277">
<rect width="72" height="72" fill="white"/>
</clipPath>
</defs>
</svg>
