<svg width="48" height="48" viewBox="0 0 48 48" fill="none" xmlns="http://www.w3.org/2000/svg">
<path d="M31.5 33.75H16.5C10.5552 33.75 5.71875 38.5865 5.71875 44.5312V46.5938C5.71875 47.3704 6.34837 48 7.125 48H40.875C41.6516 48 42.2812 47.3704 42.2812 46.5938V44.5312C42.2812 38.5865 37.4448 33.75 31.5 33.75Z" fill="#FF8659"/>
<path d="M31.5 33.75H24V48H40.875C41.6516 48 42.2812 47.3704 42.2812 46.5938V44.5312C42.2812 38.5865 37.4448 33.75 31.5 33.75Z" fill="#FF4A4A"/>
<path d="M27.75 30.9375H20.25C19.4734 30.9375 18.8438 31.5671 18.8438 32.3438V35.1562C18.8438 37.9994 21.1568 40.3125 24 40.3125C26.8432 40.3125 29.1562 37.9994 29.1562 35.1562V32.3438C29.1562 31.5671 28.5266 30.9375 27.75 30.9375Z" fill="#FFF5F5"/>
<path d="M27.75 30.9375H24V40.3125C26.8432 40.3125 29.1562 37.9994 29.1562 35.1562V32.3438C29.1562 31.5671 28.5266 30.9375 27.75 30.9375Z" fill="#D7D4EB"/>
<path d="M24 5.625C24.7766 5.625 25.4062 4.99538 25.4062 4.21875V1.40625C25.4062 0.629625 24.7766 0 24 0C23.2234 0 22.5938 0.629625 22.5938 1.40625V4.21875C22.5938 4.99538 23.2234 5.625 24 5.625Z" fill="#FFF79F"/>
<path d="M13.4072 4.62141L14.8134 7.05713C15.2018 7.72969 16.0618 7.96013 16.7344 7.57182C17.4069 7.1835 17.6374 6.32344 17.2491 5.65088L15.8428 3.21516C15.4545 2.5426 14.5944 2.31216 13.9219 2.70047C13.2493 3.08879 13.0189 3.94885 13.4072 4.62141Z" fill="#FFF79F"/>
<path d="M7.05891 11.9991L9.49463 13.4053C10.1672 13.7936 11.0273 13.5632 11.4156 12.8906C11.8039 12.2181 11.5734 11.358 10.9009 10.9697L8.46516 9.56345C7.7926 9.17514 6.93254 9.40557 6.54422 10.0781C6.15591 10.7507 6.38635 11.6108 7.05891 11.9991Z" fill="#FFF79F"/>
<path d="M39.5348 9.56345L37.0991 10.9697C36.4266 11.358 36.1961 12.2181 36.5844 12.8906C36.9728 13.5632 37.8328 13.7936 38.5054 13.4053L40.9411 11.9991C41.6137 11.6108 41.8441 10.7507 41.4558 10.0781C41.0675 9.40557 40.2074 9.17514 39.5348 9.56345Z" fill="#FFDE55"/>
<path d="M31.2656 7.57182C31.9382 7.96013 32.7983 7.72969 33.1866 7.05713L34.5928 4.62141C34.9811 3.94885 34.7507 3.08879 34.0781 2.70047C33.4056 2.31216 32.5455 2.5426 32.1572 3.21516L30.7509 5.65088C30.3626 6.32344 30.5931 7.1835 31.2656 7.57182Z" fill="#FFDE55"/>
<path d="M29.1562 32.0342C29.1562 31.2321 29.5722 30.4895 30.2688 30.0478C33.6814 27.8844 35.7188 24.1866 35.7188 20.1562C35.7188 13.6945 30.4617 8.4375 24 8.4375C17.5383 8.4375 12.2812 13.6945 12.2812 20.1562C12.2812 24.1866 14.3186 27.8844 17.7312 30.0478C18.4279 30.4895 18.8438 31.2321 18.8438 32.0342V32.3438H29.1562V32.0342Z" fill="#FFF79F"/>
<path d="M24 8.4375V32.3438H29.1562V32.0342C29.1562 31.2321 29.5722 30.4895 30.2688 30.0478C33.6814 27.8844 35.7188 24.1866 35.7188 20.1562C35.7188 13.6945 30.4617 8.4375 24 8.4375Z" fill="#FFDE55"/>
<path d="M27.8069 19.1618C27.2577 18.6126 26.3674 18.6126 25.8182 19.1618L24 20.98L22.1819 19.1619C21.6327 18.6127 20.7424 18.6127 20.1932 19.1619C19.644 19.7111 19.644 20.6015 20.1932 21.1506L22.5938 23.5512V32.3437H25.4063V23.5512L27.8069 21.1506C28.3561 20.6015 28.3561 19.711 27.8069 19.1618Z" fill="#FFDE55"/>
<path d="M25.4062 4.21875V1.40625C25.4062 0.629625 24.7766 0 24 0V5.625C24.7766 5.625 25.4062 4.99538 25.4062 4.21875Z" fill="#FFDE55"/>
<path d="M25.4063 23.5512L27.8069 21.1507C28.3561 20.6015 28.3561 19.7111 27.8069 19.162C27.2577 18.6128 26.3674 18.6128 25.8182 19.162L24 20.98V32.3438H25.4063V23.5512Z" fill="#EEBF00"/>
</svg>
