<svg width="80" height="80" viewBox="0 0 80 80" fill="none" xmlns="http://www.w3.org/2000/svg">
<rect width="80" height="80" rx="8" fill="white"/>
<path d="M60.802 74.3197H60.4547C57.3401 74.3197 54.4398 72.7368 52.7446 70.1225L51.8358 68.7234C51.7847 68.6417 51.7336 68.5703 51.6826 68.4886L46.3417 60.2168L43.5334 55.8665L38.1618 47.5538C36.7934 45.4399 35.9764 43.0912 35.7007 40.6811C35.6599 40.3033 35.6292 39.9152 35.6088 39.5374C35.476 36.3716 36.2828 33.1855 38.0291 30.3874L42.3488 23.4738L45.0652 19.1234L51.1924 9.31987C52.8672 6.64431 55.8083 5.01038 58.974 5.01038C64.366 5.01038 68.1649 9.4322 68.1649 14.2114C68.1649 15.9066 67.6849 17.6427 66.6331 19.246L57.2379 33.4612C56.1963 35.0338 55.6959 36.8516 55.7266 38.6591C55.7266 39.037 55.7572 39.425 55.8185 39.8029C56.0125 41.1611 56.5129 42.4887 57.3094 43.6733L68.3997 60.0023C72.5356 66.0989 68.1751 74.3299 60.8122 74.3299L60.802 74.3197Z" fill="url(#paint0_linear_840_6598)"/>
<path opacity="0.25" d="M47.8633 48.9529L43.5436 55.8664L38.1721 47.5538C36.8036 45.4399 35.9867 43.0911 35.711 40.6811C35.6701 40.3032 35.6395 39.9152 35.619 39.5373C35.4863 36.3716 36.293 33.1854 38.0393 30.3873L42.359 23.4738L47.7306 31.7864C49.099 33.9003 49.9159 36.249 50.1917 38.6591C50.2325 39.0369 50.2632 39.425 50.2836 39.8028C50.4163 42.9686 49.6096 46.165 47.8633 48.9529Z" fill="#0C003F"/>
<path d="M41.9608 48.9527L28.7872 70.01C27.1125 72.6856 24.1714 74.3195 21.0158 74.3195C15.6239 74.3195 11.825 69.8977 11.825 65.1184C11.825 63.4232 12.305 61.6872 13.367 60.0839L22.2515 46.6448L22.7621 45.8687C24.8045 42.7642 24.7841 38.7304 22.6906 35.6566L18.3607 29.2843L11.6003 19.3275C7.46444 13.2309 11.825 5 19.1879 5H19.5351C20.781 5 21.986 5.2553 23.0991 5.72506C24.7739 6.42969 26.224 7.6245 27.235 9.19716L28.1439 10.5962C28.1949 10.6779 28.246 10.7494 28.297 10.8311L32.1878 16.8562L41.8178 31.776C45.1878 36.9842 45.2389 43.6731 41.9404 48.9425L41.9608 48.9527Z" fill="url(#paint1_linear_840_6598)"/>
<path opacity="0.2" d="M32.7087 22.6362C32.7087 32.113 28.6851 40.6605 22.2515 46.6448L22.7621 45.8687C24.8045 42.7642 24.7841 38.7305 22.6906 35.6566L18.3607 29.2843L11.6003 19.3275C7.46444 13.2309 11.825 5 19.1879 5H19.5351C20.781 5 21.986 5.2553 23.0991 5.72506C24.7739 6.42969 26.224 7.6245 27.235 9.19716L28.1439 10.5962C28.1949 10.6779 28.246 10.7494 28.297 10.8311L32.1878 16.8562C32.5248 18.725 32.6882 20.6551 32.6882 22.626L32.7087 22.6362Z" fill="white"/>
<path opacity="0.2" d="M24.2128 13.1189C24.2128 19.2665 22.0274 24.9036 18.3817 29.2948L11.6213 19.338C7.48543 13.2414 11.846 5.0105 19.2089 5.0105H19.5561C20.802 5.0105 22.007 5.2658 23.1201 5.73555C23.835 8.07412 24.2128 10.5454 24.2128 13.1189Z" fill="white"/>
<defs>
<linearGradient id="paint0_linear_840_6598" x1="56.6048" y1="13.6396" x2="49.2623" y2="87.3502" gradientUnits="userSpaceOnUse">
<stop stop-color="#A100FF"/>
<stop offset="1" stop-color="#530DFF"/>
</linearGradient>
<linearGradient id="paint1_linear_840_6598" x1="10.0889" y1="77.3729" x2="41.1642" y2="-12.4116" gradientUnits="userSpaceOnUse">
<stop stop-color="#008CFF"/>
<stop offset="1" stop-color="#2BD3EF"/>
</linearGradient>
</defs>
</svg>
