<svg width="26" height="26" viewBox="0 0 26 26" fill="none" xmlns="http://www.w3.org/2000/svg">
<path d="M23.4202 10.0017C23.3197 9.89948 23.1999 9.8183 23.0679 9.76285C22.9356 9.70731 22.7937 9.67871 22.6503 9.67871C22.5069 9.67871 22.365 9.70731 22.2327 9.76285C22.1006 9.81834 21.9807 9.89959 21.8801 10.0019C21.88 10.002 21.8802 10.0018 21.8801 10.0019L13.7477 18.1617L13.7282 18.1813L13.7215 18.2082L13.2525 20.0926L13.2122 20.2544L13.3739 20.2138L15.25 19.7426L15.2769 19.7359L15.2965 19.7162L23.4198 11.5477C23.4197 11.5478 23.4199 11.5477 23.4198 11.5477C23.5217 11.4467 23.6028 11.3261 23.658 11.1935C23.7132 11.0608 23.7416 10.9183 23.7416 10.7745C23.7416 10.6307 23.7132 10.4883 23.658 10.3555C23.6028 10.223 23.522 10.1027 23.4202 10.0017ZM15.6769 0.990007C15.7802 0.989408 15.8831 1.00928 15.9787 1.0485C16.0743 1.08772 16.1613 1.14551 16.2346 1.21858C16.2345 1.21856 16.2346 1.21859 16.2346 1.21858L19.7739 4.77362C19.7739 4.77361 19.7739 4.77363 19.7739 4.77362C19.8466 4.84731 19.9042 4.93474 19.9433 5.03089C19.9824 5.12704 20.0022 5.23001 20.0016 5.33389V7.11226C20.0016 7.32163 19.9188 7.52233 19.7716 7.67025C19.6243 7.81814 19.4247 7.90115 19.2167 7.90115C19.0087 7.90115 18.8091 7.81814 18.6618 7.67025C18.5146 7.52233 18.4318 7.32163 18.4318 7.11226V5.69892V5.65763L18.4026 5.62836L15.385 2.59724L15.3557 2.56779H15.3141H3.28774C3.02637 2.56779 2.7758 2.67209 2.59112 2.85759C2.40646 3.04308 2.3028 3.29456 2.3028 3.55668V23.1123C2.3028 23.3745 2.40646 23.626 2.59112 23.8114C2.7758 23.9969 3.02637 24.1012 3.28774 24.1012H17.4468C17.7082 24.1012 17.9588 23.9969 18.1434 23.8114C18.3281 23.626 18.4318 23.3745 18.4318 23.1123V21.3346C18.4318 21.1252 18.5146 20.9245 18.6618 20.7766C18.8091 20.6287 19.0087 20.5457 19.2167 20.5457C19.4247 20.5457 19.6243 20.6287 19.7716 20.7766C19.9188 20.9245 20.0016 21.1252 20.0016 21.3346V23.1123C20.0016 23.7932 19.7324 24.4461 19.2532 24.9274C18.774 25.4087 18.1243 25.679 17.4468 25.679H3.28774C2.6103 25.679 1.96052 25.4087 1.48136 24.9274C1.00219 24.4461 0.73291 23.7932 0.73291 23.1123V3.55668C0.73291 2.87582 1.00219 2.22292 1.48136 1.74161C1.96052 1.26031 2.6103 0.990005 3.28774 0.990005L15.6769 0.990007ZM24.3191 12.839H24.3653L16.235 21.0056C16.2349 21.0057 16.2351 21.0055 16.235 21.0056C16.133 21.1063 16.0052 21.1774 15.8661 21.2106L15.865 21.2109L12.3252 22.0998L12.3223 22.1006C12.1897 22.1381 12.0496 22.1399 11.9161 22.1057C11.7826 22.0716 11.6603 22.0027 11.5616 21.906C11.4629 21.8092 11.3913 21.688 11.354 21.5546C11.3167 21.4211 11.315 21.2802 11.3491 21.1459L12.2342 17.5898L12.2345 17.5887C12.2676 17.4487 12.3382 17.3206 12.4385 17.2181C12.4384 17.2182 12.4385 17.218 12.4385 17.2181L20.7389 8.8806L20.7426 8.87666C20.9849 8.60539 21.2796 8.38659 21.6089 8.2336C21.9381 8.08061 22.2949 7.99663 22.6575 7.98676C23.0201 7.9769 23.3808 8.04136 23.7178 8.17623C24.0548 8.31109 24.3609 8.51354 24.6175 8.77123C24.874 9.02892 25.0756 9.33645 25.2099 9.67507C25.3442 10.0137 25.4085 10.3763 25.3986 10.7406C25.3888 11.105 25.3052 11.4636 25.1528 11.7944C25.0004 12.1252 24.7826 12.4213 24.5125 12.6647L24.3191 12.839ZM4.50274 17.221C4.64998 17.0731 4.84959 16.9901 5.05762 16.9901H8.59739C8.80543 16.9901 9.00504 17.0731 9.15227 17.221C9.29953 17.3689 9.38234 17.5696 9.38234 17.779C9.38234 17.9884 9.29953 18.1891 9.15228 18.337C9.00504 18.4849 8.80543 18.5679 8.59739 18.5679H5.05762C4.84959 18.5679 4.64998 18.4849 4.50274 18.337C4.35549 18.1891 4.27268 17.9884 4.27268 17.779C4.27268 17.5696 4.35549 17.3689 4.50274 17.221ZM5.05762 6.32336H13.0221C13.2301 6.32336 13.4297 6.40637 13.577 6.55427C13.7242 6.70218 13.807 6.90289 13.807 7.11226C13.807 7.32163 13.7242 7.52233 13.577 7.67025C13.4297 7.81814 13.2301 7.90115 13.0221 7.90115H5.05762C4.84959 7.90115 4.64998 7.81814 4.50274 7.67025C4.35549 7.52233 4.27268 7.32163 4.27268 7.11226C4.27268 6.90289 4.35549 6.70218 4.50274 6.55427C4.64998 6.40637 4.84959 6.32336 5.05762 6.32336ZM13.577 11.8876C13.7242 12.0355 13.807 12.2363 13.807 12.4456C13.807 12.655 13.7242 12.8557 13.577 13.0036C13.4297 13.1515 13.2301 13.2345 13.0221 13.2345H5.05762C4.84959 13.2345 4.64998 13.1515 4.50274 13.0036C4.35549 12.8557 4.27268 12.655 4.27268 12.4456C4.27268 12.2363 4.35549 12.0355 4.50274 11.8876C4.64998 11.7397 4.84959 11.6567 5.05762 11.6567H13.0221C13.2301 11.6567 13.4297 11.7397 13.577 11.8876Z" fill="#171717"/>
<path d="M23.4202 10.0017C23.3197 9.89948 23.1999 9.8183 23.0679 9.76285C22.9356 9.70731 22.7937 9.67871 22.6503 9.67871C22.5069 9.67871 22.365 9.70731 22.2327 9.76285C22.1006 9.81834 21.9807 9.89959 21.8801 10.0019M23.4202 10.0017C23.522 10.1027 23.6028 10.223 23.658 10.3555C23.7132 10.4883 23.7416 10.6307 23.7416 10.7745C23.7416 10.9183 23.7132 11.0608 23.658 11.1935C23.6028 11.3261 23.5217 11.4467 23.4198 11.5477M23.4202 10.0017C23.4201 10.0015 23.4203 10.0018 23.4202 10.0017ZM23.4202 10.0017L23.3494 10.0723M21.8801 10.0019C21.88 10.002 21.8802 10.0018 21.8801 10.0019ZM21.8801 10.0019L13.7477 18.1617L13.7282 18.1813L13.7215 18.2082L13.2525 20.0926L13.2122 20.2544L13.3739 20.2138L15.25 19.7426L15.2769 19.7359L15.2965 19.7162L23.4198 11.5477M23.4198 11.5477C23.4199 11.5477 23.4197 11.5478 23.4198 11.5477ZM16.2346 1.21858C16.1613 1.14551 16.0743 1.08772 15.9787 1.0485C15.8831 1.00928 15.7802 0.989408 15.6769 0.990007L3.28774 0.990005C2.6103 0.990005 1.96052 1.26031 1.48136 1.74161C1.00219 2.22292 0.73291 2.87582 0.73291 3.55668V23.1123C0.73291 23.7932 1.00219 24.4461 1.48136 24.9274C1.96052 25.4087 2.6103 25.679 3.28774 25.679H17.4468C18.1243 25.679 18.774 25.4087 19.2532 24.9274C19.7324 24.4461 20.0016 23.7932 20.0016 23.1123V21.3346C20.0016 21.1252 19.9188 20.9245 19.7716 20.7766C19.6243 20.6287 19.4247 20.5457 19.2167 20.5457C19.0087 20.5457 18.8091 20.6287 18.6618 20.7766C18.5146 20.9245 18.4318 21.1252 18.4318 21.3346V23.1123C18.4318 23.3745 18.3281 23.626 18.1434 23.8114C17.9588 23.9969 17.7082 24.1012 17.4468 24.1012H3.28774C3.02637 24.1012 2.7758 23.9969 2.59112 23.8114C2.40646 23.626 2.3028 23.3745 2.3028 23.1123V3.55668C2.3028 3.29456 2.40646 3.04308 2.59112 2.85759C2.7758 2.67209 3.02637 2.56779 3.28774 2.56779H15.3141H15.3557L15.385 2.59724L18.4026 5.62836L18.4318 5.65763V5.69892V7.11226C18.4318 7.32163 18.5146 7.52233 18.6618 7.67025C18.8091 7.81814 19.0087 7.90115 19.2167 7.90115C19.4247 7.90115 19.6243 7.81814 19.7716 7.67025C19.9188 7.52233 20.0016 7.32163 20.0016 7.11226V5.33389C20.0022 5.23001 19.9824 5.12704 19.9433 5.03089C19.9042 4.93474 19.8466 4.84731 19.7739 4.77362M16.2346 1.21858C16.2346 1.21859 16.2345 1.21856 16.2346 1.21858ZM16.2346 1.21858L19.7739 4.77362M19.7739 4.77362C19.7739 4.77363 19.7739 4.77361 19.7739 4.77362ZM16.235 21.0056L24.3653 12.839H24.3191L24.5125 12.6647C24.7826 12.4213 25.0004 12.1252 25.1528 11.7944C25.3052 11.4636 25.3888 11.105 25.3986 10.7406C25.4085 10.3763 25.3442 10.0137 25.2099 9.67507C25.0756 9.33645 24.874 9.02892 24.6175 8.77123C24.3609 8.51354 24.0548 8.31109 23.7178 8.17623C23.3808 8.04136 23.0201 7.9769 22.6575 7.98676C22.2949 7.99663 21.9381 8.08061 21.6089 8.2336C21.2796 8.38659 20.9849 8.60539 20.7426 8.87666L20.7389 8.8806L12.4385 17.2181M16.235 21.0056C16.2349 21.0057 16.2351 21.0055 16.235 21.0056ZM16.235 21.0056C16.133 21.1063 16.0052 21.1774 15.8661 21.2106L15.865 21.2109L12.3252 22.0998L12.3223 22.1006C12.1897 22.1381 12.0496 22.1399 11.9161 22.1057C11.7826 22.0716 11.6603 22.0027 11.5616 21.906C11.4629 21.8092 11.3913 21.688 11.354 21.5546C11.3167 21.4211 11.315 21.2802 11.3491 21.1459L12.2342 17.5898L12.2345 17.5887C12.2676 17.4487 12.3382 17.3206 12.4385 17.2181M12.4385 17.2181C12.4385 17.218 12.4384 17.2182 12.4385 17.2181ZM4.50274 17.221C4.64998 17.0731 4.84959 16.9901 5.05762 16.9901H8.59739C8.80543 16.9901 9.00504 17.0731 9.15227 17.221C9.29953 17.3689 9.38234 17.5696 9.38234 17.779C9.38234 17.9884 9.29953 18.1891 9.15228 18.337C9.00504 18.4849 8.80543 18.5679 8.59739 18.5679H5.05762C4.84959 18.5679 4.64998 18.4849 4.50274 18.337C4.35549 18.1891 4.27268 17.9884 4.27268 17.779C4.27268 17.5696 4.35549 17.3689 4.50274 17.221ZM5.05762 6.32336H13.0221C13.2301 6.32336 13.4297 6.40637 13.577 6.55427C13.7242 6.70218 13.807 6.90289 13.807 7.11226C13.807 7.32163 13.7242 7.52233 13.577 7.67025C13.4297 7.81814 13.2301 7.90115 13.0221 7.90115H5.05762C4.84959 7.90115 4.64998 7.81814 4.50274 7.67025C4.35549 7.52233 4.27268 7.32163 4.27268 7.11226C4.27268 6.90289 4.35549 6.70218 4.50274 6.55427C4.64998 6.40637 4.84959 6.32336 5.05762 6.32336ZM13.577 11.8876C13.7242 12.0355 13.807 12.2363 13.807 12.4456C13.807 12.655 13.7242 12.8557 13.577 13.0036C13.4297 13.1515 13.2301 13.2345 13.0221 13.2345H5.05762C4.84959 13.2345 4.64998 13.1515 4.50274 13.0036C4.35549 12.8557 4.27268 12.655 4.27268 12.4456C4.27268 12.2363 4.35549 12.0355 4.50274 11.8876C4.64998 11.7397 4.84959 11.6567 5.05762 11.6567H13.0221C13.2301 11.6567 13.4297 11.7397 13.577 11.8876Z" stroke="#0F0F0F" stroke-width="0.2"/>
</svg>
