<svg width="51" height="61" viewBox="0 0 51 61" fill="none" xmlns="http://www.w3.org/2000/svg">
<path d="M7.53344 26.5291C10.9553 28.8103 15.6028 29.4706 19.5549 29.4706C25.0779 29.4706 29.2751 28.31 32.1366 25.9788C35.0032 23.6525 36.434 20.5959 36.434 16.8088C36.434 12.4365 34.1477 8.33428 30.1806 6.35821C28.8999 5.71787 27.5892 5.21259 26.1934 4.87741C24.1724 4.39215 21.9612 4.14703 19.5549 4.14703C14.0319 4.14703 9.83468 5.31265 6.97315 7.6389C4.10661 9.96515 2.67584 13.0218 2.67584 16.8088C2.67584 19.06 3.09607 20.9911 3.94152 22.602C4.81199 24.2628 6.05765 25.5435 7.53344 26.5291ZM15.6028 8.13917C16.5483 6.50329 17.864 5.68286 19.5549 5.68286C21.2458 5.68286 22.5615 6.50329 23.507 8.13917C24.4525 9.77505 24.9278 12.6666 24.9278 16.8088C24.9278 20.9511 24.4525 23.8426 23.507 25.4785C22.5615 27.1144 21.2458 27.9348 19.5549 27.9348C17.864 27.9348 16.5483 27.1194 15.6028 25.4785C14.6573 23.8426 14.182 20.9511 14.182 16.8088C14.182 12.6666 14.6523 9.77505 15.6028 8.13917Z" fill="#666666"/>
<path d="M36.2438 36.2608C34.0677 34.0346 31.066 32.924 27.229 32.924H12.6512C10.3499 32.924 8.74909 32.6939 7.85361 32.2336C7.14323 31.8684 6.57793 31.2631 6.5229 30.4326C6.47787 29.7623 6.80305 29.257 7.17825 28.7518C4.71693 28.5416 2.0655 29.9424 1.26006 32.3187C0.159475 35.5704 1.09497 39.1673 3.82144 41.2835C5.86753 42.8693 8.80912 43.6648 12.6462 43.6648H27.224C33.3623 43.6648 36.4339 45.3256 36.4339 48.6524C36.4339 51.2588 34.9881 53.45 32.0966 55.211C28.8849 57.172 25.0878 58.0875 21.3558 58.3076C17.3437 58.5428 13.6567 57.9174 9.93471 56.4616C11.4405 55.3461 12.381 53.4951 12.366 51.6191C12.351 49.743 11.3705 47.897 9.80965 46.8565C8.25381 45.8159 6.1577 45.6158 4.44178 46.3712C3.28116 46.8815 2.31564 47.792 1.65528 48.8725C1.01994 49.9131 0.649742 51.1438 0.779812 52.3594C0.929892 53.7602 1.74033 55.0359 2.8009 55.9664C5.85254 58.6628 10.7001 59.4582 14.6122 59.8885C19.0196 60.3737 23.3269 60.0186 27.6492 59.1131C31.2111 58.3677 34.793 56.6918 37.0793 53.7652C38.8452 51.504 39.5056 48.3973 39.5056 45.5858C39.5056 41.5937 38.42 38.487 36.2438 36.2608Z" fill="#666666"/>
<path d="M44.6996 13.0037C47.7249 11.8725 49.2605 8.5031 48.1293 5.47781C46.9982 2.45251 43.6288 0.916965 40.6035 2.04808C37.5782 3.17919 36.0427 6.54862 37.1738 9.57392C38.3049 12.5992 41.6743 14.1348 44.6996 13.0037Z" fill="#666666"/>
</svg>
