<svg width="72" height="72" viewBox="0 0 72 72" fill="none" xmlns="http://www.w3.org/2000/svg">
<g clip-path="url(#clip0_530_2111)">
<path d="M71.2086 18.6955C68.1407 1.09766 60.1576 -1.66 44.641 10.4802C39.9138 14.1787 38.9749 6.68933 31.2538 3.57012C18.3253 -1.65269 6.24955 11.9262 11.6785 21.0099C12.8705 23.0042 15.3781 24.3975 15.5699 26.7121C16.2674 35.1292 2.41414 39.1549 0.257375 47.499C-3.05631 60.3186 26.5891 80.0354 33.9146 61.5252C43.2433 37.9531 40.9412 58.7479 51.7786 60.9672C70.209 64.7416 73.9155 34.2224 71.2086 18.6955Z" fill="url(#paint0_linear_530_2111)"/>
<path opacity="0.1" d="M62.9602 38.7423H53.0024L63.3981 30.5153C63.7279 30.2543 63.7563 29.764 63.459 29.4668L48.778 14.7858C48.4806 14.4884 47.9905 14.5169 47.7295 14.8467L41.4877 22.7338V12.0619C41.4877 11.6736 41.1729 11.3588 40.7846 11.3588H16.1589C15.7707 11.3588 15.4558 11.6736 15.4558 12.0619V36.6876C15.4558 37.0758 15.7707 37.3907 16.1589 37.3907H19.1393L8.02391 69.3257C7.83069 69.881 8.3638 70.4141 8.91913 70.2209L41.2629 58.9631C41.6125 58.8415 41.806 58.4696 41.7087 58.1125L44.458 44.5037C44.9297 44.7274 45.503 44.6773 45.9333 44.3369L48.1947 42.5473V53.5082C48.1947 53.8964 48.5096 54.2113 48.8978 54.2113H62.9603C63.3486 54.2113 63.6635 53.8964 63.6635 53.5082V39.4457C63.6633 39.057 63.3485 38.7423 62.9602 38.7423Z" fill="#0000CB"/>
<path d="M40.7846 34.0157H16.1589C15.7707 34.0157 15.4558 33.7008 15.4558 33.3126V8.68701C15.4558 8.29875 15.7707 7.98389 16.1589 7.98389H40.7846C41.1729 7.98389 41.4877 8.29875 41.4877 8.68701V33.3126C41.4877 33.701 41.173 34.0157 40.7846 34.0157Z" fill="#6582FD"/>
<path d="M38.6754 10.7964V31.2032H18.2685V10.7964H38.6754Z" fill="white"/>
<path d="M26.4728 15.5512C26.0845 15.5512 25.7696 15.2364 25.7696 14.848V14.7452H21.4567V14.848C21.4567 15.2364 21.1418 15.5512 20.7535 15.5512C20.3653 15.5512 20.0504 15.2364 20.0504 14.848V14.0421C20.0504 13.6537 20.3653 13.339 20.7535 13.339H26.4729C26.8612 13.339 27.176 13.6537 27.176 14.0421V14.848C27.1759 15.2364 26.8612 15.5512 26.4728 15.5512Z" fill="#6582FD"/>
<path d="M24.2974 22.152H22.929C22.5407 22.152 22.2258 21.8373 22.2258 21.4489C22.2258 21.0604 22.5407 20.7457 22.929 20.7457H24.2974C24.6856 20.7457 25.0005 21.0604 25.0005 21.4489C25.0005 21.8373 24.6856 22.152 24.2974 22.152Z" fill="#6582FD"/>
<path d="M23.613 22.152C23.2248 22.152 22.9099 21.8372 22.9099 21.4488V14.0421C22.9099 13.6537 23.2248 13.339 23.613 13.339C24.0013 13.339 24.3162 13.6537 24.3162 14.0421V21.449C24.3162 21.8372 24.0013 22.152 23.613 22.152Z" fill="#6582FD"/>
<path d="M36.1901 14.7452H29.376C28.9877 14.7452 28.6729 14.4305 28.6729 14.0421C28.6729 13.6537 28.9877 13.339 29.376 13.339H36.1901C36.5784 13.339 36.8932 13.6537 36.8932 14.0421C36.8932 14.4305 36.5784 14.7452 36.1901 14.7452Z" fill="#6582FD"/>
<path d="M36.1901 17.5283H29.376C28.9877 17.5283 28.6729 17.2136 28.6729 16.8252C28.6729 16.4368 28.9877 16.1221 29.376 16.1221H36.1901C36.5784 16.1221 36.8932 16.4368 36.8932 16.8252C36.8932 17.2136 36.5784 17.5283 36.1901 17.5283Z" fill="#6582FD"/>
<path d="M36.1901 20.3113H29.376C28.9877 20.3113 28.6729 19.9966 28.6729 19.6082C28.6729 19.2197 28.9877 18.905 29.376 18.905H36.1901C36.5784 18.905 36.8932 19.2197 36.8932 19.6082C36.8932 19.9966 36.5784 20.3113 36.1901 20.3113Z" fill="#6582FD"/>
<path d="M36.1901 23.0945H29.376C28.9877 23.0945 28.6729 22.7798 28.6729 22.3914C28.6729 22.003 28.9877 21.6882 29.376 21.6882H36.1901C36.5784 21.6882 36.8932 22.003 36.8932 22.3914C36.8932 22.7798 36.5784 23.0945 36.1901 23.0945Z" fill="#6582FD"/>
<path d="M36.1901 25.8776H20.7535C20.3653 25.8776 20.0504 25.5628 20.0504 25.1744C20.0504 24.786 20.3653 24.4713 20.7535 24.4713H36.1901C36.5784 24.4713 36.8932 24.786 36.8932 25.1744C36.8932 25.5628 36.5784 25.8776 36.1901 25.8776Z" fill="#6582FD"/>
<path d="M36.1901 28.6606H20.7535C20.3653 28.6606 20.0504 28.3459 20.0504 27.9575C20.0504 27.5691 20.3653 27.2544 20.7535 27.2544H36.1901C36.5784 27.2544 36.8932 27.5691 36.8932 27.9575C36.8932 28.3459 36.5784 28.6606 36.1901 28.6606Z" fill="#6582FD"/>
<path d="M8.02391 65.9505L19.2816 33.6067C19.4033 33.2571 19.7752 33.0636 20.1323 33.161C28.2438 35.3706 34.9 31.6333 37.7477 29.6023L45.2672 37.1218C43.236 39.9695 39.4989 46.6257 41.7085 54.7372C41.8058 55.0944 41.6123 55.4662 41.2627 55.5878L8.91899 66.8456C8.3638 67.0391 7.83069 66.5058 8.02391 65.9505Z" fill="white"/>
<path d="M30.6481 47.9272C32.6944 47.9272 34.3532 46.2684 34.3532 44.222C34.3532 42.1757 32.6944 40.5168 30.6481 40.5168C28.6017 40.5168 26.9429 42.1757 26.9429 44.222C26.9429 46.2684 28.6017 47.9272 30.6481 47.9272Z" fill="#6582FD"/>
<path d="M30.6481 45.8969C31.5731 45.8969 32.323 45.1471 32.323 44.2221C32.323 43.2971 31.5731 42.5472 30.6481 42.5472C29.7231 42.5472 28.9733 43.2971 28.9733 44.2221C28.9733 45.1471 29.7231 45.8969 30.6481 45.8969Z" fill="white"/>
<path d="M14.6061 60.9672C14.4261 60.9672 14.2462 60.8986 14.1088 60.7612C13.8342 60.4867 13.8342 60.0414 14.1088 59.7669L27.717 46.1588C27.9917 45.8842 28.4368 45.8843 28.7113 46.1588C28.9858 46.4333 28.986 46.8785 28.7113 47.153L15.1033 60.7612C14.9661 60.8986 14.7861 60.9672 14.6061 60.9672Z" fill="#6582FD"/>
<path d="M35.3637 40.2097C35.1832 40.2097 35.0028 40.1406 34.8654 40.0024C34.5914 39.7272 34.5925 39.282 34.8679 39.0082L34.8815 38.9944C35.1567 38.7207 35.602 38.7216 35.8759 38.9971C36.1498 39.2723 36.1487 39.7175 35.8734 39.9913L35.8596 40.0049C35.7225 40.1413 35.543 40.2097 35.3637 40.2097Z" fill="#6582FD"/>
<path d="M37.0892 43.1992C36.778 43.1992 36.4933 42.9911 36.41 42.6758C36.3105 42.3005 36.5344 41.9156 36.9097 41.8162L36.9284 41.8113C37.3035 41.7124 37.6887 41.9356 37.7881 42.3112C37.8875 42.6865 37.6636 43.0714 37.2883 43.1708L37.2696 43.1757C37.2093 43.1918 37.1488 43.1992 37.0892 43.1992Z" fill="#6582FD"/>
<path d="M24.1875 46.6564C23.878 46.6564 23.5947 46.4506 23.5095 46.1377C23.4075 45.7631 23.6287 45.3767 24.0033 45.2747L24.022 45.2697C24.3968 45.1671 24.7831 45.3889 24.885 45.7635C24.987 46.1382 24.7658 46.5246 24.3912 46.6265L24.3725 46.6316C24.3107 46.6485 24.2486 46.6564 24.1875 46.6564Z" fill="#6582FD"/>
<path d="M24.207 43.1992C24.1474 43.1992 24.0869 43.1916 24.0266 43.1757L24.0079 43.1707C23.6325 43.0713 23.4087 42.6864 23.5081 42.3111C23.6075 41.9355 23.9925 41.7122 24.3677 41.8112L24.3864 41.8161C24.7618 41.9155 24.9856 42.3004 24.8862 42.6757C24.8028 42.991 24.5183 43.1992 24.207 43.1992Z" fill="#6582FD"/>
<path d="M37.1087 46.6561C37.0491 46.6561 36.9886 46.6485 36.9283 46.6326L36.9096 46.6277C36.5343 46.5282 36.3104 46.1434 36.4098 45.768C36.5093 45.3926 36.8944 45.1687 37.2695 45.2681L37.2882 45.273C37.6635 45.3724 37.8874 45.7573 37.788 46.1327C37.7046 46.4479 37.4199 46.6561 37.1087 46.6561Z" fill="#6582FD"/>
<path d="M35.3774 49.6544C35.1968 49.6544 35.0164 49.5854 34.879 49.4471L34.8654 49.4334C34.5914 49.1582 34.5925 48.7129 34.8679 48.4391C35.1431 48.1652 35.5883 48.1662 35.8623 48.4417L35.8759 48.4555C36.1498 48.7307 36.1487 49.1759 35.8734 49.4497C35.7361 49.5861 35.5567 49.6544 35.3774 49.6544Z" fill="#6582FD"/>
<path d="M25.9325 40.2096C25.7532 40.2096 25.5738 40.1414 25.4365 40.0049L25.4229 39.9912C25.1475 39.7174 25.1466 39.2722 25.4204 38.997C25.6943 38.7215 26.1395 38.7208 26.4147 38.9943L26.4284 39.0081C26.7037 39.2819 26.7047 39.7271 26.4309 40.0023C26.2936 40.1404 26.1131 40.2096 25.9325 40.2096Z" fill="#6582FD"/>
<path d="M28.9218 38.4838C28.6114 38.4838 28.3274 38.2768 28.2431 37.9627L28.2381 37.944C28.1374 37.569 28.3599 37.1834 28.7349 37.0827C29.11 36.9823 29.4957 37.2045 29.5962 37.5795L29.6013 37.5982C29.702 37.9733 29.4795 38.3589 29.1045 38.4596C29.0434 38.476 28.982 38.4838 28.9218 38.4838Z" fill="#6582FD"/>
<path d="M32.3788 51.3854C32.0688 51.3854 31.7852 51.1791 31.7004 50.8656L31.6953 50.8471C31.5939 50.4723 31.8157 50.0862 32.1905 49.9848C32.5657 49.8841 32.9514 50.1051 33.0528 50.48L33.0579 50.4986C33.1592 50.8734 32.9375 51.2595 32.5627 51.3609C32.5013 51.3775 32.4394 51.3854 32.3788 51.3854Z" fill="#6582FD"/>
<path d="M28.9176 51.3855C28.8573 51.3855 28.7959 51.3776 28.7349 51.3613C28.3599 51.2606 28.1374 50.8751 28.2381 50.5L28.2431 50.4813C28.3438 50.1063 28.7294 49.8843 29.1045 49.9845C29.4795 50.0852 29.702 50.4708 29.6013 50.8458L29.5962 50.8645C29.512 51.1787 29.2279 51.3855 28.9176 51.3855Z" fill="#6582FD"/>
<path d="M32.3746 38.4837C32.3143 38.4837 32.253 38.4758 32.1919 38.4595C31.8169 38.3588 31.5944 37.9732 31.6951 37.5982L31.7002 37.5795C31.8009 37.2044 32.1865 36.9824 32.5615 37.0827C32.9366 37.1834 33.159 37.5689 33.0583 37.944L33.0533 37.9627C32.969 38.2767 32.685 38.4837 32.3746 38.4837Z" fill="#6582FD"/>
<path d="M63.6638 36.0697V50.1322C63.6638 50.5217 63.3488 50.8353 62.9607 50.8353H48.8982C48.5087 50.8353 48.1951 50.5217 48.1951 50.1322V36.0697C48.1951 35.6816 48.5087 35.3666 48.8982 35.3666H62.9607C63.3488 35.3666 63.6638 35.6816 63.6638 36.0697Z" fill="#6582FD"/>
<path d="M62.5789 49.4579C62.5383 49.3191 62.368 49.2557 62.2416 49.3342C62.0084 49.4791 61.802 49.5514 61.6222 49.5514C61.4129 49.5514 61.2722 49.4746 61.1998 49.3207C61.1274 49.1671 61.0912 48.9053 61.0912 48.536V42.6892C61.0912 41.8432 61.0308 41.174 60.9103 40.6814C60.7896 40.1892 60.552 39.7738 60.1981 39.4351C59.812 39.0659 59.3291 38.8044 58.7497 38.6505C57.4917 38.3161 56.1481 38.3235 54.8741 38.5721C53.8162 38.7786 52.6453 39.1592 52.0028 40.0467C51.1825 41.1797 51.9364 42.92 53.439 42.92C55.3061 42.92 56.0396 40.6206 54.4283 39.6665C54.8666 39.4984 55.701 39.2661 56.5284 39.5139C57.172 39.7066 57.6136 40.2809 57.6151 40.9256V40.9352V42.7353C57.6151 43.1507 57.41 43.4778 56.9996 43.7162C55.3023 44.7021 52.924 44.7778 51.6166 46.3471C50.9667 47.1275 50.8668 48.2726 51.2393 49.1949C51.7155 50.3737 52.853 50.836 54.115 50.836C55.6756 50.836 56.8586 50.2129 57.6634 48.9667C57.6791 49.5361 57.8643 49.9902 58.2186 50.3284C58.5724 50.667 59.1921 50.836 60.0773 50.836C61.0652 50.836 61.9097 50.5822 62.6106 50.0744C62.6847 50.0207 62.7172 49.9293 62.6921 49.8436L62.5789 49.4579ZM57.6151 47.5516C57.1481 48.1826 56.7334 48.5467 56.046 48.6866C55.5546 48.7867 54.4769 48.622 54.4769 47.5128C54.4769 46.4473 55.7564 45.9433 56.3838 45.5584C57.0114 45.1891 57.4218 44.8509 57.615 44.5429V47.5516H57.6151Z" fill="white"/>
<path d="M64.0174 26.65L60.3949 23.0275L58.3942 21.73L57.0313 19.6639L55.2054 17.838L53.1834 16.5191L51.842 14.4746L48.2195 10.8521L33.908 28.9364C33.4651 29.4961 33.5118 30.2988 34.0163 30.8035L44.0661 40.8533C44.5708 41.358 45.3735 41.4045 45.9332 40.9616L64.0174 26.65Z" fill="#6582FD"/>
<path d="M55.2056 17.8383L51.8421 14.4749L46.0046 20.3123C45.4555 20.8615 45.4555 21.7519 46.0046 22.3011L47.3794 23.6758C47.9285 24.2249 48.819 24.2249 49.3681 23.6758L55.2056 17.8383Z" fill="white"/>
<path d="M60.3949 23.0277L57.0314 19.6642L51.194 25.5017C50.6448 26.0508 50.6448 26.9412 51.194 27.4904L52.5687 28.8651C53.1179 29.4143 54.0083 29.4143 54.5574 28.8651L60.3949 23.0277Z" fill="white"/>
<path d="M64.5687 26.2138C64.3279 25.9095 63.8857 25.8577 63.581 26.0988L45.4969 40.4102C45.2171 40.6318 44.8157 40.6082 44.5633 40.356L34.5137 30.3063C34.2614 30.0539 34.238 29.6527 34.4595 29.3727L48.7709 11.2886C49.0118 10.9841 48.9604 10.5419 48.6559 10.301C48.3515 10.0601 47.9092 10.1115 47.6682 10.416L42.1908 17.3373V8.68701C42.1908 7.91161 41.56 7.28076 40.7846 7.28076H16.1589C15.3835 7.28076 14.7526 7.91161 14.7526 8.68701V33.3126C14.7526 34.088 15.3835 34.7188 16.1589 34.7188H18.15L14.7823 44.397C14.6546 44.7638 14.8485 45.1646 15.2153 45.2923C15.2918 45.3187 15.3697 45.3314 15.4463 45.3314C15.7373 45.3314 16.0094 45.1494 16.1104 44.8593L19.9472 33.84C21.7591 34.3336 23.4989 34.5387 25.141 34.5387C28.8991 34.5384 32.1403 33.4637 34.532 32.3136L42.5564 40.3382C40.9035 43.7748 39.4063 48.9634 41.0311 54.9245L8.68818 66.1822L14.8011 48.6182C14.9288 48.2514 14.7349 47.8507 14.3682 47.723C14.0011 47.5957 13.6005 47.7893 13.4729 48.1559L7.36039 65.7193C7.18082 66.2333 7.3085 66.7917 7.69382 67.1766C7.96354 67.4462 8.31819 67.5895 8.68269 67.5895C8.8385 67.5895 8.99614 67.5632 9.14971 67.5095L41.4943 56.2522C42.1903 56.009 42.5819 55.2617 42.3866 54.5528C40.9445 49.2589 42.1573 44.6012 43.6156 41.3926C44.0191 41.773 44.5384 41.9683 45.0611 41.9683C45.5217 41.9683 45.984 41.8181 46.3696 41.5131L47.4915 40.6253V50.133C47.4915 50.9084 48.1224 51.5392 48.8978 51.5392H62.9603C63.7357 51.5392 64.3665 50.9084 64.3665 50.133V36.0705C64.3665 35.2951 63.7357 34.6642 62.9603 34.6642H58.2956C57.9073 34.6642 57.5925 34.979 57.5925 35.3674C57.5925 35.7558 57.9073 36.0705 58.2956 36.0705H62.9603V50.133H48.8978V39.5124L64.4539 27.2017C64.7582 26.9605 64.8096 26.5183 64.5687 26.2138ZM20.3188 32.4837C19.6303 32.2946 18.9089 32.6564 18.6429 33.3126H16.1589V8.68701H40.7846V19.1144L33.3568 28.5002C32.7054 29.3232 32.7613 30.4951 33.4768 31.2542C30.2683 32.7125 25.611 33.9255 20.3188 32.4837Z" fill="#0000CB"/>
<path d="M49.2243 32.2577C49.0443 32.2577 48.8644 32.1891 48.727 32.0517L42.8187 26.1433C42.544 25.8688 42.544 25.4236 42.8187 25.1491C43.0933 24.8745 43.5384 24.8745 43.813 25.1491L49.7214 31.0575C49.996 31.332 49.996 31.7772 49.7214 32.0517C49.5841 32.1889 49.4043 32.2577 49.2243 32.2577Z" fill="white"/>
<path d="M46.2938 33.4884C46.1138 33.4884 45.9339 33.4197 45.7965 33.2823L41.5881 29.0739C41.3134 28.7994 41.3134 28.3541 41.5881 28.0796C41.8627 27.805 42.3078 27.805 42.5824 28.0796L46.7909 32.2881C47.0655 32.5626 47.0655 33.0078 46.7909 33.2823C46.6537 33.4196 46.4738 33.4884 46.2938 33.4884Z" fill="white"/>
<path d="M43.3633 34.7188C43.1833 34.7188 43.0035 34.6501 42.8661 34.5127L40.3576 32.0043C40.083 31.7298 40.083 31.2846 40.3576 31.0101C40.6322 30.7354 41.0773 30.7354 41.352 31.0101L43.8604 33.5185C44.1351 33.793 44.1351 34.2382 43.8604 34.5127C43.7232 34.65 43.5433 34.7188 43.3633 34.7188Z" fill="white"/>
<path d="M44.1897 5.9574C43.0266 5.9574 42.0803 5.01113 42.0803 3.84802C42.0803 2.68491 43.0266 1.73865 44.1897 1.73865C45.3528 1.73865 46.2991 2.68491 46.2991 3.84802C46.2991 5.01113 45.3528 5.9574 44.1897 5.9574ZM44.1897 3.1449C43.802 3.1449 43.4866 3.46032 43.4866 3.84802C43.4866 4.23573 43.802 4.55115 44.1897 4.55115C44.5774 4.55115 44.8928 4.23573 44.8928 3.84802C44.8928 3.46032 44.5774 3.1449 44.1897 3.1449Z" fill="#6582FD"/>
<path d="M41.3678 65.1501C40.2047 65.1501 39.2584 64.2039 39.2584 63.0408C39.2584 61.8777 40.2047 60.9314 41.3678 60.9314C42.5309 60.9314 43.4772 61.8777 43.4772 63.0408C43.4772 64.2039 42.5309 65.1501 41.3678 65.1501ZM41.3678 62.3376C40.9801 62.3376 40.6647 62.6531 40.6647 63.0408C40.6647 63.4285 40.9801 63.7439 41.3678 63.7439C41.7555 63.7439 42.0709 63.4285 42.0709 63.0408C42.0709 62.6531 41.7555 62.3376 41.3678 62.3376Z" fill="#6582FD"/>
<path d="M9.74255 16.9575C8.57944 16.9575 7.63318 16.0113 7.63318 14.8481C7.63318 13.685 8.57944 12.7388 9.74255 12.7388C10.9057 12.7388 11.8519 13.685 11.8519 14.8481C11.8519 16.0113 10.9057 16.9575 9.74255 16.9575ZM9.74255 14.145C9.35485 14.145 9.03943 14.4604 9.03943 14.8481C9.03943 15.2358 9.35485 15.5513 9.74255 15.5513C10.1303 15.5513 10.4457 15.2358 10.4457 14.8481C10.4457 14.4604 10.1303 14.145 9.74255 14.145Z" fill="#6582FD"/>
<path d="M49.4667 65.1501C49.2867 65.1501 49.1068 65.0815 48.9694 64.9441C48.6948 64.6696 48.6948 64.2244 48.9694 63.9499L50.3757 62.5436C50.6503 62.269 51.0954 62.269 51.37 62.5436C51.6447 62.8181 51.6447 63.2633 51.37 63.5378L49.9638 64.9441C49.8265 65.0815 49.6467 65.1501 49.4667 65.1501Z" fill="#6582FD"/>
<path d="M64.0173 22.8552C63.8373 22.8552 63.6575 22.7866 63.5201 22.6492C63.2454 22.3747 63.2454 21.9295 63.5201 21.655L64.9263 20.2487C65.201 19.9741 65.646 19.9741 65.9207 20.2487C66.1953 20.5232 66.1953 20.9684 65.9207 21.2429L64.5144 22.6492C64.3772 22.7866 64.1973 22.8552 64.0173 22.8552Z" fill="#6582FD"/>
</g>
<defs>
<linearGradient id="paint0_linear_530_2111" x1="0.957406" y1="54.2339" x2="71.0981" y2="13.7383" gradientUnits="userSpaceOnUse">
<stop stop-color="#D1DDFF" stop-opacity="0"/>
<stop offset="1" stop-color="#B6C4FF"/>
</linearGradient>
<clipPath id="clip0_530_2111">
<rect width="72" height="72" fill="white"/>
</clipPath>
</defs>
</svg>
