<svg width="51" height="60" viewBox="0 0 51 60" fill="none" xmlns="http://www.w3.org/2000/svg">
<g clip-path="url(#clip0_585_561)">
<path d="M50.934 21.0947V37.879C50.934 49.5752 41.4373 59.067 29.746 59.067V42.2828C29.746 30.5866 39.2427 21.0947 50.934 21.0947Z" fill="#666666"/>
<path d="M24.3549 23.6026L24.3549 47.904C11.3293 47.904 0.752361 37.3271 0.752361 24.3015V0C13.778 0 24.3549 10.5769 24.3549 23.6026Z" fill="#666666"/>
<path d="M45.5488 11.9542C46.5726 7.64999 43.9133 3.33078 39.6091 2.30696C35.3049 1.28314 30.9857 3.94241 29.9619 8.24661C28.9381 12.5508 31.5973 16.87 35.9015 17.8938C40.2058 18.9176 44.525 16.2584 45.5488 11.9542Z" fill="#666666"/>
</g>
<defs>
<clipPath id="clip0_585_561">
<rect width="50.1768" height="59.0674" fill="white" transform="translate(0.757202)"/>
</clipPath>
</defs>
</svg>
