<svg width="36" height="36" viewBox="0 0 36 36" fill="none" xmlns="http://www.w3.org/2000/svg">
<path d="M11.5221 16.593C10.6354 16.3377 9.74875 16.2082 8.88626 16.2082C7.55438 16.2082 6.44303 16.5125 5.58129 16.8852C6.41207 13.8438 8.40781 8.59594 12.3834 8.00495C12.7516 7.95019 13.0533 7.68397 13.1538 7.3256L14.0227 4.21772C14.096 3.95489 14.0525 3.67356 13.9026 3.44547C13.7527 3.21739 13.5118 3.0652 13.2418 3.02819C12.9484 2.98817 12.6493 2.96777 12.3528 2.96777C7.58081 2.96777 2.85485 7.94868 0.86062 15.0806C-0.310013 19.2647 -0.653273 25.5552 2.23026 29.5146C3.84385 31.7302 6.19795 32.9133 9.22725 33.0315C9.23971 33.0318 9.2518 33.0322 9.26426 33.0322C13.002 33.0322 16.3164 30.515 17.3246 26.9113C17.9269 24.7569 17.6547 22.4975 16.5573 20.5479C15.4716 18.6201 13.6836 17.2149 11.5221 16.593Z" fill="#3C71FF"/>
<path d="M34.9193 20.5482C33.8336 18.6201 32.0456 17.2149 29.884 16.593C28.9974 16.3377 28.1107 16.2082 27.2486 16.2082C25.9167 16.2082 24.805 16.5125 23.9433 16.8852C24.774 13.8438 26.7698 8.59594 30.7458 8.00495C31.114 7.95019 31.4153 7.68397 31.5161 7.3256L32.385 4.21772C32.4583 3.95489 32.4149 3.67356 32.265 3.44547C32.1154 3.21739 31.8745 3.0652 31.6041 3.02819C31.3111 2.98817 31.012 2.96777 30.7152 2.96777C25.9432 2.96777 21.2172 7.94868 19.2226 15.0806C18.0523 19.2647 17.7091 25.5552 20.593 29.5154C22.2062 31.7305 24.5607 32.914 27.5896 33.0318C27.6021 33.0322 27.6141 33.0326 27.627 33.0326C31.3643 33.0326 34.6791 30.5153 35.6874 26.9116C36.2889 24.7573 36.0163 22.4975 34.9193 20.5482Z" fill="#3C71FF"/>
</svg>
