<svg width="24" height="24" viewBox="0 0 24 24" fill="none" xmlns="http://www.w3.org/2000/svg">
<g clip-path="url(#clip0_138_8892)">
<path d="M12 0C5.3832 0 0 5.3832 0 12C0 18.6168 5.3832 24 12 24C18.6168 24 24 18.6168 24 12C24 5.3832 18.6168 0 12 0ZM14.9532 17.0468C15.3792 17.4728 15.3792 18.1636 14.9532 18.5896C14.7402 18.8025 14.461 18.9091 14.1818 18.9091C13.9026 18.9091 13.6234 18.8026 13.4105 18.5895L7.59229 12.7715C7.38771 12.5669 7.27273 12.2895 7.27273 12.0001C7.27273 11.7108 7.38764 11.4333 7.59229 11.2287L13.4105 5.4104C13.8364 4.98436 14.5272 4.98436 14.9532 5.4104C15.3793 5.83636 15.3793 6.52713 14.9532 6.95316L9.90647 12.0001L14.9532 17.0468Z" fill="#3C71FF"/>
</g>
<defs>
<clipPath id="clip0_138_8892">
<rect width="24" height="24" fill="white"/>
</clipPath>
</defs>
</svg>
