<svg width="24" height="25" viewBox="0 0 24 25" fill="none" xmlns="http://www.w3.org/2000/svg">
<path d="M20.2801 10.2769C20.3089 6.89318 17.427 3.79122 13.8558 3.36228C13.7848 3.35386 13.7074 3.34104 13.6255 3.32747C13.4487 3.29818 13.2659 3.26807 13.0814 3.26807C12.3495 3.26807 12.1538 3.7822 12.1023 4.08884C12.0522 4.38697 12.1 4.63733 12.2441 4.83328C12.4865 5.16287 12.913 5.22138 13.2555 5.26827C13.3559 5.28213 13.4506 5.29502 13.5299 5.31284C16.7385 6.02978 17.8189 7.15696 18.3469 10.3382C18.3598 10.416 18.3656 10.5117 18.3718 10.6133C18.3948 10.9936 18.4428 11.7848 19.2934 11.7848H19.2935C19.3643 11.7848 19.4404 11.7787 19.5196 11.7666C20.3117 11.6462 20.2868 10.923 20.2749 10.5755C20.2716 10.4777 20.2684 10.3851 20.2766 10.3235C20.2789 10.308 20.28 10.2925 20.2801 10.2769Z" fill="white"/>
<path d="M12.8738 2.1202C12.9688 2.12706 13.0588 2.13362 13.1337 2.14509C18.4024 2.95536 20.8254 5.45165 21.4969 10.7616C21.5083 10.8519 21.5101 10.962 21.512 11.0785C21.5187 11.4934 21.5325 12.3564 22.4593 12.3743L22.4881 12.3746C22.7788 12.3746 23.01 12.287 23.1754 12.1139C23.4639 11.8121 23.4437 11.3638 23.4275 11.0035C23.4235 10.9151 23.4197 10.8318 23.4207 10.7589C23.4877 5.32823 18.7869 0.403678 13.361 0.220548C13.3385 0.219802 13.317 0.220995 13.2953 0.224051C13.2847 0.225616 13.2649 0.227554 13.2311 0.227554C13.177 0.227554 13.1104 0.222858 13.0398 0.218088C12.9545 0.212274 12.8577 0.205566 12.7596 0.205566C11.8956 0.205566 11.7313 0.819728 11.7103 1.18584C11.6618 2.03195 12.4804 2.0915 12.8738 2.1202Z" fill="white"/>
<path d="M21.2427 17.6243C21.1306 17.5388 21.0148 17.4502 20.9064 17.3629C20.3311 16.8999 19.7191 16.4732 19.1272 16.0605C19.0044 15.975 18.8816 15.8893 18.7592 15.8035C18.001 15.2709 17.3194 15.0121 16.6754 15.0121C15.8081 15.0121 15.0519 15.4914 14.4277 16.4364C14.1512 16.8554 13.8157 17.0591 13.4023 17.0591C13.1578 17.0591 12.88 16.9893 12.5767 16.8516C10.1296 15.7419 8.3821 14.0404 7.38282 11.7945C6.89977 10.709 7.05636 9.9994 7.9065 9.42191C8.38926 9.09426 9.28784 8.48427 9.22419 7.31617C9.15212 5.98969 6.22531 1.99846 4.99214 1.54514C4.47003 1.35314 3.92146 1.35135 3.35872 1.54067C1.94108 2.01724 0.923768 2.85418 0.416488 3.96087C-0.0737232 5.03021 -0.0515866 6.28581 0.480513 7.59195C2.01875 11.3683 4.18143 14.6608 6.90871 17.3778C9.57823 20.0374 12.8593 22.2161 16.6607 23.8529C17.0033 24.0003 17.3627 24.0808 17.6252 24.1394C17.7146 24.1596 17.7918 24.1767 17.8481 24.1921C17.879 24.2005 17.9109 24.2051 17.9429 24.2054L17.9729 24.2055C17.9729 24.2055 17.9729 24.2055 17.9731 24.2055C19.761 24.2055 21.9078 22.5718 22.5671 20.7091C23.1448 19.0782 22.0901 18.272 21.2427 17.6243Z" fill="white"/>
<path d="M13.6645 6.434C13.3584 6.44175 12.7214 6.45755 12.4979 7.10637C12.3933 7.40958 12.4058 7.67283 12.5351 7.88883C12.7249 8.20575 13.0885 8.30287 13.4192 8.35616C14.6185 8.54861 15.2345 9.21181 15.3577 10.4431C15.4149 11.0173 15.8015 11.4182 16.2979 11.4182C16.3346 11.4182 16.3721 11.416 16.4095 11.4115C17.0065 11.3404 17.2959 10.9018 17.2698 10.1079C17.2793 9.27927 16.8457 8.33857 16.1081 7.58928C15.3681 6.83768 14.476 6.4144 13.6645 6.434Z" fill="white"/>
</svg>
