<svg width="25" height="24" viewBox="0 0 25 24" fill="none" xmlns="http://www.w3.org/2000/svg">
<path d="M12.5 0C5.8838 0 0.5 5.3838 0.5 12C0.5 18.6162 5.8838 24 12.5 24C19.1162 24 24.5 18.6162 24.5 12C24.5 5.3838 19.1162 0 12.5 0ZM17.7776 12.8862L14.5784 16.6536C14.3084 16.9722 13.922 17.1366 13.535 17.1366C13.2224 17.1366 12.9068 17.0292 12.6488 16.8108C12.0728 16.323 12.002 15.4584 12.491 14.8818L13.7762 13.3692H8.2646C7.5086 13.3692 6.896 12.7566 6.896 12.0006C6.896 11.2446 7.5086 10.632 8.2646 10.632H13.7762L12.491 9.1194C12.002 8.5428 12.0728 7.6794 12.6488 7.1892C13.2248 6.7002 14.0888 6.771 14.5784 7.3476L17.7776 11.115C18.212 11.625 18.212 12.375 17.7776 12.8862Z" fill="#3C71FF"/>
</svg>
