<svg width="60" height="60" viewBox="0 0 60 60" fill="none" xmlns="http://www.w3.org/2000/svg">
<g clip-path="url(#clip0_138_8840)">
<path d="M14.5597 32.4526L16.2939 35.9664C16.4751 36.3336 16.8255 36.5881 17.2306 36.6469L21.1084 37.2104C23.5872 37.5707 24.577 40.6168 22.7833 42.3653L19.9773 45.1004C19.6842 45.3862 19.5504 45.798 19.6196 46.2015L20.2819 50.0636C20.7053 52.5324 18.1142 54.415 15.897 53.2495L12.4286 51.4261C12.0662 51.2355 11.6332 51.2355 11.2709 51.4261L7.8024 53.2495C5.58534 54.4152 2.99405 52.5324 3.41746 50.0636L4.07981 46.2015C4.14899 45.798 4.01522 45.3862 3.72205 45.1004L0.916048 42.3653C-0.877599 40.6168 0.112166 37.5707 2.59099 37.2104L6.46875 36.6469C6.87393 36.5881 7.22417 36.3335 7.40546 35.9664L9.1397 32.4526C10.2482 30.2063 13.4511 30.2063 14.5597 32.4526Z" fill="url(#paint0_linear_138_8840)"/>
<path d="M15.8967 53.2492L12.4285 51.4256C12.066 51.2349 11.6332 51.2349 11.2708 51.4256L7.80258 53.2492C5.58552 54.4147 2.99388 52.5323 3.41717 50.063L4.07999 46.2013C4.14882 45.7975 4.01541 45.3856 3.72176 45.0999L0.915877 42.3649C-0.0484759 41.4246 -0.208123 40.1095 0.235642 39.0384L19.6302 45.7265C19.5966 45.8804 19.5919 46.0417 19.6192 46.2013L20.282 50.063C20.7054 52.5323 18.1138 54.4147 15.8967 53.2492Z" fill="url(#paint1_linear_138_8840)"/>
<path d="M12.4285 51.4261L15.8968 53.2495C18.114 54.4152 20.7052 52.5324 20.2818 50.0636L19.6193 46.2015C19.5501 45.798 19.6839 45.3862 19.9771 45.1004L22.7831 42.3653C24.5767 40.6168 23.587 37.5707 21.1081 37.2104L17.2304 36.6469C16.8252 36.5881 16.475 36.3335 16.2937 35.9664L14.5594 32.4526C14.0052 31.3295 12.9273 30.768 11.8494 30.768V51.2833C12.0485 51.2832 12.2473 51.3308 12.4285 51.4261Z" fill="url(#paint2_linear_138_8840)"/>
<path d="M7.80248 53.2492L11.2707 51.4256C11.6332 51.2349 12.066 51.2349 12.4284 51.4256L15.8966 53.2492C18.1137 54.4147 20.7053 52.5323 20.282 50.063L19.6192 46.2013C19.5504 45.7975 19.6838 45.3856 19.9774 45.0999L22.7833 42.3649C23.7477 41.4246 23.9074 40.1095 23.4635 39.0384L4.06895 45.7265C4.10259 45.8804 4.1073 46.0417 4.08001 46.2013L3.41718 50.063C2.99377 52.5323 5.58542 54.4147 7.80248 53.2492Z" fill="url(#paint3_linear_138_8840)"/>
<path d="M21.6176 43.5011L22.7833 42.3649C24.3528 40.8351 23.7912 38.3115 21.9655 37.4633L18.7727 40.6561L21.6176 43.5011Z" fill="url(#paint4_linear_138_8840)"/>
<path d="M50.8605 32.4526L52.5947 35.9664C52.7759 36.3336 53.1262 36.5881 53.5314 36.6469L57.4092 37.2104C59.888 37.5707 60.8778 40.6168 59.0841 42.3653L56.2781 45.1004C55.9849 45.3862 55.8512 45.798 55.9204 46.2015L56.5827 50.0636C57.0061 52.5324 54.4148 54.415 52.1978 53.2495L48.7293 51.4261C48.3668 51.2355 47.9339 51.2355 47.5715 51.4261L44.1031 53.2495C41.886 54.4152 39.2947 52.5324 39.7181 50.0636L40.3805 46.2015C40.4496 45.798 40.3159 45.3862 40.0227 45.1004L37.2167 42.3653C35.4231 40.6168 36.4128 37.5707 38.8916 37.2104L42.7694 36.6469C43.1746 36.5881 43.5248 36.3335 43.7061 35.9664L45.4404 32.4526C46.5489 30.2063 49.7519 30.2063 50.8605 32.4526Z" fill="url(#paint5_linear_138_8840)"/>
<path d="M56.5707 51.1799L42.1373 36.7464L42.1185 36.7415L38.8918 37.2103C36.4129 37.5706 35.4232 40.6167 37.2168 42.3652L40.0228 45.1003C40.316 45.3861 40.4498 45.7979 40.3806 46.2014L39.7182 50.0635C39.2948 52.5323 41.8861 54.4149 44.1032 53.2494L47.5717 51.426C47.934 51.2354 48.367 51.2354 48.7294 51.426L52.1979 53.2494C54.0646 54.231 56.1965 53.051 56.5707 51.1799Z" fill="url(#paint6_linear_138_8840)"/>
<path d="M52.1975 53.2492L48.7293 51.4256C48.3668 51.2349 47.9341 51.2349 47.5717 51.4256L44.1034 53.2492C41.8864 54.4147 39.2947 52.5323 39.718 50.063L40.3808 46.2013C40.4497 45.7975 40.3162 45.3856 40.0226 45.0999L37.2167 42.3649C36.2524 41.4246 36.0926 40.1095 36.5365 39.0384L55.9311 45.7265C55.8974 45.8804 55.8927 46.0417 55.92 46.2013L56.5828 50.063C57.0062 52.5323 54.4147 54.4147 52.1975 53.2492Z" fill="url(#paint7_linear_138_8840)"/>
<path d="M48.7293 51.4261L52.1977 53.2495C54.4148 54.4152 57.0061 52.5324 56.5827 50.0636L55.9203 46.2015C55.8512 45.798 55.9849 45.3862 56.2781 45.1004L59.0841 42.3653C60.8777 40.6168 59.888 37.5707 57.4092 37.2104L53.5314 36.6469C53.1262 36.5881 52.776 36.3335 52.5947 35.9664L50.8605 32.4526C50.3062 31.3295 49.2283 30.768 48.1505 30.768V51.2833C48.3493 51.2832 48.5481 51.3308 48.7293 51.4261Z" fill="url(#paint8_linear_138_8840)"/>
<path d="M44.1033 53.2492L47.5715 51.4256C47.934 51.2349 48.3668 51.2349 48.7291 51.4256L52.1974 53.2492C54.4144 54.4147 57.0061 52.5323 56.5828 50.063L55.92 46.2013C55.8511 45.7975 55.9846 45.3856 56.2782 45.0999L59.0841 42.3649C60.0484 41.4246 60.2081 40.1095 59.7643 39.0384L40.3697 45.7265C40.4034 45.8804 40.4081 46.0417 40.3808 46.2013L39.718 50.063C39.2946 52.5323 41.8862 54.4147 44.1033 53.2492Z" fill="url(#paint9_linear_138_8840)"/>
<path d="M33.9289 11.5217L36.443 16.6159C36.7057 17.1483 37.2135 17.5172 37.8009 17.6025L43.4228 18.4195C47.0164 18.9417 48.4514 23.3579 45.851 25.8926L41.783 29.8579C41.358 30.2723 41.164 30.8692 41.2643 31.4543L42.2247 37.0535C42.8386 40.6326 39.0819 43.3619 35.8676 41.6722L30.8393 39.0286C30.3139 38.7524 29.6862 38.7524 29.1608 39.0286L24.1324 41.6722C20.9182 43.3621 17.1615 40.6326 17.7754 37.0535L18.7357 31.4543C18.8361 30.8692 18.6421 30.2723 18.217 29.8579L14.149 25.8926C11.5487 23.3579 12.9836 18.9416 16.5773 18.4195L22.1992 17.6025C22.7866 17.5172 23.2943 17.1483 23.557 16.6159L26.0711 11.5217C27.6782 8.26535 32.3217 8.26535 33.9289 11.5217Z" fill="url(#paint10_linear_138_8840)"/>
<path d="M35.8673 41.6727L30.8392 39.0289C30.3138 38.7524 29.6862 38.7524 29.1608 39.0289L24.1327 41.6727C20.9185 43.3625 17.1613 40.6333 17.7751 37.0536L18.7361 31.4551C18.8359 30.8696 18.6425 30.2725 18.2168 29.8583L14.1489 25.8932C12.7508 24.5301 12.5194 22.6233 13.1628 21.0706L41.2801 30.7667C41.2314 30.9898 41.2245 31.2237 41.2641 31.4551L42.2252 37.0536C42.8387 40.6333 39.0815 43.3625 35.8673 41.6727Z" fill="url(#paint11_linear_138_8840)"/>
<path d="M30.8393 39.0287L35.8676 41.6722C39.0819 43.3621 42.8386 40.6327 42.2247 37.0535L41.2644 31.4543C41.164 30.8693 41.358 30.2723 41.7831 29.858L45.8511 25.8927C48.4514 23.358 47.0165 18.9416 43.4228 18.4195L37.8009 17.6026C37.2135 17.5173 36.7058 17.1483 36.4431 16.616L33.9289 11.5218C33.1254 9.89352 31.5627 9.07941 30 9.07941V38.8214C30.2882 38.8215 30.5766 38.8906 30.8393 39.0287Z" fill="url(#paint12_linear_138_8840)"/>
<path d="M24.1327 41.6727L29.1608 39.0289C29.6862 38.7524 30.3138 38.7524 30.8392 39.0289L35.8673 41.6727C39.0815 43.3625 42.8387 40.6333 42.2249 37.0536L41.2639 31.4551C41.1641 30.8696 41.3575 30.2725 41.7832 29.8583L45.8511 25.8932C47.2492 24.5301 47.4807 22.6233 46.8372 21.0706L18.72 30.7667C18.7687 30.9898 18.7756 31.2237 18.736 31.4551L17.7749 37.0536C17.1612 40.6333 20.9185 43.3625 24.1327 41.6727Z" fill="url(#paint13_linear_138_8840)"/>
<path d="M49.7805 16.6168C49.0441 15.8804 49.0441 14.6864 49.7805 13.9501L52.5531 11.1775C53.2894 10.4411 54.4833 10.4411 55.2197 11.1775C55.956 11.9138 55.956 13.1077 55.2197 13.8442L52.4471 16.6168C51.7107 17.3531 50.5168 17.3531 49.7805 16.6168Z" fill="url(#paint14_linear_138_8840)"/>
<path d="M45.4361 14.0891C44.3947 14.0891 43.5505 13.2448 43.5505 12.2034V8.28235C43.5505 7.24093 44.3947 6.3967 45.4361 6.3967C46.4775 6.3967 47.3218 7.24093 47.3218 8.28235V12.2034C47.3217 13.2448 46.4774 14.0891 45.4361 14.0891Z" fill="url(#paint15_linear_138_8840)"/>
<path d="M52.3077 20.9611C52.3077 19.9196 53.152 19.0754 54.1934 19.0754H58.1144C59.1559 19.0754 60.0001 19.9196 60.0001 20.9611C60.0001 22.0025 59.1559 22.8467 58.1144 22.8467H54.1934C53.152 22.8467 52.3077 22.0025 52.3077 20.9611Z" fill="url(#paint16_linear_138_8840)"/>
<path d="M10.2195 16.6168C10.9559 15.8804 10.9559 14.6864 10.2195 13.9501L7.44694 11.1775C6.71058 10.4411 5.5167 10.4411 4.78023 11.1775C4.04388 11.9138 4.04388 13.1077 4.78023 13.8442L7.55282 16.6168C8.28929 17.3531 9.48317 17.3531 10.2195 16.6168Z" fill="url(#paint17_linear_138_8840)"/>
<path d="M14.5639 14.0891C15.6053 14.0891 16.4495 13.2448 16.4495 12.2034V8.28235C16.4495 7.24093 15.6053 6.3967 14.5639 6.3967C13.5225 6.3967 12.6782 7.24093 12.6782 8.28235V12.2034C12.6783 13.2448 13.5226 14.0891 14.5639 14.0891Z" fill="url(#paint18_linear_138_8840)"/>
<path d="M7.69224 20.9611C7.69224 19.9196 6.848 19.0754 5.80659 19.0754H1.88553C0.844235 19.0755 0 19.9196 0 20.9611C0 22.0025 0.844235 22.8467 1.88565 22.8467H5.80671C6.848 22.8467 7.69224 22.0025 7.69224 20.9611Z" fill="url(#paint19_linear_138_8840)"/>
</g>
<defs>
<linearGradient id="paint0_linear_138_8840" x1="5.47617" y1="37.3259" x2="19.4356" y2="51.2851" gradientUnits="userSpaceOnUse">
<stop stop-color="#FEE45A"/>
<stop offset="1" stop-color="#FEA613"/>
</linearGradient>
<linearGradient id="paint1_linear_138_8840" x1="8.37129" y1="46.8255" x2="20.3822" y2="39.4369" gradientUnits="userSpaceOnUse">
<stop stop-color="#FEA613" stop-opacity="0"/>
<stop offset="1" stop-color="#E94444"/>
</linearGradient>
<linearGradient id="paint2_linear_138_8840" x1="19.2452" y1="43.6196" x2="3.78978" y2="38.8612" gradientUnits="userSpaceOnUse">
<stop stop-color="#FEA613" stop-opacity="0"/>
<stop offset="1" stop-color="#E94444"/>
</linearGradient>
<linearGradient id="paint3_linear_138_8840" x1="9.34283" y1="40.1029" x2="21.6032" y2="55.8211" gradientUnits="userSpaceOnUse">
<stop stop-color="#FEA613" stop-opacity="0"/>
<stop offset="1" stop-color="#E94444"/>
</linearGradient>
<linearGradient id="paint4_linear_138_8840" x1="25.4831" y1="47.4091" x2="21.2871" y2="40.1149" gradientUnits="userSpaceOnUse">
<stop stop-color="#FEA613" stop-opacity="0"/>
<stop offset="1" stop-color="#E94444"/>
</linearGradient>
<linearGradient id="paint5_linear_138_8840" x1="41.7771" y1="37.3259" x2="55.7365" y2="51.2851" gradientUnits="userSpaceOnUse">
<stop stop-color="#FEE45A"/>
<stop offset="1" stop-color="#FEA613"/>
</linearGradient>
<linearGradient id="paint6_linear_138_8840" x1="46.6868" y1="46.8436" x2="35.3927" y2="42.6868" gradientUnits="userSpaceOnUse">
<stop stop-color="#FEA613" stop-opacity="0"/>
<stop offset="1" stop-color="#E94444"/>
</linearGradient>
<linearGradient id="paint7_linear_138_8840" x1="44.6722" y1="46.8255" x2="56.6831" y2="39.4369" gradientUnits="userSpaceOnUse">
<stop stop-color="#FEA613" stop-opacity="0"/>
<stop offset="1" stop-color="#E94444"/>
</linearGradient>
<linearGradient id="paint8_linear_138_8840" x1="55.5461" y1="43.6196" x2="40.0906" y2="38.8612" gradientUnits="userSpaceOnUse">
<stop stop-color="#FEA613" stop-opacity="0"/>
<stop offset="1" stop-color="#E94444"/>
</linearGradient>
<linearGradient id="paint9_linear_138_8840" x1="45.6437" y1="40.1029" x2="57.904" y2="55.8211" gradientUnits="userSpaceOnUse">
<stop stop-color="#FEA613" stop-opacity="0"/>
<stop offset="1" stop-color="#E94444"/>
</linearGradient>
<linearGradient id="paint10_linear_138_8840" x1="20.7601" y1="18.5868" x2="40.9977" y2="38.8244" gradientUnits="userSpaceOnUse">
<stop stop-color="#FEE45A"/>
<stop offset="1" stop-color="#FEA613"/>
</linearGradient>
<linearGradient id="paint11_linear_138_8840" x1="24.9574" y1="32.3598" x2="42.3702" y2="21.6481" gradientUnits="userSpaceOnUse">
<stop stop-color="#FEA613" stop-opacity="0"/>
<stop offset="1" stop-color="#E94444"/>
</linearGradient>
<linearGradient id="paint12_linear_138_8840" x1="40.7219" y1="27.7112" x2="18.3152" y2="20.8126" gradientUnits="userSpaceOnUse">
<stop stop-color="#FEA613" stop-opacity="0"/>
<stop offset="1" stop-color="#E94444"/>
</linearGradient>
<linearGradient id="paint13_linear_138_8840" x1="26.3659" y1="22.6138" x2="44.1402" y2="45.4013" gradientUnits="userSpaceOnUse">
<stop stop-color="#FEA613" stop-opacity="0"/>
<stop offset="1" stop-color="#E94444"/>
</linearGradient>
<linearGradient id="paint14_linear_138_8840" x1="51.2369" y1="12.5407" x2="54.9396" y2="16.2434" gradientUnits="userSpaceOnUse">
<stop stop-color="#FEDBBD"/>
<stop offset="1" stop-color="#FD3581"/>
</linearGradient>
<linearGradient id="paint15_linear_138_8840" x1="43.7465" y1="10.2429" x2="48.9837" y2="10.2429" gradientUnits="userSpaceOnUse">
<stop stop-color="#FEDBBD"/>
<stop offset="1" stop-color="#FD3581"/>
</linearGradient>
<linearGradient id="paint16_linear_138_8840" x1="56.1539" y1="19.2715" x2="56.1539" y2="24.5086" gradientUnits="userSpaceOnUse">
<stop stop-color="#FEDBBD"/>
<stop offset="1" stop-color="#FD3581"/>
</linearGradient>
<linearGradient id="paint17_linear_138_8840" x1="8.76928" y1="12.5408" x2="5.06659" y2="16.2435" gradientUnits="userSpaceOnUse">
<stop stop-color="#FEDBBD"/>
<stop offset="1" stop-color="#FD3581"/>
</linearGradient>
<linearGradient id="paint18_linear_138_8840" x1="16.2535" y1="10.2429" x2="11.0165" y2="10.2429" gradientUnits="userSpaceOnUse">
<stop stop-color="#FEDBBD"/>
<stop offset="1" stop-color="#FD3581"/>
</linearGradient>
<linearGradient id="paint19_linear_138_8840" x1="3.84612" y1="19.2715" x2="3.84612" y2="24.5086" gradientUnits="userSpaceOnUse">
<stop stop-color="#FEDBBD"/>
<stop offset="1" stop-color="#FD3581"/>
</linearGradient>
<clipPath id="clip0_138_8840">
<rect width="60" height="60" fill="white"/>
</clipPath>
</defs>
</svg>
