<svg width="48" height="46" viewBox="0 0 48 46" fill="none" xmlns="http://www.w3.org/2000/svg">
<path d="M21.8217 44.217L34.4421 20.7516L47.0626 44.217H21.8217Z" fill="white"/>
<path d="M30.9093 32.4844C31.9306 32.4844 32.7585 31.6565 32.7585 30.6351V30.3307C32.7585 29.4351 33.4845 28.7091 34.38 28.7091C35.2755 28.7091 36.0016 29.4351 36.0016 30.3307V33.4558C36.0016 34.5114 36.8573 35.3672 37.913 35.3672C38.9686 35.3672 39.8243 34.5114 39.8243 33.4558V30.7588L34.4421 20.7516L29.0636 30.752C29.124 31.7188 29.9271 32.4844 30.9093 32.4844Z" fill="#BC9AF4"/>
<path d="M41.4364 44.217L31.6968 25.8559L21.8217 44.217H41.4364Z" fill="#D2DCFD"/>
<path d="M31.6969 25.8559L29.0636 30.752C29.1239 31.7188 29.9271 32.4843 30.9092 32.4843C31.9305 32.4843 32.7584 31.6564 32.7584 30.635V30.3306C32.7584 29.8081 33.0056 29.3434 33.3893 29.0467L31.6969 25.8559Z" fill="#6864F7"/>
<path d="M0.9375 44.217L17.3547 13.6922L33.7719 44.217H0.9375Z" fill="white"/>
<path d="M12.1924 36.8235C12.1924 29.7721 15.3489 23.4579 20.3259 19.2167L17.3547 13.6923L0.9375 44.217H13.3997C12.6168 41.8956 12.1924 39.409 12.1924 36.8235Z" fill="#D2DCFD"/>
<path d="M12.7589 28.9547C14.0875 28.9547 15.1646 27.8777 15.1646 26.549V26.153C15.1646 24.9881 16.109 24.0437 17.274 24.0437C18.4389 24.0437 19.3833 24.9881 19.3833 26.153V30.2183C19.3833 31.5915 20.4965 32.7047 21.8697 32.7047C23.2428 32.7047 24.356 31.5915 24.356 30.2183V26.71L17.3547 13.6923L10.3581 26.7012C10.4366 27.9588 11.4815 28.9547 12.7589 28.9547Z" fill="#BC9AF4"/>
<path d="M13.6246 28.7942C15.0118 25.0483 17.3415 21.7599 20.3259 19.2167L17.3547 13.6922L10.3581 26.7011C10.4366 27.9589 11.4814 28.9546 12.7589 28.9546C13.0641 28.9547 13.356 28.8978 13.6246 28.7942Z" fill="#6864F7"/>
<path d="M39.3371 12.6606C41.2873 12.6606 42.8682 11.0797 42.8682 9.12949C42.8682 7.17932 41.2873 5.59839 39.3371 5.59839C37.387 5.59839 35.806 7.17932 35.806 9.12949C35.806 11.0797 37.387 12.6606 39.3371 12.6606Z" fill="#FDCB50"/>
<path d="M17.3547 4.51483H26.0605V11.5999H17.3547V4.51483Z" fill="#B1D952"/>
<path d="M39.3371 3.11506C38.8194 3.11506 38.3996 2.69524 38.3996 2.17756V1.78296C38.3996 1.26527 38.8194 0.845459 39.3371 0.845459C39.8548 0.845459 40.2746 1.26527 40.2746 1.78296V2.17756C40.2746 2.69534 39.8549 3.11506 39.3371 3.11506Z" fill="#FD6050"/>
<path d="M39.3371 17.4135C38.8194 17.4135 38.3996 16.9937 38.3996 16.476V16.0815C38.3996 15.5639 38.8194 15.144 39.3371 15.144C39.8548 15.144 40.2746 15.5639 40.2746 16.0815V16.476C40.2746 16.9937 39.8549 17.4135 39.3371 17.4135Z" fill="#FD6050"/>
<path d="M46.6838 10.0671H46.2892C45.7715 10.0671 45.3517 9.6473 45.3517 9.12961C45.3517 8.61192 45.7715 8.19211 46.2892 8.19211H46.6838C47.2015 8.19211 47.6213 8.61192 47.6213 9.12961C47.6213 9.6473 47.2015 10.0671 46.6838 10.0671Z" fill="#FD6050"/>
<path d="M32.3852 10.0671H31.9907C31.473 10.0671 31.0532 9.6473 31.0532 9.12961C31.0532 8.61192 31.473 8.19211 31.9907 8.19211H32.3852C32.9029 8.19211 33.3227 8.61192 33.3227 9.12961C33.3227 9.6473 32.9029 10.0671 32.3852 10.0671Z" fill="#FD6050"/>
<path d="M44.2529 5.15121C44.0129 5.15121 43.773 5.05961 43.5899 4.87652C43.2239 4.51033 43.224 3.9167 43.5901 3.55061L43.8692 3.27161C44.2355 2.90551 44.8289 2.9057 45.1951 3.2718C45.5611 3.63798 45.561 4.23161 45.1949 4.5977L44.9158 4.87671C44.7327 5.05971 44.4928 5.15121 44.2529 5.15121Z" fill="#FD6050"/>
<path d="M34.1423 15.2618C33.9023 15.2618 33.6624 15.1702 33.4793 14.9871C33.1133 14.6209 33.1134 14.0273 33.4795 13.6612L33.7586 13.3822C34.1249 13.0161 34.7183 13.0163 35.0845 13.3824C35.4505 13.7486 35.4504 14.3422 35.0843 14.7083L34.8052 14.9873C34.6222 15.1703 34.3822 15.2618 34.1423 15.2618Z" fill="#FD6050"/>
<path d="M44.532 15.2618C44.2921 15.2618 44.0523 15.1703 43.8692 14.9873L43.5901 14.7083C43.224 14.3423 43.2239 13.7487 43.5899 13.3824C43.9559 13.0163 44.5496 13.0161 44.9158 13.3822L45.1949 13.6612C45.561 14.0272 45.5611 14.6208 45.1951 14.9871C45.012 15.1702 44.7719 15.2618 44.532 15.2618Z" fill="#FD6050"/>
<path d="M34.4214 5.15121C34.1815 5.15121 33.9417 5.05971 33.7586 4.87671L33.4795 4.5977C33.1134 4.2317 33.1133 3.63808 33.4793 3.2718C33.8453 2.9057 34.439 2.90551 34.8052 3.27161L35.0843 3.55061C35.4504 3.91661 35.4505 4.51024 35.0845 4.87652C34.9014 5.05961 34.6613 5.15121 34.4214 5.15121Z" fill="#FD6050"/>
<path d="M47.8882 43.773L35.2677 20.3076C35.1043 20.0037 34.7871 19.8141 34.442 19.8141C34.097 19.8141 33.7799 20.0036 33.6164 20.3076L27.7967 31.1283L18.2945 13.4607V12.5374H26.0605C26.5782 12.5374 26.998 12.1176 26.998 11.5999V4.51483C26.998 3.99714 26.5782 3.57733 26.0605 3.57733H17.3547C16.837 3.57733 16.4172 3.99714 16.4172 4.51483V11.5999C16.4172 11.6223 16.418 11.6444 16.4195 11.6665V13.4519L0.11185 43.773C-0.0444319 44.0635 -0.0364631 44.4148 0.132756 44.6979C0.302069 44.9812 0.607601 45.1545 0.937508 45.1545H47.0626C47.3925 45.1545 47.698 44.9811 47.8674 44.6979C48.0365 44.4148 48.0444 44.0635 47.8882 43.773ZM25.123 10.6624H18.2945V5.45233H25.123V10.6624ZM2.50623 43.2795L17.3547 15.6715L32.2032 43.2795H2.50623ZM34.3322 43.2795L28.8613 33.1073L34.4421 22.7308L45.4939 43.2795H34.3322Z" fill="#052A75"/>
<path d="M39.3371 13.5981C41.8011 13.5981 43.8057 11.5935 43.8057 9.12958C43.8057 6.66564 41.8011 4.66098 39.3371 4.66098C36.8732 4.66098 34.8685 6.66564 34.8685 9.12958C34.8685 11.5935 36.8732 13.5981 39.3371 13.5981ZM39.3371 6.53598C40.7673 6.53598 41.9307 7.69942 41.9307 9.12958C41.9307 10.5596 40.7673 11.7231 39.3371 11.7231C37.907 11.7231 36.7435 10.5596 36.7435 9.12958C36.7435 7.69942 37.9071 6.53598 39.3371 6.53598Z" fill="#052A75"/>
</svg>
