<svg width="24" height="24" viewBox="0 0 24 24" fill="none" xmlns="http://www.w3.org/2000/svg">
<path d="M12 0C5.3832 0 0 5.3832 0 12C0 18.6168 5.3832 24 12 24C18.6168 24 24 18.6168 24 12C24 5.3832 18.6168 0 12 0ZM16.4077 12.7713L10.5895 18.5896C10.3766 18.8025 10.0974 18.9091 9.81818 18.9091C9.53898 18.9091 9.25978 18.8026 9.04684 18.5895C8.6208 18.1636 8.6208 17.4728 9.04684 17.0468L14.0936 11.9998L9.04684 6.95309C8.6208 6.52713 8.6208 5.83636 9.04684 5.41033C9.4728 4.98429 10.1636 4.98429 10.5896 5.41033L16.4078 11.2284C16.6124 11.4329 16.7273 11.7104 16.7273 11.9997C16.7273 12.2892 16.6124 12.5667 16.4077 12.7713Z" fill="#3C71FF"/>
</svg>
