<svg width="72" height="72" viewBox="0 0 72 72" fill="none" xmlns="http://www.w3.org/2000/svg">
<path d="M36 70.4531C55.0279 70.4531 70.4531 55.0279 70.4531 36C70.4531 16.9721 55.0279 1.54688 36 1.54688C16.9721 1.54688 1.54688 16.9721 1.54688 36C1.54688 55.0279 16.9721 70.4531 36 70.4531Z" fill="#91E0E8"/>
<path d="M21.8755 57.4804C21.8755 57.767 21.6412 58.0012 21.3547 58.0012H0.520875C0.234281 58.0012 0 57.767 0 57.4804V43.522C0 43.2355 0.234281 43.001 0.520875 43.001H21.3546C21.6411 43.001 21.8753 43.2355 21.8753 43.522V57.4804H21.8755Z" fill="#52BBEF"/>
<path d="M16.8792 51.1567C16.6946 50.9379 16.3925 50.9379 16.2079 51.1567L13.5001 54.3695C13.3155 54.5884 13.0136 54.5884 12.8288 54.3695L7.71764 48.3058C7.533 48.0867 7.23108 48.0867 7.0463 48.3058L0 56.6653V57.4805C0 57.7671 0.234281 58.0012 0.520875 58.0012H21.3546C21.6411 58.0012 21.8753 57.7671 21.8753 57.4805V57.0838L16.8792 51.1567Z" fill="#02AF8E"/>
<path d="M2.79042 57.4805V56.6653L8.77711 49.5628L7.71764 48.3058C7.533 48.0867 7.23108 48.0867 7.0463 48.3058L0 56.6653V57.4805C0 57.7671 0.234281 58.0012 0.520875 58.0012H3.3113C3.0247 58.0012 2.79042 57.7671 2.79042 57.4805Z" fill="#0F9390"/>
<path d="M2.93612 47.295C3.79898 47.295 4.49847 46.5955 4.49847 45.7326C4.49847 44.8698 3.79898 44.1703 2.93612 44.1703C2.07326 44.1703 1.37378 44.8698 1.37378 45.7326C1.37378 46.5955 2.07326 47.295 2.93612 47.295Z" fill="white"/>
<path d="M2.664 45.7325C2.664 45.1 3.04074 44.5566 3.58144 44.3108C3.38471 44.2212 3.1666 44.1702 2.93625 44.1702C2.07324 44.1702 1.37363 44.8698 1.37363 45.7325C1.37363 46.5955 2.07338 47.2953 2.93625 47.2953C3.1666 47.2953 3.38456 47.2442 3.58144 47.1546C3.04074 46.9087 2.664 46.365 2.664 45.7325Z" fill="#D9EAFC"/>
<path d="M67.0139 54.7331C67.0139 55.1198 66.6975 55.4362 66.3107 55.4362H50.9705C50.5838 55.4362 50.2674 55.1198 50.2674 54.7331V43.7539C50.2674 43.3672 50.5838 43.0508 50.9705 43.0508H66.3107C66.6975 43.0508 67.0139 43.3672 67.0139 43.7539V54.7331Z" fill="#FE3745"/>
<path d="M53.0578 54.7331V43.7539C53.0578 43.3672 53.3742 43.0508 53.7609 43.0508H50.9705C50.5838 43.0508 50.2674 43.3672 50.2674 43.7539V54.7331C50.2674 55.1198 50.5838 55.4362 50.9705 55.4362H53.7609C53.3742 55.4362 53.0578 55.1198 53.0578 54.7331Z" fill="#B7092B"/>
<path d="M55.9058 47.0689C55.9058 46.2954 56.4538 45.979 57.1236 46.3657L60.8901 48.5402C61.5599 48.9269 61.5599 49.5597 60.8901 49.9465L57.1236 52.1211C56.4538 52.5078 55.9058 52.1914 55.9058 51.418V47.0689Z" fill="white"/>
<path d="M71.7204 31.5205H59.1405C58.9867 31.5205 58.861 31.6468 58.861 31.8013V39.8732C58.861 40.0278 58.9868 40.154 59.1405 40.154H71.7204C71.8743 40.154 72 40.0278 72 39.8732V31.8013C72 31.6469 71.8741 31.5205 71.7204 31.5205Z" fill="#FFAF10"/>
<path d="M61.6513 39.8733V31.8015C61.6513 31.6469 61.7771 31.5206 61.9308 31.5206H59.1404C58.9866 31.5206 58.8608 31.6469 58.8608 31.8015V39.8733C58.8608 40.0279 58.9867 40.1542 59.1404 40.1542H61.9308C61.7771 40.1542 61.6513 40.0279 61.6513 39.8733Z" fill="#EF9614"/>
<path d="M71.7204 31.5205H59.1405C59.0555 31.5205 58.9797 31.56 58.9283 31.6209L65.2089 36.475C65.3309 36.5692 65.5303 36.5692 65.6521 36.475L71.9325 31.6209C71.8812 31.5602 71.8055 31.5205 71.7204 31.5205Z" fill="#FFD00D"/>
<path d="M18.145 3.67822H5.56509C5.41124 3.67822 5.28552 3.8045 5.28552 3.95905V12.0309C5.28552 12.1855 5.41138 12.3118 5.56509 12.3118H18.145C18.2988 12.3118 18.4245 12.1855 18.4245 12.0309V3.95905C18.4247 3.80464 18.2988 3.67822 18.145 3.67822Z" fill="#FFAF10"/>
<path d="M8.07594 12.031V3.95917C8.07594 3.80463 8.2018 3.67834 8.35551 3.67834H5.56509C5.41124 3.67834 5.28552 3.80463 5.28552 3.95917V12.031C5.28552 12.1856 5.41138 12.3119 5.56509 12.3119H8.35551C8.20166 12.3119 8.07594 12.1855 8.07594 12.031Z" fill="#EF9614"/>
<path d="M18.145 3.67822H5.56511C5.48003 3.67822 5.40423 3.71774 5.35291 3.77863L11.6335 8.63272C11.7554 8.72694 11.9548 8.72694 12.0766 8.63272L18.3572 3.77863C18.3059 3.71788 18.2302 3.67822 18.145 3.67822Z" fill="#FFD00D"/>
<path d="M35.9337 6.11719C25.0944 6.11719 16.2762 14.9355 16.2762 25.7747C16.2762 32.4255 19.6002 38.5748 25.1674 42.2241C25.4163 42.3873 25.609 42.6237 25.7188 42.9005L27.8808 48.3562H43.9864L46.1485 42.9005C46.2583 42.6237 46.4509 42.3875 46.6999 42.2241C52.2671 38.5748 55.5909 32.4255 55.5909 25.7747C55.5909 14.9355 46.7726 6.11719 35.9337 6.11719Z" fill="#FFD00D"/>
<path d="M27.9578 42.2241C22.3906 38.5748 19.0668 32.4255 19.0668 25.7747C19.0668 15.4046 27.1384 6.88542 37.3289 6.16725C36.8681 6.13477 36.4029 6.11719 35.9338 6.11719C25.0945 6.11719 16.2764 14.9355 16.2764 25.7747C16.2764 32.4255 19.6003 38.5748 25.1675 42.2241C25.4164 42.3873 25.6091 42.6237 25.7189 42.9005L27.8809 48.3562H30.6713L28.5093 42.9005C28.3992 42.6237 28.2067 42.3873 27.9578 42.2241Z" fill="#FFAF10"/>
<path d="M36.9883 48.356V41.123C36.6397 41.1467 36.2883 41.1599 35.9336 41.1599C35.579 41.1599 35.2275 41.1467 34.8789 41.123V48.356H36.9883Z" fill="#1A2B63"/>
<path d="M35.9336 41.3006C27.3727 41.3006 20.4078 34.3356 20.4078 25.7748C20.4078 17.2139 27.3727 10.2488 35.9336 10.2488C44.4944 10.2488 51.4593 17.2139 51.4593 25.7748C51.4595 34.3356 44.4944 41.3006 35.9336 41.3006Z" fill="#B7092B"/>
<path d="M35.9336 37.4683C29.4855 37.4683 24.2401 32.2224 24.2401 25.7747C24.2401 19.3268 29.4857 14.0811 35.9336 14.0811C42.3816 14.0811 47.6271 19.3269 47.6271 25.7747C47.6273 32.2225 42.3816 37.4683 35.9336 37.4683Z" fill="white"/>
<path d="M26.3274 25.7747C26.3274 19.6788 31.0168 14.66 36.9772 14.13C36.6332 14.0994 36.2856 14.0809 35.9336 14.0809C29.4855 14.0809 24.2401 19.3268 24.2401 25.7746C24.2401 32.2224 29.4857 37.4681 35.9336 37.4681C36.2856 37.4681 36.6332 37.4497 36.9772 37.4191C31.0168 36.8893 26.3274 31.8706 26.3274 25.7747Z" fill="#D9EAFC"/>
<path d="M35.9339 33.6367C40.2757 33.6367 43.7954 30.117 43.7954 25.7752C43.7954 21.4334 40.2757 17.9137 35.9339 17.9137C31.5921 17.9137 28.0724 21.4334 28.0724 25.7752C28.0724 30.117 31.5921 33.6367 35.9339 33.6367Z" fill="#B7092B"/>
<path d="M35.9336 29.2999C33.9896 29.2999 32.4083 27.7186 32.4083 25.7747C32.4083 23.8307 33.9896 22.2494 35.9336 22.2494C37.8775 22.2494 39.4589 23.8307 39.4589 25.7747C39.4591 27.7186 37.8776 29.2999 35.9336 29.2999Z" fill="white"/>
<path d="M34.6362 25.7747C34.6362 24.2198 35.648 22.8981 37.0475 22.4308C36.6972 22.3138 36.3229 22.2494 35.9336 22.2494C33.9896 22.2494 32.4083 23.8307 32.4083 25.7747C32.4083 27.7186 33.9896 29.2999 35.9336 29.2999C36.3229 29.2999 36.6972 29.2356 37.0475 29.1185C35.648 28.6512 34.6362 27.3295 34.6362 25.7747Z" fill="#D9EAFC"/>
<path d="M30.652 61.6013V64.4765C30.652 65.25 31.2849 65.8828 32.0583 65.8828H39.8091C40.5826 65.8828 41.2154 65.25 41.2154 64.4765V61.6013H30.652Z" fill="#293D7C"/>
<path d="M33.4425 64.4765V61.6013H30.652V64.4765C30.652 65.25 31.2849 65.8828 32.0583 65.8828H34.8487C34.0753 65.8828 33.4425 65.25 33.4425 64.4765Z" fill="#1A2B63"/>
<path d="M46.2856 61.0388C46.2856 61.4255 45.9692 61.7419 45.5825 61.7419H26.2848C25.8981 61.7419 25.5817 61.4255 25.5817 61.0388V48.9185C25.5817 48.5317 25.8981 48.2153 26.2848 48.2153H45.5825C45.9692 48.2153 46.2856 48.5317 46.2856 48.9185V61.0388Z" fill="#445EA0"/>
<path d="M28.3721 61.0388V48.9185C28.3721 48.5317 28.6885 48.2153 29.0752 48.2153H26.2848C25.8981 48.2153 25.5817 48.5317 25.5817 48.9185V61.0388C25.5817 61.4255 25.8981 61.7419 26.2848 61.7419H29.0752C28.6885 61.7419 28.3721 61.4255 28.3721 61.0388Z" fill="#293D7C"/>
<path d="M46.5609 53.7789H25.3063C24.7237 53.7789 24.2516 53.3069 24.2516 52.7242C24.2516 52.1416 24.7237 51.6696 25.3063 51.6696H46.5609C47.1435 51.6696 47.6156 52.1416 47.6156 52.7242C47.6156 53.3067 47.1434 53.7789 46.5609 53.7789Z" fill="#1A2B63"/>
<path d="M46.5609 58.2876H25.3063C24.7237 58.2876 24.2516 57.8155 24.2516 57.2329C24.2516 56.6503 24.7237 56.1782 25.3063 56.1782H46.5609C47.1435 56.1782 47.6156 56.6503 47.6156 57.2329C47.6156 57.8155 47.1434 58.2876 46.5609 58.2876Z" fill="#1A2B63"/>
<path d="M35.9336 24.9039H18.0525L18.7445 25.6495C18.9023 25.8195 18.9023 26.0978 18.7445 26.2679L18.0526 27.0133H35.9336C36.5162 27.0133 36.9883 26.5412 36.9883 25.9586C36.9883 25.376 36.5162 24.9039 35.9336 24.9039Z" fill="#1A2B63"/>
<path d="M9.45774 29.5987C9.22571 29.5987 9.1689 29.4633 9.33175 29.2979L12.32 26.2593C12.4827 26.0939 12.4827 25.8232 12.32 25.6578L9.33175 22.6196C9.16904 22.4541 9.22571 22.3188 9.45774 22.3188H15.3716C15.6036 22.3188 15.9226 22.4579 16.0805 22.6279L18.8851 25.6494C19.0429 25.8194 19.0429 26.0977 18.8851 26.2677L16.0805 29.2893C15.9226 29.4595 15.6036 29.5986 15.3716 29.5986L9.45774 29.5987Z" fill="#FE3745"/>
<path d="M11.8408 29.298L14.8291 26.2594C14.9918 26.094 14.9918 25.8233 14.8291 25.658L11.8408 22.6198C11.6781 22.4543 11.7347 22.319 11.9668 22.319H9.45774C9.22571 22.319 9.1689 22.4543 9.33175 22.6198L12.32 25.658C12.4827 25.8235 12.4827 26.0942 12.32 26.2594L9.33175 29.298C9.16904 29.4634 9.22571 29.5988 9.45774 29.5988H11.9669C11.7347 29.5987 11.6781 29.4634 11.8408 29.298Z" fill="#B7092B"/>
</svg>
