<svg width="72" height="72" viewBox="0 0 72 72" fill="none" xmlns="http://www.w3.org/2000/svg">
<g clip-path="url(#clip0_530_2240)">
<path d="M47.7759 57.6239L30.9965 64.6551L32.2593 66.0839H24.3436V49.8304H47.7759V57.6239Z" fill="#229BFF"/>
<path d="M72 42.0145V50.3536C72 51.9061 70.7414 53.1661 69.1875 53.1661H64.6805L53.8298 50.639L43.6247 53.1661H33.0863L31.6912 50.6151L28.9069 53.1661H2.8125C1.25859 53.1661 0 51.9061 0 50.3536V42.0145L37.0673 35.9409L72 42.0145Z" fill="#7CBAF7"/>
<path d="M40.1095 49.6504C40.1095 51.592 41.6835 53.166 43.6251 53.166H64.6799C66.6215 53.166 68.1955 51.592 68.1955 49.6504C68.1955 47.7088 66.6215 46.1348 64.6799 46.1348H43.6251C41.6835 46.1348 40.1095 47.7088 40.1095 49.6504Z" fill="#48ACFF"/>
<path d="M48.547 49.6504C48.547 51.592 50.121 53.166 52.0626 53.166H59.0549C60.9965 53.166 62.5705 51.592 62.5705 49.6504C62.5705 47.7088 60.9965 46.1348 59.0549 46.1348H52.0626C50.121 46.1348 48.547 47.7088 48.547 49.6504Z" fill="#229BFF"/>
<path d="M25.391 49.6504C25.391 51.592 26.965 53.166 28.9066 53.166H33.0864C35.028 53.166 36.602 51.592 36.602 49.6504C36.602 47.7088 35.028 46.1348 33.0864 46.1348H28.9066C26.965 46.1348 25.391 47.7088 25.391 49.6504Z" fill="#48ACFF"/>
<path d="M47.7766 57.6239H30.9964C29.0548 57.6239 27.4808 59.1979 27.4808 61.1395C27.4808 63.0811 29.0548 64.6552 30.9964 64.6552H47.7765V57.6239H47.7766Z" fill="#037CFF"/>
<path d="M41.3893 57.6239H37.4913C35.5497 57.6239 33.9757 59.1979 33.9757 61.1395C33.9757 63.0811 35.5497 64.6552 37.4913 64.6552H41.3893C43.3309 64.6552 44.9049 63.0811 44.9049 61.1395C44.9049 59.1979 43.3309 57.6239 41.3893 57.6239Z" fill="#0066F9"/>
<path d="M72 5.9386V29.7661L67.0134 38.4989L42.1987 42.0145H31.77L28.6172 38.4989L25.4658 42.0145H0V5.9386C0 4.38469 1.25859 3.1261 2.8125 3.1261H9.39375L21.9502 6.64172L32.5167 3.1261H44.9086L47.4792 5.56735L50.0484 3.1261H69.1875C70.7414 3.1261 72 4.38469 72 5.9386Z" fill="#FF5AD0"/>
<path d="M64.9688 29.7659V34.9836H42.199C40.2574 34.9836 38.6834 36.5576 38.6834 38.4992C38.6834 40.4409 40.2574 42.0149 42.199 42.0149H72V29.7659C72 27.8243 70.426 26.2502 68.4844 26.2502C66.5428 26.2504 64.9688 27.8243 64.9688 29.7659Z" fill="#F91ED0"/>
<path d="M31.7695 34.9835H25.5445C23.5735 34.9835 21.913 36.5965 21.9504 38.5671C21.9867 40.4773 23.5465 42.0148 25.4654 42.0148H31.7695C33.7111 42.0148 35.2851 40.4408 35.2851 38.4991C35.2851 36.5575 33.7111 34.9835 31.7695 34.9835Z" fill="#F91ED0"/>
<path d="M60.9151 34.9835H49.254C47.3124 34.9835 45.7384 36.5575 45.7384 38.4991C45.7384 40.4408 47.3124 42.0148 49.254 42.0148H60.9151C62.8567 42.0148 64.4307 40.4408 64.4307 38.4991C64.4307 36.5575 62.8567 34.9835 60.9151 34.9835Z" fill="#E800C7"/>
<path d="M36.0323 6.64172C36.0323 8.58376 34.4573 10.1573 32.5167 10.1573H22.4775L19.9083 8.51344L17.3376 10.1573H9.39374C8.42343 10.1573 7.54311 9.7636 6.90749 9.12797C6.27186 8.49094 5.87811 7.61344 5.87811 6.64172C5.87811 4.69969 7.45171 3.1261 9.39374 3.1261H17.3376L20.4103 4.65329L22.4775 3.1261H32.5167C33.487 3.1261 34.3659 3.51985 35.0016 4.15547C35.6386 4.7925 36.0323 5.67 36.0323 6.64172Z" fill="#FF97EB"/>
<path d="M22.4776 3.1261H17.3376C15.396 3.1261 13.822 4.70011 13.822 6.64172C13.822 8.58333 15.396 10.1573 17.3376 10.1573H22.4776C24.4192 10.1573 25.9933 8.58333 25.9933 6.64172C25.9933 4.70011 24.4192 3.1261 22.4776 3.1261Z" fill="#FFC5F7"/>
<path d="M50.0486 3.1261H44.9086C42.967 3.1261 41.3929 4.70011 41.3929 6.64172C41.3929 8.58333 42.967 10.1573 44.9086 10.1573H50.0486C51.9902 10.1573 53.5642 8.58333 53.5642 6.64172C53.5642 4.70011 51.9902 3.1261 50.0486 3.1261Z" fill="#FF97EB"/>
<path d="M50.304 68.8739H21.8162C21.0395 68.8739 20.4099 68.2443 20.4099 67.4677V66.0614C20.4099 65.2847 21.0395 64.6552 21.8162 64.6552H50.3041C51.0808 64.6552 51.7104 65.2847 51.7104 66.0614V67.4677C51.7102 68.2443 51.0806 68.8739 50.304 68.8739Z" fill="#7CBAF7"/>
<path d="M48.1297 28.0876C48.1297 28.3997 47.8767 28.6528 47.5646 28.6528H44.8456C44.5335 28.6528 44.2804 28.3998 44.2804 28.0876V17.5825C44.2804 17.0389 43.8397 16.5981 43.296 16.5981H41.046C40.5024 16.5981 40.0616 17.0389 40.0616 17.5825V28.0876C40.0616 30.7297 42.2035 32.8716 44.8456 32.8716H47.5646C50.2066 32.8716 52.3485 30.7297 52.3485 28.0876V17.5825C52.3485 17.0389 51.9078 16.5981 51.3641 16.5981H49.1141C48.5704 16.5981 48.1297 17.0389 48.1297 17.5825V28.0876Z" fill="#F8FFFC"/>
<path d="M67.7881 18.2098L65.8642 16.7066C65.3993 16.3434 64.7281 16.4259 64.3649 16.8907L61.2333 20.8989L58.1017 16.8907C57.7385 16.4258 57.0673 16.3434 56.6024 16.7066L54.6785 18.2098C54.2136 18.573 54.1312 19.2442 54.4944 19.7091L58.3287 24.6168L54.4944 29.5245C54.1312 29.9894 54.2137 30.6606 54.6785 31.0238L56.6024 32.5269C57.0673 32.8902 57.7385 32.8078 58.1017 32.3429L61.2333 28.3346L64.3649 32.3429C64.7281 32.8078 65.3993 32.8902 65.8642 32.5269L67.7881 31.0238C68.253 30.6606 68.3354 29.9894 67.9722 29.5245L64.1379 24.6168L67.9722 19.7091C68.3354 19.2442 68.253 18.573 67.7881 18.2098Z" fill="#F8FFFC"/>
<path d="M11.8693 28.0287C11.8693 28.3407 11.6163 28.5938 11.3041 28.5938H8.58513C8.27308 28.5938 8.01996 28.3409 8.01996 28.0287V17.5236C8.01996 16.9799 7.57924 16.5392 7.03558 16.5392H4.78558C4.24193 16.5392 3.80121 16.9799 3.80121 17.5236V28.0287C3.80121 30.6707 5.94307 32.8126 8.58513 32.8126H11.3041C13.9462 32.8126 16.088 30.6707 16.088 28.0287V17.5236C16.088 16.9799 15.6473 16.5392 15.1037 16.5392H12.8537C12.31 16.5392 11.8693 16.9799 11.8693 17.5236V28.0287Z" fill="#F8FFFC"/>
<path d="M19.7111 32.5763H21.9611C22.5048 32.5763 22.9455 32.1356 22.9455 31.592V17.5236C22.9455 16.9799 22.5048 16.5392 21.9611 16.5392H19.7111C19.1675 16.5392 18.7267 16.9799 18.7267 17.5236V31.592C18.7267 32.1356 19.1675 32.5763 19.7111 32.5763Z" fill="#F8FFFC"/>
<path d="M32.8085 15.3198L26.9812 32.8369C26.8097 33.3527 27.0887 33.91 27.6046 34.0817L29.3287 34.6552C29.8445 34.8268 30.4018 34.5478 30.5735 34.0318L36.4007 16.5147C36.5723 15.9989 36.2933 15.4416 35.7773 15.2699L34.0533 14.6964C33.5373 14.5249 32.98 14.804 32.8085 15.3198Z" fill="#F8FFFC"/>
</g>
<defs>
<clipPath id="clip0_530_2240">
<rect width="72" height="72" fill="white"/>
</clipPath>
</defs>
</svg>
